<mxfile host="app.diagrams.net" agent="Mozilla/5.0 (Windows NT 10.0; Win64; x64) AppleWebKit/537.36 (KHTML, like Gecko) Chrome/140.0.0.0 Safari/537.36 Edg/140.0.0.0" version="28.2.3" pages="4">
  <diagram name="Marketplace" id="hnliXG5YRL3d3dUrOnFt">
    <mxGraphModel dx="1418" dy="874" grid="1" gridSize="10" guides="1" tooltips="1" connect="1" arrows="1" fold="1" page="1" pageScale="1" pageWidth="827" pageHeight="1169" background="none" math="0" shadow="0">
      <root>
        <mxCell id="0" />
        <mxCell id="1" parent="0" />
        <mxCell id="baI93Eb9KqTFqQ3-h29e-1" value="" style="shape=offPageConnector;whiteSpace=wrap;html=1;rounded=0;glass=0;fillStyle=solid;align=center;verticalAlign=middle;fontFamily=Helvetica;fontSize=12;fontColor=default;labelBackgroundColor=none;fillColor=light-dark(#c4ccd6, #dbdbff);gradientColor=none;gradientDirection=east;strokeColor=none;rotation=-180;size=0.16;" parent="1" vertex="1">
          <mxGeometry x="181.63" y="70.00000000000003" width="494.63" height="510" as="geometry" />
        </mxCell>
        <mxCell id="baI93Eb9KqTFqQ3-h29e-2" value="" style="shape=offPageConnector;whiteSpace=wrap;html=1;rounded=0;glass=0;fillStyle=solid;align=center;verticalAlign=middle;fontFamily=Helvetica;fontSize=12;fontColor=default;labelBackgroundColor=none;fillColor=light-dark(#90a5b1, #dbdbff);gradientColor=none;gradientDirection=east;strokeColor=none;rotation=-180;size=0.6153846153846154;" parent="1" vertex="1">
          <mxGeometry x="170" y="190.00000000000003" width="513" height="390" as="geometry" />
        </mxCell>
        <mxCell id="baI93Eb9KqTFqQ3-h29e-3" value="" style="rounded=0;whiteSpace=wrap;html=1;textShadow=0;fillColor=#FFFFFF;strokeColor=none;gradientColor=none;gradientDirection=east;fillStyle=solid;glass=0;" parent="1" vertex="1">
          <mxGeometry x="201.63" y="180.00000000000003" width="455.37" height="380" as="geometry" />
        </mxCell>
        <mxCell id="baI93Eb9KqTFqQ3-h29e-4" value="&lt;span style=&quot;font-family: -apple-system, BlinkMacSystemFont, &amp;quot;Segoe UI&amp;quot;, Roboto, Oxygen, Ubuntu, &amp;quot;Fira Sans&amp;quot;, &amp;quot;Droid Sans&amp;quot;, &amp;quot;Helvetica Neue&amp;quot;, sans-serif;&quot;&gt;&lt;font style=&quot;color: rgb(0, 204, 0);&quot;&gt;&lt;b style=&quot;&quot;&gt;✓&lt;/b&gt;&lt;/font&gt;&lt;/span&gt;&lt;span style=&quot;font-family: -apple-system, BlinkMacSystemFont, &amp;quot;Segoe UI&amp;quot;, Roboto, Oxygen, Ubuntu, &amp;quot;Fira Sans&amp;quot;, &amp;quot;Droid Sans&amp;quot;, &amp;quot;Helvetica Neue&amp;quot;, sans-serif;&quot;&gt;&lt;b&gt; &lt;/b&gt;Centralized Data Governance&lt;/span&gt;&lt;br&gt;&lt;font style=&quot;color: rgb(0, 204, 0);&quot;&gt;&lt;span style=&quot;font-family: -apple-system, BlinkMacSystemFont, &amp;quot;Segoe UI&amp;quot;, Roboto, Oxygen, Ubuntu, &amp;quot;Fira Sans&amp;quot;, &amp;quot;Droid Sans&amp;quot;, &amp;quot;Helvetica Neue&amp;quot;, sans-serif;&quot;&gt;&lt;font&gt;&lt;b&gt;✓&lt;/b&gt;&lt;/font&gt;&lt;/span&gt;&lt;span style=&quot;font-family: -apple-system, BlinkMacSystemFont, &amp;quot;Segoe UI&amp;quot;, Roboto, Oxygen, Ubuntu, &amp;quot;Fira Sans&amp;quot;, &amp;quot;Droid Sans&amp;quot;, &amp;quot;Helvetica Neue&amp;quot;, sans-serif;&quot;&gt;&lt;b&gt;&amp;nbsp;&lt;/b&gt;&lt;/span&gt;&lt;/font&gt;&lt;span style=&quot;font-family: -apple-system, BlinkMacSystemFont, &amp;quot;Segoe UI&amp;quot;, Roboto, Oxygen, Ubuntu, &amp;quot;Fira Sans&amp;quot;, &amp;quot;Droid Sans&amp;quot;, &amp;quot;Helvetica Neue&amp;quot;, sans-serif;&quot;&gt;Enhanced Data Discoverability&lt;/span&gt;&lt;br&gt;&lt;font style=&quot;color: rgb(0, 204, 0);&quot;&gt;&lt;span style=&quot;font-family: -apple-system, BlinkMacSystemFont, &amp;quot;Segoe UI&amp;quot;, Roboto, Oxygen, Ubuntu, &amp;quot;Fira Sans&amp;quot;, &amp;quot;Droid Sans&amp;quot;, &amp;quot;Helvetica Neue&amp;quot;, sans-serif;&quot;&gt;&lt;font&gt;&lt;b&gt;✓&lt;/b&gt;&lt;/font&gt;&lt;/span&gt;&lt;span style=&quot;font-family: -apple-system, BlinkMacSystemFont, &amp;quot;Segoe UI&amp;quot;, Roboto, Oxygen, Ubuntu, &amp;quot;Fira Sans&amp;quot;, &amp;quot;Droid Sans&amp;quot;, &amp;quot;Helvetica Neue&amp;quot;, sans-serif;&quot;&gt;&lt;b&gt;&amp;nbsp;&lt;/b&gt;&lt;/span&gt;&lt;/font&gt;&lt;span style=&quot;font-family: -apple-system, BlinkMacSystemFont, &amp;quot;Segoe UI&amp;quot;, Roboto, Oxygen, Ubuntu, &amp;quot;Fira Sans&amp;quot;, &amp;quot;Droid Sans&amp;quot;, &amp;quot;Helvetica Neue&amp;quot;, sans-serif;&quot;&gt;Streamlined Collaboration&lt;/span&gt;&lt;br&gt;&lt;font style=&quot;color: rgb(0, 204, 0);&quot;&gt;&lt;span style=&quot;font-family: -apple-system, BlinkMacSystemFont, &amp;quot;Segoe UI&amp;quot;, Roboto, Oxygen, Ubuntu, &amp;quot;Fira Sans&amp;quot;, &amp;quot;Droid Sans&amp;quot;, &amp;quot;Helvetica Neue&amp;quot;, sans-serif;&quot;&gt;&lt;font&gt;&lt;b&gt;✓&lt;/b&gt;&lt;/font&gt;&lt;/span&gt;&lt;span style=&quot;font-family: -apple-system, BlinkMacSystemFont, &amp;quot;Segoe UI&amp;quot;, Roboto, Oxygen, Ubuntu, &amp;quot;Fira Sans&amp;quot;, &amp;quot;Droid Sans&amp;quot;, &amp;quot;Helvetica Neue&amp;quot;, sans-serif;&quot;&gt;&lt;b&gt;&amp;nbsp;&lt;/b&gt;&lt;/span&gt;&lt;/font&gt;&lt;span style=&quot;font-family: -apple-system, BlinkMacSystemFont, &amp;quot;Segoe UI&amp;quot;, Roboto, Oxygen, Ubuntu, &amp;quot;Fira Sans&amp;quot;, &amp;quot;Droid Sans&amp;quot;, &amp;quot;Helvetica Neue&amp;quot;, sans-serif;&quot;&gt;Optimized Data Consumption&lt;br&gt;&lt;br&gt;&lt;br&gt;&lt;/span&gt;" style="text;whiteSpace=wrap;html=1;labelBackgroundColor=none;fontColor=#000000;fontSize=14;" parent="1" vertex="1">
          <mxGeometry x="697" y="500" width="210" height="80" as="geometry" />
        </mxCell>
        <mxCell id="baI93Eb9KqTFqQ3-h29e-6" value="" style="rounded=0;whiteSpace=wrap;html=1;textShadow=0;fillColor=light-dark(#e5eaf1, #272727);strokeColor=none;gradientColor=none;gradientDirection=east;" parent="1" vertex="1">
          <mxGeometry x="211.63" y="470" width="435.37" height="80" as="geometry" />
        </mxCell>
        <mxCell id="baI93Eb9KqTFqQ3-h29e-7" value="&lt;strong style=&quot;--tw-border-spacing-x: 0; --tw-border-spacing-y: 0; --tw-translate-x: 0; --tw-translate-y: 0; --tw-rotate: 0; --tw-skew-x: 0; --tw-skew-y: 0; --tw-scale-x: 1; --tw-scale-y: 1; --tw-pan-x: ; --tw-pan-y: ; --tw-pinch-zoom: ; --tw-scroll-snap-strictness: proximity; --tw-gradient-from-position: ; --tw-gradient-via-position: ; --tw-gradient-to-position: ; --tw-ordinal: ; --tw-slashed-zero: ; --tw-numeric-figure: ; --tw-numeric-spacing: ; --tw-numeric-fraction: ; --tw-ring-inset: ; --tw-ring-offset-width: 0px; --tw-ring-offset-color: #fff; --tw-ring-color: rgba(59,130,246,.5); --tw-ring-offset-shadow: 0 0 #0000; --tw-ring-shadow: 0 0 #0000; --tw-shadow: 0 0 #0000; --tw-shadow-colored: 0 0 #0000; --tw-blur: ; --tw-brightness: ; --tw-contrast: ; --tw-grayscale: ; --tw-hue-rotate: ; --tw-invert: ; --tw-saturate: ; --tw-sepia: ; --tw-drop-shadow: ; --tw-backdrop-blur: ; --tw-backdrop-brightness: ; --tw-backdrop-contrast: ; --tw-backdrop-grayscale: ; --tw-backdrop-hue-rotate: ; --tw-backdrop-invert: ; --tw-backdrop-opacity: ; --tw-backdrop-saturate: ; --tw-backdrop-sepia: ; --tw-contain-size: ; --tw-contain-layout: ; --tw-contain-paint: ; --tw-contain-style: ; box-sizing: border-box; border: 0px solid rgb(229, 231, 235); scrollbar-color: auto; scrollbar-width: auto; color: rgb(17, 24, 39); font-style: normal; font-variant-ligatures: normal; font-variant-caps: normal; letter-spacing: normal; orphans: 2; text-align: left; text-indent: 0px; text-transform: none; widows: 2; word-spacing: 0px; -webkit-text-stroke-width: 0px; white-space: normal; text-decoration-thickness: initial; text-decoration-style: initial; text-decoration-color: initial;&quot;&gt;Data Sources&lt;/strong&gt;" style="text;whiteSpace=wrap;html=1;labelBackgroundColor=none;fontSize=12;fontStyle=1;fontFamily=Tahoma;verticalAlign=middle;" parent="1" vertex="1">
          <mxGeometry x="457" y="500" width="140" height="20" as="geometry" />
        </mxCell>
        <mxCell id="baI93Eb9KqTFqQ3-h29e-8" value="" style="rounded=0;whiteSpace=wrap;html=1;textShadow=0;fillColor=light-dark(#e5eaf1, #272727);strokeColor=none;gradientColor=none;gradientDirection=east;" parent="1" vertex="1">
          <mxGeometry x="211.63" y="380" width="325.37" height="80" as="geometry" />
        </mxCell>
        <mxCell id="baI93Eb9KqTFqQ3-h29e-9" value="" style="rounded=0;whiteSpace=wrap;html=1;textShadow=0;fillColor=light-dark(#e5eaf1, #272727);strokeColor=none;gradientColor=none;gradientDirection=east;fillStyle=solid;" parent="1" vertex="1">
          <mxGeometry x="211.63" y="290" width="325.37" height="80" as="geometry" />
        </mxCell>
        <mxCell id="baI93Eb9KqTFqQ3-h29e-10" value="&lt;strong style=&quot;--tw-border-spacing-x: 0; --tw-border-spacing-y: 0; --tw-translate-x: 0; --tw-translate-y: 0; --tw-rotate: 0; --tw-skew-x: 0; --tw-skew-y: 0; --tw-scale-x: 1; --tw-scale-y: 1; --tw-pan-x: ; --tw-pan-y: ; --tw-pinch-zoom: ; --tw-scroll-snap-strictness: proximity; --tw-gradient-from-position: ; --tw-gradient-via-position: ; --tw-gradient-to-position: ; --tw-ordinal: ; --tw-slashed-zero: ; --tw-numeric-figure: ; --tw-numeric-spacing: ; --tw-numeric-fraction: ; --tw-ring-inset: ; --tw-ring-offset-width: 0px; --tw-ring-offset-color: #fff; --tw-ring-color: rgba(59,130,246,.5); --tw-ring-offset-shadow: 0 0 #0000; --tw-ring-shadow: 0 0 #0000; --tw-shadow: 0 0 #0000; --tw-shadow-colored: 0 0 #0000; --tw-blur: ; --tw-brightness: ; --tw-contrast: ; --tw-grayscale: ; --tw-hue-rotate: ; --tw-invert: ; --tw-saturate: ; --tw-sepia: ; --tw-drop-shadow: ; --tw-backdrop-blur: ; --tw-backdrop-brightness: ; --tw-backdrop-contrast: ; --tw-backdrop-grayscale: ; --tw-backdrop-hue-rotate: ; --tw-backdrop-invert: ; --tw-backdrop-opacity: ; --tw-backdrop-saturate: ; --tw-backdrop-sepia: ; --tw-contain-size: ; --tw-contain-layout: ; --tw-contain-paint: ; --tw-contain-style: ; box-sizing: border-box; border: 0px solid rgb(229, 231, 235); scrollbar-color: auto; scrollbar-width: auto; color: rgb(17, 24, 39); font-style: normal; font-variant-ligatures: normal; font-variant-caps: normal; letter-spacing: normal; orphans: 2; text-align: left; text-indent: 0px; text-transform: none; widows: 2; word-spacing: 0px; -webkit-text-stroke-width: 0px; white-space: normal; text-decoration-thickness: initial; text-decoration-style: initial; text-decoration-color: initial;&quot;&gt;Azure Databricks&lt;/strong&gt;" style="text;whiteSpace=wrap;html=1;labelBackgroundColor=none;fontSize=12;fontStyle=1;fontFamily=Tahoma;verticalAlign=middle;" parent="1" vertex="1">
          <mxGeometry x="407" y="410" width="124" height="20" as="geometry" />
        </mxCell>
        <mxCell id="baI93Eb9KqTFqQ3-h29e-11" value="&lt;strong style=&quot;--tw-border-spacing-x: 0; --tw-border-spacing-y: 0; --tw-translate-x: 0; --tw-translate-y: 0; --tw-rotate: 0; --tw-skew-x: 0; --tw-skew-y: 0; --tw-scale-x: 1; --tw-scale-y: 1; --tw-pan-x: ; --tw-pan-y: ; --tw-pinch-zoom: ; --tw-scroll-snap-strictness: proximity; --tw-gradient-from-position: ; --tw-gradient-via-position: ; --tw-gradient-to-position: ; --tw-ordinal: ; --tw-slashed-zero: ; --tw-numeric-figure: ; --tw-numeric-spacing: ; --tw-numeric-fraction: ; --tw-ring-inset: ; --tw-ring-offset-width: 0px; --tw-ring-offset-color: #fff; --tw-ring-color: rgba(59,130,246,.5); --tw-ring-offset-shadow: 0 0 #0000; --tw-ring-shadow: 0 0 #0000; --tw-shadow: 0 0 #0000; --tw-shadow-colored: 0 0 #0000; --tw-blur: ; --tw-brightness: ; --tw-contrast: ; --tw-grayscale: ; --tw-hue-rotate: ; --tw-invert: ; --tw-saturate: ; --tw-sepia: ; --tw-drop-shadow: ; --tw-backdrop-blur: ; --tw-backdrop-brightness: ; --tw-backdrop-contrast: ; --tw-backdrop-grayscale: ; --tw-backdrop-hue-rotate: ; --tw-backdrop-invert: ; --tw-backdrop-opacity: ; --tw-backdrop-saturate: ; --tw-backdrop-sepia: ; --tw-contain-size: ; --tw-contain-layout: ; --tw-contain-paint: ; --tw-contain-style: ; box-sizing: border-box; border: 0px solid rgb(229, 231, 235); scrollbar-color: auto; scrollbar-width: auto; color: rgb(17, 24, 39); font-style: normal; font-variant-ligatures: normal; font-variant-caps: normal; letter-spacing: normal; orphans: 2; text-align: left; text-indent: 0px; text-transform: none; widows: 2; word-spacing: 0px; -webkit-text-stroke-width: 0px; white-space: normal; text-decoration-thickness: initial; text-decoration-style: initial; text-decoration-color: initial;&quot;&gt;Unity Catalog&lt;/strong&gt;" style="text;whiteSpace=wrap;html=1;labelBackgroundColor=none;fontSize=12;fontStyle=1;fontFamily=Tahoma;verticalAlign=middle;" parent="1" vertex="1">
          <mxGeometry x="407" y="320" width="124" height="20" as="geometry" />
        </mxCell>
        <mxCell id="baI93Eb9KqTFqQ3-h29e-12" value="" style="rounded=0;whiteSpace=wrap;html=1;textShadow=0;fillColor=light-dark(#e5eaf1, #272727);strokeColor=none;gradientColor=none;gradientDirection=east;fillStyle=solid;" parent="1" vertex="1">
          <mxGeometry x="211.63" y="200.00000000000003" width="435.37" height="80" as="geometry" />
        </mxCell>
        <mxCell id="baI93Eb9KqTFqQ3-h29e-13" value="&lt;strong style=&quot;--tw-border-spacing-x: 0; --tw-border-spacing-y: 0; --tw-translate-x: 0; --tw-translate-y: 0; --tw-rotate: 0; --tw-skew-x: 0; --tw-skew-y: 0; --tw-scale-x: 1; --tw-scale-y: 1; --tw-pan-x: ; --tw-pan-y: ; --tw-pinch-zoom: ; --tw-scroll-snap-strictness: proximity; --tw-gradient-from-position: ; --tw-gradient-via-position: ; --tw-gradient-to-position: ; --tw-ordinal: ; --tw-slashed-zero: ; --tw-numeric-figure: ; --tw-numeric-spacing: ; --tw-numeric-fraction: ; --tw-ring-inset: ; --tw-ring-offset-width: 0px; --tw-ring-offset-color: light-dark(#fff, #000000); --tw-ring-color: light-dark(rgba(59,130,246,.5), #4c89ec); --tw-ring-offset-shadow: 0 0 #0000; --tw-ring-shadow: 0 0 #0000; --tw-shadow: 0 0 #0000; --tw-shadow-colored: 0 0 #0000; --tw-blur: ; --tw-brightness: ; --tw-contrast: ; --tw-grayscale: ; --tw-hue-rotate: ; --tw-invert: ; --tw-saturate: ; --tw-sepia: ; --tw-drop-shadow: ; --tw-backdrop-blur: ; --tw-backdrop-brightness: ; --tw-backdrop-contrast: ; --tw-backdrop-grayscale: ; --tw-backdrop-hue-rotate: ; --tw-backdrop-invert: ; --tw-backdrop-opacity: ; --tw-backdrop-saturate: ; --tw-backdrop-sepia: ; --tw-contain-size: ; --tw-contain-layout: ; --tw-contain-paint: ; --tw-contain-style: ; box-sizing: border-box; border: 0px solid rgb(229, 231, 235); scrollbar-color: auto; scrollbar-width: auto; color: rgb(17, 24, 39); font-style: normal; font-variant-ligatures: normal; font-variant-caps: normal; letter-spacing: normal; orphans: 2; text-align: left; text-indent: 0px; text-transform: none; widows: 2; word-spacing: 0px; -webkit-text-stroke-width: 0px; white-space: normal; text-decoration-thickness: initial; text-decoration-style: initial; text-decoration-color: initial;&quot;&gt;Apps&lt;/strong&gt;" style="text;whiteSpace=wrap;html=1;labelBackgroundColor=none;fontSize=12;fontStyle=1;fontFamily=Tahoma;verticalAlign=middle;" parent="1" vertex="1">
          <mxGeometry x="457" y="230.00000000000003" width="140" height="20" as="geometry" />
        </mxCell>
        <mxCell id="baI93Eb9KqTFqQ3-h29e-15" value="" style="shape=image;verticalLabelPosition=bottom;labelBackgroundColor=none;verticalAlign=top;aspect=fixed;imageAspect=0;editableCssRules=.*;image=data:image/svg+xml,PHN2ZyB4bWxucz0iaHR0cDovL3d3dy53My5vcmcvMjAwMC9zdmciIHZpZXdCb3g9IjEuMTU0OTk5OTcxMzg5NzcwNSAwLjUgMTUuNjkwMDAxNDg3NzMxOTM0IDE3IiBoZWlnaHQ9IjE3IiB3aWR0aD0iMTUuNjkwMDAxNDg3NzMxOTM0IiBpZD0iYjFlNzE0NzktMjEzOC00NGUwLWFkZjAtMDJmZTlmZWQ1YzFlIj48cGF0aCBmaWxsPSIjZmYzNjIxIiBkPSJNMS4xNTUsNC45M3YuNTEyTDksOS44NjhsNy4wMDYtMy45NTcsMCwxLjZMOSwxMS40OTEsMS41NSw3LjI1OGwtLjM5NS4yMlYxMC41NEw5LDE0Ljk1NWw3LjAwNi0zLjk0MiwwLDEuNTg2TDksMTYuNTgxLDEuNTUsMTIuMzQ3bC0uMzk1LjIydi41MTlMOSwxNy41bDcuODQ1LTQuNDE0VjEwLjAyMWwtLjQtLjIxOEw5LDE0LjAzNiwxLjk5MiwxMC4wNTRWOC40NzZMOSwxMi40MTQsMTYuODQ1LDhWNC45NzhsLS40LS4yMTlMOSw4Ljk5MywyLjM1Miw1LjIxNSw5LDEuNDZsNS40NzYsMy4wOTQuNDc5LS4yNjlWMy44NjNMOSwuNVoiLz48L3N2Zz4=;" parent="1" vertex="1">
          <mxGeometry x="354.315" y="398.75" width="40" height="42.5" as="geometry" />
        </mxCell>
        <mxCell id="baI93Eb9KqTFqQ3-h29e-16" value="" style="shape=image;verticalLabelPosition=bottom;labelBackgroundColor=default;verticalAlign=top;aspect=fixed;imageAspect=0;editableCssRules=.*;image=data:image/svg+xml,PHN2ZyB4bWxucz0iaHR0cDovL3d3dy53My5vcmcvMjAwMC9zdmciIGZpbGw9Im5vbmUiIHZpZXdCb3g9IjguMzIyNzY1MDA5NDYwNDQ5IDEwLjg1MjYzNTA0MjcyNDYwOSA1NC4zNjY5OTkzNTQyNDgwNDQgNDkuNDcxNTI5Njg4NzIwNyIgaGVpZ2h0PSI0OS40NzE1Mjk2ODg3MjA3IiB3aWR0aD0iNTQuMzY2OTk5MzU0MjQ4MDQ0Ij4mI3hhOzxwYXRoIHN0cm9rZS1saW5lY2FwPSJzcXVhcmUiIHN0cm9rZS1taXRlcmxpbWl0PSIzIiBzdHJva2Utd2lkdGg9IjEuNDAwMTMiIHN0cm9rZT0iI0ZGNUY0NiIgZD0iTTE5LjA5NDUgNTkuNjIzOUMyNC42NTc3IDU5LjYyMzkgMjkuMTY2MSA1NS4xMTU1IDI5LjE2NjEgNDkuNTUyM1YxMS41NTI3SDYxLjk4OTdWNDkuNTUyM0M2MS45ODk3IDU1LjExNTUgNTcuNDgxNSA1OS42MjM5IDUxLjkxODMgNTkuNjIzOSIvPiYjeGE7PHBhdGggc3Ryb2tlLWxpbmVjYXA9InNxdWFyZSIgc3Ryb2tlLW1pdGVybGltaXQ9IjMiIHN0cm9rZS13aWR0aD0iMS40MDAxMyIgc3Ryb2tlPSIjRkY1RjQ2IiBkPSJNNTEuOTE4NCA1OS42MjRIMjkuODE5NiIvPiYjeGE7PHBhdGggc3Ryb2tlLWxpbmVjYXA9InNxdWFyZSIgc3Ryb2tlLW1pdGVybGltaXQ9IjMiIHN0cm9rZS13aWR0aD0iMS40MDAxMyIgc3Ryb2tlPSIjRkY1RjQ2IiBkPSJNMTkuMDk0NSA1OS42MjQxQzEzLjUzMTMgNTkuNjI0MSA5LjAyMjgzIDU1LjExNTcgOS4wMjI4MyA0OS41NTI1VjE4LjkzMTYiLz4mI3hhOzxwYXRoIHN0cm9rZS1saW5lY2FwPSJzcXVhcmUiIHN0cm9rZS1taXRlcmxpbWl0PSIzIiBzdHJva2Utd2lkdGg9IjEuNDAwMTMiIHN0cm9rZT0iI0ZGNUY0NiIgZD0iTTkuMDI3NDcgMTguOTMxNkgyNC40MjQ0Ii8+JiN4YTs8cGF0aCBzdHJva2UtbGluZWNhcD0ic3F1YXJlIiBzdHJva2UtbWl0ZXJsaW1pdD0iMyIgc3Ryb2tlLXdpZHRoPSIxLjQwMDEzIiBzdHJva2U9IiNGRjVGNDYiIGQ9Ik0zNS4wNzQ2IDI0Ljg0NDdINTYuMjY4Ii8+JiN4YTs8cGF0aCBzdHJva2UtbGluZWNhcD0ic3F1YXJlIiBzdHJva2UtbWl0ZXJsaW1pdD0iMyIgc3Ryb2tlLXdpZHRoPSIxLjQwMDEzIiBzdHJva2U9IiNGRjVGNDYiIGQ9Ik0zNS4wNzQ2IDM1Ljk0MjRINTYuMjY4Ii8+JiN4YTs8cGF0aCBzdHJva2UtbGluZWNhcD0ic3F1YXJlIiBzdHJva2UtbWl0ZXJsaW1pdD0iMyIgc3Ryb2tlLXdpZHRoPSIxLjQwMDEzIiBzdHJva2U9IiNGRjVGNDYiIGQ9Ik0zNS4wNzQ2IDQ3LjA0NTlINTYuMjY4Ii8+JiN4YTs8L3N2Zz4=;" parent="1" vertex="1">
          <mxGeometry x="354.315" y="311.85" width="40" height="36.3" as="geometry" />
        </mxCell>
        <mxCell id="baI93Eb9KqTFqQ3-h29e-17" value="&lt;span style=&quot;--tw-border-spacing-x: 0; --tw-border-spacing-y: 0; --tw-translate-x: 0; --tw-translate-y: 0; --tw-rotate: 0; --tw-skew-x: 0; --tw-skew-y: 0; --tw-scale-x: 1; --tw-scale-y: 1; --tw-pan-x: ; --tw-pan-y: ; --tw-pinch-zoom: ; --tw-scroll-snap-strictness: proximity; --tw-gradient-from-position: ; --tw-gradient-via-position: ; --tw-gradient-to-position: ; --tw-ordinal: ; --tw-slashed-zero: ; --tw-numeric-figure: ; --tw-numeric-spacing: ; --tw-numeric-fraction: ; --tw-ring-inset: ; --tw-ring-offset-width: 0px; --tw-ring-offset-color: light-dark(#fff, #000000); --tw-ring-color: light-dark(rgba(59,130,246,.5), #4c89ec); --tw-ring-offset-shadow: 0 0 #0000; --tw-ring-shadow: 0 0 #0000; --tw-shadow: 0 0 #0000; --tw-shadow-colored: 0 0 #0000; --tw-blur: ; --tw-brightness: ; --tw-contrast: ; --tw-grayscale: ; --tw-hue-rotate: ; --tw-invert: ; --tw-saturate: ; --tw-sepia: ; --tw-drop-shadow: ; --tw-backdrop-blur: ; --tw-backdrop-brightness: ; --tw-backdrop-contrast: ; --tw-backdrop-grayscale: ; --tw-backdrop-hue-rotate: ; --tw-backdrop-invert: ; --tw-backdrop-opacity: ; --tw-backdrop-saturate: ; --tw-backdrop-sepia: ; --tw-contain-size: ; --tw-contain-layout: ; --tw-contain-paint: ; --tw-contain-style: ; box-sizing: border-box; border: 0px solid rgb(229, 231, 235); scrollbar-color: auto; scrollbar-width: auto; font-style: normal; font-variant-ligatures: normal; font-variant-caps: normal; letter-spacing: normal; orphans: 2; text-indent: 0px; text-transform: none; widows: 2; word-spacing: 0px; -webkit-text-stroke-width: 0px; white-space: normal; text-decoration-thickness: initial; text-decoration-style: initial; text-decoration-color: initial;&quot;&gt;Data Governance and Security&lt;/span&gt;" style="text;whiteSpace=wrap;html=1;labelBackgroundColor=none;fontSize=12;align=right;verticalAlign=middle;fontColor=#666666;fontFamily=Tahoma;fontStyle=0" parent="1" vertex="1">
          <mxGeometry x="221.63" y="315" width="124" height="30" as="geometry" />
        </mxCell>
        <mxCell id="baI93Eb9KqTFqQ3-h29e-18" value="&lt;span style=&quot;--tw-border-spacing-x: 0; --tw-border-spacing-y: 0; --tw-translate-x: 0; --tw-translate-y: 0; --tw-rotate: 0; --tw-skew-x: 0; --tw-skew-y: 0; --tw-scale-x: 1; --tw-scale-y: 1; --tw-pan-x: ; --tw-pan-y: ; --tw-pinch-zoom: ; --tw-scroll-snap-strictness: proximity; --tw-gradient-from-position: ; --tw-gradient-via-position: ; --tw-gradient-to-position: ; --tw-ordinal: ; --tw-slashed-zero: ; --tw-numeric-figure: ; --tw-numeric-spacing: ; --tw-numeric-fraction: ; --tw-ring-inset: ; --tw-ring-offset-width: 0px; --tw-ring-offset-color: light-dark(#fff, #000000); --tw-ring-color: light-dark(rgba(59,130,246,.5), #4c89ec); --tw-ring-offset-shadow: 0 0 #0000; --tw-ring-shadow: 0 0 #0000; --tw-shadow: 0 0 #0000; --tw-shadow-colored: 0 0 #0000; --tw-blur: ; --tw-brightness: ; --tw-contrast: ; --tw-grayscale: ; --tw-hue-rotate: ; --tw-invert: ; --tw-saturate: ; --tw-sepia: ; --tw-drop-shadow: ; --tw-backdrop-blur: ; --tw-backdrop-brightness: ; --tw-backdrop-contrast: ; --tw-backdrop-grayscale: ; --tw-backdrop-hue-rotate: ; --tw-backdrop-invert: ; --tw-backdrop-opacity: ; --tw-backdrop-saturate: ; --tw-backdrop-sepia: ; --tw-contain-size: ; --tw-contain-layout: ; --tw-contain-paint: ; --tw-contain-style: ; box-sizing: border-box; border: 0px solid rgb(229, 231, 235); scrollbar-color: auto; scrollbar-width: auto; font-style: normal; font-variant-ligatures: normal; font-variant-caps: normal; letter-spacing: normal; orphans: 2; text-indent: 0px; text-transform: none; widows: 2; word-spacing: 0px; -webkit-text-stroke-width: 0px; white-space: normal; text-decoration-thickness: initial; text-decoration-style: initial; text-decoration-color: initial;&quot;&gt;Data Ingestion and Transformation&lt;/span&gt;" style="text;whiteSpace=wrap;html=1;labelBackgroundColor=none;fontSize=12;align=right;verticalAlign=middle;fontColor=#666666;fontFamily=Tahoma;fontStyle=0" parent="1" vertex="1">
          <mxGeometry x="221.63" y="405" width="124" height="30" as="geometry" />
        </mxCell>
        <mxCell id="baI93Eb9KqTFqQ3-h29e-19" value="&lt;span style=&quot;--tw-border-spacing-x: 0; --tw-border-spacing-y: 0; --tw-translate-x: 0; --tw-translate-y: 0; --tw-rotate: 0; --tw-skew-x: 0; --tw-skew-y: 0; --tw-scale-x: 1; --tw-scale-y: 1; --tw-pan-x: ; --tw-pan-y: ; --tw-pinch-zoom: ; --tw-scroll-snap-strictness: proximity; --tw-gradient-from-position: ; --tw-gradient-via-position: ; --tw-gradient-to-position: ; --tw-ordinal: ; --tw-slashed-zero: ; --tw-numeric-figure: ; --tw-numeric-spacing: ; --tw-numeric-fraction: ; --tw-ring-inset: ; --tw-ring-offset-width: 0px; --tw-ring-offset-color: light-dark(#fff, #000000); --tw-ring-color: light-dark(rgba(59,130,246,.5), #4c89ec); --tw-ring-offset-shadow: 0 0 #0000; --tw-ring-shadow: 0 0 #0000; --tw-shadow: 0 0 #0000; --tw-shadow-colored: 0 0 #0000; --tw-blur: ; --tw-brightness: ; --tw-contrast: ; --tw-grayscale: ; --tw-hue-rotate: ; --tw-invert: ; --tw-saturate: ; --tw-sepia: ; --tw-drop-shadow: ; --tw-backdrop-blur: ; --tw-backdrop-brightness: ; --tw-backdrop-contrast: ; --tw-backdrop-grayscale: ; --tw-backdrop-hue-rotate: ; --tw-backdrop-invert: ; --tw-backdrop-opacity: ; --tw-backdrop-saturate: ; --tw-backdrop-sepia: ; --tw-contain-size: ; --tw-contain-layout: ; --tw-contain-paint: ; --tw-contain-style: ; box-sizing: border-box; border: 0px solid rgb(229, 231, 235); scrollbar-color: auto; scrollbar-width: auto; font-style: normal; font-variant-ligatures: normal; font-variant-caps: normal; letter-spacing: normal; orphans: 2; text-indent: 0px; text-transform: none; widows: 2; word-spacing: 0px; -webkit-text-stroke-width: 0px; white-space: normal; text-decoration-thickness: initial; text-decoration-style: initial; text-decoration-color: initial;&quot;&gt;Databases, Flat Files, APIs etc&lt;/span&gt;" style="text;whiteSpace=wrap;html=1;labelBackgroundColor=none;fontSize=12;align=right;verticalAlign=middle;fontColor=#666666;fontFamily=Tahoma;fontStyle=0" parent="1" vertex="1">
          <mxGeometry x="297" y="495" width="103" height="30" as="geometry" />
        </mxCell>
        <mxCell id="baI93Eb9KqTFqQ3-h29e-20" value="&lt;span style=&quot;--tw-border-spacing-x: 0; --tw-border-spacing-y: 0; --tw-translate-x: 0; --tw-translate-y: 0; --tw-rotate: 0; --tw-skew-x: 0; --tw-skew-y: 0; --tw-scale-x: 1; --tw-scale-y: 1; --tw-pan-x: ; --tw-pan-y: ; --tw-pinch-zoom: ; --tw-scroll-snap-strictness: proximity; --tw-gradient-from-position: ; --tw-gradient-via-position: ; --tw-gradient-to-position: ; --tw-ordinal: ; --tw-slashed-zero: ; --tw-numeric-figure: ; --tw-numeric-spacing: ; --tw-numeric-fraction: ; --tw-ring-inset: ; --tw-ring-offset-width: 0px; --tw-ring-offset-color: light-dark(#fff, #000000); --tw-ring-color: light-dark(rgba(59,130,246,.5), #4c89ec); --tw-ring-offset-shadow: 0 0 #0000; --tw-ring-shadow: 0 0 #0000; --tw-shadow: 0 0 #0000; --tw-shadow-colored: 0 0 #0000; --tw-blur: ; --tw-brightness: ; --tw-contrast: ; --tw-grayscale: ; --tw-hue-rotate: ; --tw-invert: ; --tw-saturate: ; --tw-sepia: ; --tw-drop-shadow: ; --tw-backdrop-blur: ; --tw-backdrop-brightness: ; --tw-backdrop-contrast: ; --tw-backdrop-grayscale: ; --tw-backdrop-hue-rotate: ; --tw-backdrop-invert: ; --tw-backdrop-opacity: ; --tw-backdrop-saturate: ; --tw-backdrop-sepia: ; --tw-contain-size: ; --tw-contain-layout: ; --tw-contain-paint: ; --tw-contain-style: ; box-sizing: border-box; border: 0px solid rgb(229, 231, 235); scrollbar-color: auto; scrollbar-width: auto; font-style: normal; font-variant-ligatures: normal; font-variant-caps: normal; letter-spacing: normal; orphans: 2; text-indent: 0px; text-transform: none; widows: 2; word-spacing: 0px; -webkit-text-stroke-width: 0px; white-space: normal; text-decoration-thickness: initial; text-decoration-style: initial; text-decoration-color: initial;&quot;&gt;Data Marketplace&lt;/span&gt;" style="text;whiteSpace=wrap;html=1;labelBackgroundColor=none;fontSize=12;align=right;verticalAlign=middle;fontColor=#666666;fontFamily=Tahoma;fontStyle=0" parent="1" vertex="1">
          <mxGeometry x="267" y="225.00000000000003" width="140" height="30" as="geometry" />
        </mxCell>
        <mxCell id="baI93Eb9KqTFqQ3-h29e-21" value="" style="rounded=0;whiteSpace=wrap;html=1;textShadow=0;fillColor=light-dark(#e5eaf1, #272727);strokeColor=none;gradientColor=none;gradientDirection=east;fillStyle=solid;" parent="1" vertex="1">
          <mxGeometry x="547" y="290" width="100" height="170" as="geometry" />
        </mxCell>
        <mxCell id="baI93Eb9KqTFqQ3-h29e-22" value="&lt;span style=&quot;--tw-border-spacing-x: 0; --tw-border-spacing-y: 0; --tw-translate-x: 0; --tw-translate-y: 0; --tw-rotate: 0; --tw-skew-x: 0; --tw-skew-y: 0; --tw-scale-x: 1; --tw-scale-y: 1; --tw-pan-x: ; --tw-pan-y: ; --tw-pinch-zoom: ; --tw-scroll-snap-strictness: proximity; --tw-gradient-from-position: ; --tw-gradient-via-position: ; --tw-gradient-to-position: ; --tw-ordinal: ; --tw-slashed-zero: ; --tw-numeric-figure: ; --tw-numeric-spacing: ; --tw-numeric-fraction: ; --tw-ring-inset: ; --tw-ring-offset-width: 0px; --tw-ring-offset-color: light-dark(#fff, #000000); --tw-ring-color: light-dark(rgba(59,130,246,.5), #4c89ec); --tw-ring-offset-shadow: 0 0 #0000; --tw-ring-shadow: 0 0 #0000; --tw-shadow: 0 0 #0000; --tw-shadow-colored: 0 0 #0000; --tw-blur: ; --tw-brightness: ; --tw-contrast: ; --tw-grayscale: ; --tw-hue-rotate: ; --tw-invert: ; --tw-saturate: ; --tw-sepia: ; --tw-drop-shadow: ; --tw-backdrop-blur: ; --tw-backdrop-brightness: ; --tw-backdrop-contrast: ; --tw-backdrop-grayscale: ; --tw-backdrop-hue-rotate: ; --tw-backdrop-invert: ; --tw-backdrop-opacity: ; --tw-backdrop-saturate: ; --tw-backdrop-sepia: ; --tw-contain-size: ; --tw-contain-layout: ; --tw-contain-paint: ; --tw-contain-style: ; box-sizing: border-box; border: 0px solid rgb(229, 231, 235); scrollbar-color: auto; scrollbar-width: auto; font-style: normal; font-variant-ligatures: normal; font-variant-caps: normal; letter-spacing: normal; orphans: 2; text-indent: 0px; text-transform: none; widows: 2; word-spacing: 0px; -webkit-text-stroke-width: 0px; white-space: normal; text-decoration-thickness: initial; text-decoration-style: initial; text-decoration-color: initial;&quot;&gt;Data Visualization &amp;amp; Reporting&lt;/span&gt;" style="text;whiteSpace=wrap;html=1;labelBackgroundColor=none;fontSize=12;align=center;verticalAlign=middle;fontColor=#666666;fontFamily=Tahoma;fontStyle=0" parent="1" vertex="1">
          <mxGeometry x="567" y="305" width="60" height="40" as="geometry" />
        </mxCell>
        <mxCell id="baI93Eb9KqTFqQ3-h29e-23" value="&lt;strong style=&quot;--tw-border-spacing-x: 0; --tw-border-spacing-y: 0; --tw-translate-x: 0; --tw-translate-y: 0; --tw-rotate: 0; --tw-skew-x: 0; --tw-skew-y: 0; --tw-scale-x: 1; --tw-scale-y: 1; --tw-pan-x: ; --tw-pan-y: ; --tw-pinch-zoom: ; --tw-scroll-snap-strictness: proximity; --tw-gradient-from-position: ; --tw-gradient-via-position: ; --tw-gradient-to-position: ; --tw-ordinal: ; --tw-slashed-zero: ; --tw-numeric-figure: ; --tw-numeric-spacing: ; --tw-numeric-fraction: ; --tw-ring-inset: ; --tw-ring-offset-width: 0px; --tw-ring-offset-color: light-dark(#fff, #000000); --tw-ring-color: light-dark(rgba(59,130,246,.5), #4c89ec); --tw-ring-offset-shadow: 0 0 #0000; --tw-ring-shadow: 0 0 #0000; --tw-shadow: 0 0 #0000; --tw-shadow-colored: 0 0 #0000; --tw-blur: ; --tw-brightness: ; --tw-contrast: ; --tw-grayscale: ; --tw-hue-rotate: ; --tw-invert: ; --tw-saturate: ; --tw-sepia: ; --tw-drop-shadow: ; --tw-backdrop-blur: ; --tw-backdrop-brightness: ; --tw-backdrop-contrast: ; --tw-backdrop-grayscale: ; --tw-backdrop-hue-rotate: ; --tw-backdrop-invert: ; --tw-backdrop-opacity: ; --tw-backdrop-saturate: ; --tw-backdrop-sepia: ; --tw-contain-size: ; --tw-contain-layout: ; --tw-contain-paint: ; --tw-contain-style: ; box-sizing: border-box; border: 0px solid rgb(229, 231, 235); scrollbar-color: auto; scrollbar-width: auto; color: rgb(17, 24, 39); font-style: normal; font-variant-ligatures: normal; font-variant-caps: normal; letter-spacing: normal; orphans: 2; text-indent: 0px; text-transform: none; widows: 2; word-spacing: 0px; -webkit-text-stroke-width: 0px; white-space: normal; text-decoration-thickness: initial; text-decoration-style: initial; text-decoration-color: initial;&quot;&gt;Power BI&lt;/strong&gt;" style="text;whiteSpace=wrap;html=1;labelBackgroundColor=none;fontSize=12;fontStyle=1;fontFamily=Tahoma;align=center;verticalAlign=middle;" parent="1" vertex="1">
          <mxGeometry x="547" y="420" width="100" height="20" as="geometry" />
        </mxCell>
        <mxCell id="baI93Eb9KqTFqQ3-h29e-24" value="" style="shape=image;verticalLabelPosition=bottom;labelBackgroundColor=none;verticalAlign=top;aspect=fixed;imageAspect=0;editableCssRules=.*;image=data:image/svg+xml,PHN2ZyB4bWxucz0iaHR0cDovL3d3dy53My5vcmcvMjAwMC9zdmciIHZpZXdCb3g9IjIuNjA1OTk5OTQ2NTk0MjM4MyAwLjQ3NDAwMDAzNjcxNjQ2MTIgMTIuNzg4MDAwMTA2ODExNTIzIDE3LjA1MjAwMDA0NTc3NjM2NyIgaGVpZ2h0PSIxNy4wNTIwMDAwNDU3NzYzNjciIHdpZHRoPSIxMi43ODgwMDAxMDY4MTE1MjMiIGlkPSJlMDUxYWFmMC1jMTFjLTRjOWItYjEyMi0wZTM0NWE5NDhmYWEiPjxkZWZzPjxjbGlwUGF0aCBpZD0iYTcwNGNlNDUtNWNhMC00MTBjLTk4MzUtM2Y3ZGQxNjZkZmI2Ij48cGF0aCBmaWxsPSJub25lIiBkPSJNOS43MSwxLjE4NWEuNzExLjcxMSwwLDAsMSwuNzExLS43MTFoNC4yNjNhLjcxLjcxLDAsMCwxLC43MS43MTF2MTUuNjNhLjcxLjcxLDAsMCwxLS43MS43MTFIMy4zMTZhLjcxLjcxLDAsMCwxLS43MS0uNzExVjkuNzFBLjcxLjcxLDAsMCwxLDMuMzE2LDlINi4xNThWNS40NDhhLjcxMS43MTEsMCwwLDEsLjcxMS0uNzExSDkuNzFaIi8+PC9jbGlwUGF0aD48bGluZWFyR3JhZGllbnQgZ3JhZGllbnRVbml0cz0idXNlclNwYWNlT25Vc2UiIGdyYWRpZW50VHJhbnNmb3JtPSJ0cmFuc2xhdGUoLTIwNiAtNDkwLjY5OSkiIHkyPSI1MDcuMTUxIiB4Mj0iMjIyLjA2OCIgeTE9IjQ5MS4yNjMiIHgxPSIyMTQuNTczIiBpZD0iYTdkMGVhMzQtNDMwYy00ODE5LWI5YjEtMGE4YTJkZmRkNTJiIj48c3RvcCBzdG9wLWNvbG9yPSIjZTZhZDEwIiBvZmZzZXQ9IjAiLz48c3RvcCBzdG9wLWNvbG9yPSIjYzg3ZTBlIiBvZmZzZXQ9IjEiLz48L2xpbmVhckdyYWRpZW50PjxsaW5lYXJHcmFkaWVudCBncmFkaWVudFVuaXRzPSJ1c2VyU3BhY2VPblVzZSIgZ3JhZGllbnRUcmFuc2Zvcm09InRyYW5zbGF0ZSgtMjA2IC00OTAuNjk5KSIgeTI9IjUwNy45MDMiIHgyPSIyMTcuOTkzIiB5MT0iNDk1LjY3OCIgeDE9IjIxMS42ODkiIGlkPSJmYTQxZDNiMC0wNjExLTRkMTYtYjEwMy1iNzFlYzg3MGE5Y2IiPjxzdG9wIHN0b3AtY29sb3I9IiNmNmQ3NTEiIG9mZnNldD0iMCIvPjxzdG9wIHN0b3AtY29sb3I9IiNlNmFkMTAiIG9mZnNldD0iMSIvPjwvbGluZWFyR3JhZGllbnQ+PGxpbmVhckdyYWRpZW50IGdyYWRpZW50VW5pdHM9InVzZXJTcGFjZU9uVXNlIiBncmFkaWVudFRyYW5zZm9ybT0idHJhbnNsYXRlKC0yMDYgLTQ5MC42OTkpIiB5Mj0iNTA3LjYyNCIgeDI9IjIxMi44NzMiIHkxPSI0OTkuMzY4IiB4MT0iMjA5LjM5IiBpZD0iZWEwOGQyM2EtNjdjOC00MDlmLTkwZTMtNjdlMGNlODkxMDkxIj48c3RvcCBzdG9wLWNvbG9yPSIjZjllNTg5IiBvZmZzZXQ9IjAiLz48c3RvcCBzdG9wLWNvbG9yPSIjZjZkNzUxIiBvZmZzZXQ9IjEiLz48L2xpbmVhckdyYWRpZW50PjwvZGVmcz48ZyBjbGlwLXBhdGg9InVybCgjYTcwNGNlNDUtNWNhMC00MTBjLTk4MzUtM2Y3ZGQxNjZkZmI2KSI+PGc+PHBhdGggZmlsbD0idXJsKCNhN2QwZWEzNC00MzBjLTQ4MTktYjliMS0wYThhMmRmZGQ1MmIpIiBkPSJNMTUuMzk0LjQ3NFYxNy41MjZIOS43MVYuNDc0WiIvPjxwYXRoIGZpbGw9InVybCgjZmE0MWQzYjAtMDYxMS00ZDE2LWIxMDMtYjcxZWM4NzBhOWNiKSIgZD0iTTExLjg0Miw1LjQ0OFYxNy41MjZINi4xNThWNC43MzdoNC45NzNBLjcxMS43MTEsMCwwLDEsMTEuODQyLDUuNDQ4WiIvPjxwYXRoIGZpbGw9InVybCgjZWEwOGQyM2EtNjdjOC00MDlmLTkwZTMtNjdlMGNlODkxMDkxKSIgZD0iTTIuNjA2LDl2OC41MjZIOC4yOVY5LjcxQS43MTEuNzExLDAsMCwwLDcuNTc5LDlaIi8+PC9nPjwvZz48L3N2Zz4=;" parent="1" vertex="1">
          <mxGeometry x="577" y="353.845" width="40" height="52.31" as="geometry" />
        </mxCell>
        <mxCell id="baI93Eb9KqTFqQ3-h29e-25" value="&lt;span style=&quot;text-wrap-mode: nowrap; background-color: transparent;&quot;&gt;Data Marketplace&lt;/span&gt;" style="text;whiteSpace=wrap;html=1;fillColor=none;labelBackgroundColor=none;fontColor=#FFFFFF;fontStyle=0;fontFamily=Tahoma;fontSize=20;align=center;verticalAlign=middle;" parent="1" vertex="1">
          <mxGeometry x="305" y="140.00000000000003" width="272" height="30" as="geometry" />
        </mxCell>
        <mxCell id="baI93Eb9KqTFqQ3-h29e-26" value="" style="group" parent="1" vertex="1" connectable="0">
          <mxGeometry x="409.315" y="490" width="40" height="40" as="geometry" />
        </mxCell>
        <mxCell id="baI93Eb9KqTFqQ3-h29e-27" value="" style="shape=image;imageAspect=0;aspect=fixed;verticalLabelPosition=bottom;verticalAlign=top;image=https://www.svgrepo.com/show/391606/file-csv.svg;" parent="baI93Eb9KqTFqQ3-h29e-26" vertex="1">
          <mxGeometry width="20" height="20" as="geometry" />
        </mxCell>
        <mxCell id="baI93Eb9KqTFqQ3-h29e-28" value="" style="shape=image;verticalLabelPosition=bottom;labelBackgroundColor=default;verticalAlign=top;aspect=fixed;imageAspect=0;image=https://www.svgrepo.com/show/468484/database-2.svg;" parent="baI93Eb9KqTFqQ3-h29e-26" vertex="1">
          <mxGeometry x="20" y="20" width="20" height="20" as="geometry" />
        </mxCell>
        <mxCell id="baI93Eb9KqTFqQ3-h29e-29" value="" style="shape=image;verticalLabelPosition=bottom;labelBackgroundColor=default;verticalAlign=top;aspect=fixed;imageAspect=0;editableCssRules=.*;image=data:image/svg+xml,PHN2ZyB4bWxucz0iaHR0cDovL3d3dy53My5vcmcvMjAwMC9zdmciIHZpZXdCb3g9IjMuMTE1MjEwNTMzMTQyMDkgNSAyNS44NTM1NTM3NzE5NzI2NTYgMjMiIGZpbGw9IiNmZmYiIHdpZHRoPSIyNS44NTM1NTM3NzE5NzI2NTYiIGhlaWdodD0iMjMiPjx0aXRsZS8+PHBhdGggZD0iTTI4LjkwOCwxMi41NzFhLjk1Mi45NTIsMCwwLDAtLjEtLjE2NiwzLjE0NiwzLjE0NiwwLDAsMC0uMTE4LS40MjNjLS4wMDYtLjAxNi0uMDEyLS4wMzItLjAyLS4wNDhMMjUuOTE3LDUuNkExLDEsMCwwLDAsMjUsNUg3YTEsMSwwLDAsMC0uOTE3LjZsLTIuNzcsNi4zODFhMi44NDEsMi44NDEsMCwwLDAsMCwyLjA4M0E0Ljc1LDQuNzUsMCwwLDAsNiwxNi42MDlWMjdhMSwxLDAsMCwwLDEsMUgyNWExLDEsMCwwLDAsMS0xVjE2LjYwOWE0Ljc0OSw0Ljc0OSwwLDAsMCwyLjY4Ny0yLjU0MywyLjYxNCwyLjYxNCwwLDAsMCwuMTYzLS42NTVBMS4wNTcsMS4wNTcsMCwwLDAsMjguOTA4LDEyLjU3MVpNMTMsMjZWMjBoMnY2Wm00LDBWMjBoMnY2Wm03LDBIMjFWMTlhMSwxLDAsMCwwLTEtMUgxMmExLDEsMCwwLDAtMSwxdjdIOFYxN2E1LjIsNS4yLDAsMCwwLDQtMS44LDUuMzM5LDUuMzM5LDAsMCwwLDgsMEE1LjIsNS4yLDAsMCwwLDI0LDE3Wm0yLjgzNy0xMi43QTMuMDE1LDMuMDE1LDAsMCwxLDI0LDE1YTIuNzg4LDIuNzg4LDAsMCwxLTMtMi41LDEsMSwwLDAsMC0yLDBBMi43ODgsMi43ODgsMCwwLDEsMTYsMTVhMi43ODgsMi43ODgsMCwwLDEtMy0yLjUsMSwxLDAsMCwwLTIsMEEyLjc4OCwyLjc4OCwwLDAsMSw4LDE1YTMuMDE2LDMuMDE2LDAsMCwxLTIuODM4LTEuNy44MzYuODM2LDAsMCwxLDAtLjU3MUw3LjY1Niw3SDI0LjM0NGwyLjQ3Nyw1LjdBLjg1OC44NTgsMCwwLDEsMjYuODM3LDEzLjNaIi8+PC9zdmc+;" parent="1" vertex="1">
          <mxGeometry x="406.34" y="90.00000000000003" width="45.22" height="40" as="geometry" />
        </mxCell>
        <mxCell id="baI93Eb9KqTFqQ3-h29e-30" value="" style="group" parent="1" vertex="1" connectable="0">
          <mxGeometry x="767" y="200.00000000000003" width="100" height="100" as="geometry" />
        </mxCell>
        <mxCell id="baI93Eb9KqTFqQ3-h29e-31" value="" style="ellipse;whiteSpace=wrap;html=1;rounded=0;shadow=0;comic=0;strokeWidth=1;fontFamily=Verdana;fontSize=14;strokeColor=none;fillColor=light-dark(#90a5b1, #52acff);" parent="baI93Eb9KqTFqQ3-h29e-30" vertex="1">
          <mxGeometry width="100" height="100" as="geometry" />
        </mxCell>
        <mxCell id="baI93Eb9KqTFqQ3-h29e-32" value="Data Product&#xa;Owner" style="shape=image;verticalLabelPosition=bottom;labelBackgroundColor=none;verticalAlign=top;aspect=fixed;imageAspect=0;editableCssRules=.*;image=data:image/svg+xml,PHN2ZyB4bWxuczp4bGluaz0iaHR0cDovL3d3dy53My5vcmcvMTk5OS94bGluayIgeG1sbnM9Imh0dHA6Ly93d3cudzMub3JnLzIwMDAvc3ZnIiB4bWw6c3BhY2U9InByZXNlcnZlIiB2aWV3Qm94PSI4Ni4zODEwMTk1OTIyODUxNiAwIDMzOS4yMzcwMzAwMjkyOTY5IDUxMi4wMDAwNjEwMzUxNTYyIiBpZD0iX3gzMl8iIHZlcnNpb249IjEuMSIgd2lkdGg9IjUzMC4wNTc4NTk0MjA3NzY0IiBoZWlnaHQ9IjgwMC4wMDAwOTUzNjc0MzE2Ij4mI3hhOzxzdHlsZSB0eXBlPSJ0ZXh0L2NzcyI+JiN4YTsJLnN0MHtmaWxsOiNmZmY7fSYjeGE7PC9zdHlsZT4mI3hhOzxnPiYjeGE7CTxwYXRoIGQ9Ik0zMzIuOTMzLDIxMy40NTFjLTIwLjcxMywxNy43ODQtNDcuNTU5LDI4LjYyNC03Ni45MzgsMjguNjI0Yy0yOS4zNywwLTU2LjIyNC0xMC44NC03Ni45MjgtMjguNjI0JiMxMDsmIzk7JiM5O2MtNTQuOTkxLDIwLjk1Mi05Mi42ODYsNjYuMTI2LTkyLjY4NiwxMzIuMDk0djk4LjA4MmMwLDAsMTQuNTA1LDE5LjMzMSw0NS44NjQsMzcuNDM3di02OS4zMzloMjguOTkydjgzLjIyOCYjMTA7JiM5OyYjOTtjMjQuODQ4LDkuNzgsNTYuMjQzLDE3LjA0Nyw5NC43NTgsMTcuMDQ3YzM4LjUyNCwwLDY5LjkwMS03LjI2Niw5NC43NjctMTcuMDQ3di04My4yMjhoMjguOTkydjY5LjMzOSYjMTA7JiM5OyYjOTtjMzEuMzU5LTE4LjEwNiw0NS44NjQtMzcuNDM3LDQ1Ljg2NC0zNy40Mzd2LTk4LjA4MkM0MjUuNjE4LDI3OS41NzcsMzg3LjkyMywyMzQuNDAzLDMzMi45MzMsMjEzLjQ1MXoiIGNsYXNzPSJzdDAiLz4mI3hhOwk8cGF0aCBkPSJNMjU1Ljk5NiwyMTMuOTAyYzQ5LjI5OSwwLDg5LjI2LTM5Ljk2LDg5LjI2LTg5LjI1OVY4OS4yNjlDMzQ1LjI1NSwzOS45NiwzMDUuMjk0LDAsMjU1Ljk5NiwwJiMxMDsmIzk7JiM5O2MtNDkuMywwLTg5LjI2OCwzOS45Ni04OS4yNjgsODkuMjY5djM1LjM3NEMxNjYuNzI3LDE3My45NDIsMjA2LjY5NiwyMTMuOTAyLDI1NS45OTYsMjEzLjkwMnoiIGNsYXNzPSJzdDAiLz4mI3hhOzwvZz4mI3hhOzwvc3ZnPg==;fontColor=#FFFFFF;fontStyle=1;fontFamily=Tahoma;" parent="baI93Eb9KqTFqQ3-h29e-30" vertex="1">
          <mxGeometry x="36.75" y="10" width="26.5" height="40" as="geometry" />
        </mxCell>
        <mxCell id="baI93Eb9KqTFqQ3-h29e-33" value="" style="shape=step;perimeter=stepPerimeter;whiteSpace=wrap;html=1;fixedSize=1;rounded=0;shadow=0;comic=0;strokeWidth=1;align=center;verticalAlign=middle;fontFamily=Verdana;fontSize=22;fontColor=#0069D1;fontStyle=1;fillColor=light-dark(#c4ccd6, #121212);strokeColor=none;size=10;" parent="1" vertex="1">
          <mxGeometry x="877" y="236.66000000000003" width="30" height="26.67" as="geometry" />
        </mxCell>
        <mxCell id="baI93Eb9KqTFqQ3-h29e-34" value="" style="shape=step;perimeter=stepPerimeter;whiteSpace=wrap;html=1;fixedSize=1;rounded=0;shadow=0;comic=0;strokeWidth=1;align=center;verticalAlign=middle;fontFamily=Verdana;fontSize=22;fontColor=#0069D1;fontStyle=1;fillColor=light-dark(#c4ccd6, #121212);strokeColor=none;size=10;" parent="1" vertex="1">
          <mxGeometry x="877" y="116.58000000000004" width="30" height="26.67" as="geometry" />
        </mxCell>
        <mxCell id="baI93Eb9KqTFqQ3-h29e-35" value="" style="shape=step;perimeter=stepPerimeter;whiteSpace=wrap;html=1;fixedSize=1;rounded=0;shadow=0;comic=0;strokeWidth=1;align=center;verticalAlign=middle;fontFamily=Verdana;fontSize=22;fontColor=#0069D1;fontStyle=1;fillColor=light-dark(#c4ccd6, #121212);strokeColor=none;size=10;" parent="1" vertex="1">
          <mxGeometry x="877" y="361.65999999999997" width="30" height="26.67" as="geometry" />
        </mxCell>
        <mxCell id="baI93Eb9KqTFqQ3-h29e-36" value="" style="group" parent="1" vertex="1" connectable="0">
          <mxGeometry x="1307" y="325" width="100" height="100" as="geometry" />
        </mxCell>
        <mxCell id="baI93Eb9KqTFqQ3-h29e-37" value="" style="ellipse;whiteSpace=wrap;html=1;rounded=0;shadow=0;comic=0;strokeWidth=1;fontFamily=Verdana;fontSize=14;strokeColor=none;fillColor=light-dark(#90a5b1, #52acff);" parent="baI93Eb9KqTFqQ3-h29e-36" vertex="1">
          <mxGeometry width="100" height="100" as="geometry" />
        </mxCell>
        <mxCell id="baI93Eb9KqTFqQ3-h29e-38" value="Data&#xa;Consumer" style="shape=image;verticalLabelPosition=bottom;labelBackgroundColor=none;verticalAlign=top;aspect=fixed;imageAspect=0;editableCssRules=.*;image=data:image/svg+xml,PHN2ZyB4bWxuczp4bGluaz0iaHR0cDovL3d3dy53My5vcmcvMTk5OS94bGluayIgeG1sbnM9Imh0dHA6Ly93d3cudzMub3JnLzIwMDAvc3ZnIiB4bWw6c3BhY2U9InByZXNlcnZlIiB2ZXJzaW9uPSIxLjEiIHZpZXdCb3g9IjEyLjkgMTYuOSA1MC42NjY1OTg1MTA3NDIxOSAzOC4yIiBoZWlnaHQ9IjQwMi4xMDUyNjMxNTc4OTQ3NCIgd2lkdGg9IjUzMy4zMzI2MTU5MDI1NDk0Ij4mI3hhOwk8cGF0aCBkPSJNIDM4LDE3QyA0MC45NDU1LDE3IDQzLjMzMzMsMTkuMzg3OCA0My4zMzMzLDIyLjMzMzNDIDQzLjMzMzMsMjUuMjc4OCA0MC45NDU1LDI3LjY2NjcgMzgsMjcuNjY2N0MgMzUuMDU0NSwyNy42NjY3IDMyLjY2NjcsMjUuMjc4OCAzMi42NjY3LDIyLjMzMzNDIDMyLjY2NjcsMTkuMzg3OCAzNS4wNTQ1LDE3IDM4LDE3IFogTSAzMi42NjY2LDM0LjM4MzRDIDMxLjk1NTUsMzQuNzM4OSAzMC43ODMzLDM3LjgzMzMgMzEuNDI2MiwzOC4yNTAxTCAyNy45NjQsMzcuNjEzMkMgMzAuMzE5MywzNi43NiAzMC43OTExLDM1LjMzNDQgMzAuOTgyMywzMi43MzM1TCAzMC44MDA5LDMxLjExNjNDIDMxLjU3NDQsMzAuNDcyNSAzMi43MTg1LDI5LjA1MDEgMzMuNzMzMywyOS4wNTAyTCA0Mi4yNjY2LDI5LjA1MDJDIDQzLjMwMzcsMjkuMDUwMSA0NC4yMTQ5LDI5LjQ5MTMgNDQuOTk5OSwzMC4xNTkzTCA0NS40OTk5LDMyLjAwMDFDIDQ1LjQ5OTksMzQuMTczNiA0Ny4xNTU2LDM0LjgyNzEgNDguODg2LDM1Ljg3OThMIDQ2LjQ2NjYsMzUuODI5MkMgNDUuODM3NiwzNS44MDY4IDQ1LjI1NTEsMzUuOTQ4MyA0NC43MTg4LDM2LjIwNTlDIDQ0LjI2NDUsMzUuNDI1MiA0My43MDI5LDM0LjU2ODIgNDMuMzMzMywzNC4zODM0TCA0My40NTM0LDM3LjA4MzVDIDQxLjE5NTYsMzkuMTU2OSA0MC4wNjY2LDQzLjA2NzkgNDAuMDY2Niw0My4wNjc5TCAzOS42NzY0LDQ1LjAwNTNMIDM4LjUzMzMsNDUuMDVDIDM3Ljc2NjEsNDUuMDUgMzcuMDEyOSw0NC45OSAzNi4yNzgyLDQ0Ljg3NDVDIDM1LjY5MzMsNDMuMzIwOCAzNC40MTgzLDQwLjUxNjIgMzIuNDUzMywzOS4yMDc5TCAzMi42NjY2LDM0LjM4MzQgWiBNIDI0LjczMzMsMjYuOTVDIDI3LjY3ODksMjYuOTUgMzAuMDY2NywyOS4zMzc4IDMwLjA2NjcsMzIuMjgzM0MgMzAuMDY2NywzNS4yMjg4IDI3LjY3ODksMzcuNjE2NyAyNC43MzMzLDM3LjYxNjdDIDIxLjc4NzgsMzcuNjE2NyAxOS40LDM1LjIyODggMTkuNCwzMi4yODMzQyAxOS40LDI5LjMzNzggMjEuNzg3OCwyNi45NSAyNC43MzMzLDI2Ljk1IFogTSAxOS40LDQ0LjMzMzNDIDE4LjY4ODksNDQuNjg4OSAxNy4yNjY3LDQ3LjUzMzMgMTcuMjY2Nyw0Ny41MzMzQyAxNy4yNjY3LDQ3LjUzMzMgMTYuNTU1Niw0OC42IDE2LjIsNTIuODY2NkwgMTMsNTEuOEwgMTQuMDY2Nyw0Ni40NjY3QyAxNC4wNjY3LDQ2LjQ2NjcgMTYuMiwzOSAyMC40NjY2LDM5LjAwMDFMIDI4Ljk5OTksMzkuMDAwMUMgMzMuMjY2NywzOSAzNS40LDQ2LjQ2NjcgMzUuNCw0Ni40NjY3TCAzNi40NjY2LDUxLjhMIDMzLjI2NjcsNTIuODY2N0MgMzIuOTExMSw0OC42IDMyLjIwMDEsNDcuNTMzMyAzMi4yMDAxLDQ3LjUzMzNDIDMyLjIwMDEsNDcuNTMzMyAzMC43Nzc4LDQ0LjY4ODkgMzAuMDY2Nyw0NC4zMzMzTCAzMC40OTc2LDU0LjAyMDRDIDI4Ljg3NjIsNTQuNjUyOSAyNy4xMTIsNTUgMjUuMjY2Nyw1NUMgMjMuMDE3Myw1NSAyMC44ODg0LDU0LjQ4NDMgMTguOTkxOCw1My41NjQ2TCAxOS40LDQ0LjMzMzMgWiBNIDUxLjczMzMsMjQuOTMxQyA1NC42Nzg4LDI1LjAzNTkgNTcuMDY2NywyNy41MDg3IDU3LjA2NjcsMzAuNDU0MkMgNTcuMDY2NywzMy4zOTk3IDU0LjY3ODgsMzUuNzAyNSA1MS43MzMzLDM1LjU5NzdDIDQ4Ljc4NzgsMzUuNDkyOCA0Ni40LDMzLjAyIDQ2LjQsMzAuMDc0NUMgNDYuNCwyNy4xMjkgNDguNzg3OCwyNC44MjYyIDUxLjczMzMsMjQuOTMxIFogTSA0Ni40LDQyLjEyNDVDIDQ1LjY4ODksNDIuNDU0NyA0NC4yNjY3LDQ1LjI0ODUgNDQuMjY2Nyw0NS4yNDg1QyA0NC4yNjY3LDQ1LjI0ODUgNDMuNTU1Niw0Ni4yODk4IDQzLjIsNTAuNTQzOEwgNDAsNDkuMzYzMkwgNDEuMDY2Nyw0NC4wNjc5QyA0MS4wNjY3LDQ0LjA2NzkgNDMuMiwzNi42NzcyIDQ3LjQ2NjYsMzYuODI5MkwgNTUuOTk5OSwzNy4xMzNDIDYwLjI2NjcsMzcuMjg0OCA2Mi40LDQ0LjgyNzQgNjIuNCw0NC44Mjc0TCA2My40NjY2LDUwLjE5ODhMIDYwLjI2NjcsNTEuMTUxNUMgNTkuOTExMSw0Ni44NzIyIDU5LjIwMDEsNDUuNzgwMiA1OS4yMDAxLDQ1Ljc4MDJDIDU5LjIwMDEsNDUuNzgwMiA1Ny43Nzc4LDQyLjg4NTEgNTcuMDY2Nyw0Mi41MDQyTCA1Ny40OTc2LDUyLjIwNjdDIDU1Ljg3NjIsNTIuNzgxNCA1NC4xMTIsNTMuMDY1NyA1Mi4yNjY3LDUzQyA1MC4wMTczLDUyLjkxOTkgNDcuODg4NCw1Mi4zMjg0IDQ1Ljk5MTgsNTEuMzQxMkwgNDYuNCw0Mi4xMjQ1IFoiIHN0cm9rZS1saW5lam9pbj0icm91bmQiIHN0cm9rZS13aWR0aD0iMC4yIiBmaWxsLW9wYWNpdHk9IjEiIGZpbGw9IiNmZmYiLz4mI3hhOzwvc3ZnPg==;fontColor=#FFFFFF;fontStyle=1;fontFamily=Tahoma;" parent="baI93Eb9KqTFqQ3-h29e-36" vertex="1">
          <mxGeometry x="30" y="20" width="40" height="30.17" as="geometry" />
        </mxCell>
        <mxCell id="baI93Eb9KqTFqQ3-h29e-39" value="" style="shape=step;perimeter=stepPerimeter;whiteSpace=wrap;html=1;fixedSize=1;rounded=0;shadow=0;comic=0;strokeWidth=1;align=center;verticalAlign=middle;fontFamily=Verdana;fontSize=22;fontColor=#0069D1;fontStyle=1;fillColor=light-dark(#c4ccd6, #121212);strokeColor=none;size=10;" parent="1" vertex="1">
          <mxGeometry x="1267" y="236.66000000000003" width="30" height="26.67" as="geometry" />
        </mxCell>
        <mxCell id="baI93Eb9KqTFqQ3-h29e-40" value="" style="shape=step;perimeter=stepPerimeter;whiteSpace=wrap;html=1;fixedSize=1;rounded=0;shadow=0;comic=0;strokeWidth=1;align=center;verticalAlign=middle;fontFamily=Verdana;fontSize=22;fontColor=#0069D1;fontStyle=1;fillColor=light-dark(#c4ccd6, #121212);strokeColor=none;size=10;" parent="1" vertex="1">
          <mxGeometry x="1267" y="116.58000000000004" width="30" height="26.67" as="geometry" />
        </mxCell>
        <mxCell id="baI93Eb9KqTFqQ3-h29e-41" value="" style="shape=step;perimeter=stepPerimeter;whiteSpace=wrap;html=1;fixedSize=1;rounded=0;shadow=0;comic=0;strokeWidth=1;align=center;verticalAlign=middle;fontFamily=Verdana;fontSize=22;fontColor=#0069D1;fontStyle=1;fillColor=light-dark(#c4ccd6, #121212);strokeColor=none;size=10;" parent="1" vertex="1">
          <mxGeometry x="1267" y="361.65999999999997" width="30" height="26.67" as="geometry" />
        </mxCell>
        <mxCell id="baI93Eb9KqTFqQ3-h29e-42" value="" style="group" parent="1" vertex="1" connectable="0">
          <mxGeometry x="1307" y="200.00000000000003" width="100" height="100" as="geometry" />
        </mxCell>
        <mxCell id="baI93Eb9KqTFqQ3-h29e-43" value="" style="ellipse;whiteSpace=wrap;html=1;rounded=0;shadow=0;comic=0;strokeWidth=1;fontFamily=Verdana;fontSize=14;strokeColor=none;fillColor=light-dark(#90a5b1, #52acff);" parent="baI93Eb9KqTFqQ3-h29e-42" vertex="1">
          <mxGeometry width="100" height="100" as="geometry" />
        </mxCell>
        <mxCell id="baI93Eb9KqTFqQ3-h29e-44" value="Data&#xa;Consumer" style="shape=image;verticalLabelPosition=bottom;labelBackgroundColor=none;verticalAlign=top;aspect=fixed;imageAspect=0;editableCssRules=.*;image=data:image/svg+xml,PHN2ZyB4bWxuczp4bGluaz0iaHR0cDovL3d3dy53My5vcmcvMTk5OS94bGluayIgeG1sbnM9Imh0dHA6Ly93d3cudzMub3JnLzIwMDAvc3ZnIiB4bWw6c3BhY2U9InByZXNlcnZlIiB2ZXJzaW9uPSIxLjEiIHZpZXdCb3g9IjEyLjkgMTYuOSA1MC42NjY1OTg1MTA3NDIxOSAzOC4yIiBoZWlnaHQ9IjQwMi4xMDUyNjMxNTc4OTQ3NCIgd2lkdGg9IjUzMy4zMzI2MTU5MDI1NDk0Ij4mI3hhOwk8cGF0aCBkPSJNIDM4LDE3QyA0MC45NDU1LDE3IDQzLjMzMzMsMTkuMzg3OCA0My4zMzMzLDIyLjMzMzNDIDQzLjMzMzMsMjUuMjc4OCA0MC45NDU1LDI3LjY2NjcgMzgsMjcuNjY2N0MgMzUuMDU0NSwyNy42NjY3IDMyLjY2NjcsMjUuMjc4OCAzMi42NjY3LDIyLjMzMzNDIDMyLjY2NjcsMTkuMzg3OCAzNS4wNTQ1LDE3IDM4LDE3IFogTSAzMi42NjY2LDM0LjM4MzRDIDMxLjk1NTUsMzQuNzM4OSAzMC43ODMzLDM3LjgzMzMgMzEuNDI2MiwzOC4yNTAxTCAyNy45NjQsMzcuNjEzMkMgMzAuMzE5MywzNi43NiAzMC43OTExLDM1LjMzNDQgMzAuOTgyMywzMi43MzM1TCAzMC44MDA5LDMxLjExNjNDIDMxLjU3NDQsMzAuNDcyNSAzMi43MTg1LDI5LjA1MDEgMzMuNzMzMywyOS4wNTAyTCA0Mi4yNjY2LDI5LjA1MDJDIDQzLjMwMzcsMjkuMDUwMSA0NC4yMTQ5LDI5LjQ5MTMgNDQuOTk5OSwzMC4xNTkzTCA0NS40OTk5LDMyLjAwMDFDIDQ1LjQ5OTksMzQuMTczNiA0Ny4xNTU2LDM0LjgyNzEgNDguODg2LDM1Ljg3OThMIDQ2LjQ2NjYsMzUuODI5MkMgNDUuODM3NiwzNS44MDY4IDQ1LjI1NTEsMzUuOTQ4MyA0NC43MTg4LDM2LjIwNTlDIDQ0LjI2NDUsMzUuNDI1MiA0My43MDI5LDM0LjU2ODIgNDMuMzMzMywzNC4zODM0TCA0My40NTM0LDM3LjA4MzVDIDQxLjE5NTYsMzkuMTU2OSA0MC4wNjY2LDQzLjA2NzkgNDAuMDY2Niw0My4wNjc5TCAzOS42NzY0LDQ1LjAwNTNMIDM4LjUzMzMsNDUuMDVDIDM3Ljc2NjEsNDUuMDUgMzcuMDEyOSw0NC45OSAzNi4yNzgyLDQ0Ljg3NDVDIDM1LjY5MzMsNDMuMzIwOCAzNC40MTgzLDQwLjUxNjIgMzIuNDUzMywzOS4yMDc5TCAzMi42NjY2LDM0LjM4MzQgWiBNIDI0LjczMzMsMjYuOTVDIDI3LjY3ODksMjYuOTUgMzAuMDY2NywyOS4zMzc4IDMwLjA2NjcsMzIuMjgzM0MgMzAuMDY2NywzNS4yMjg4IDI3LjY3ODksMzcuNjE2NyAyNC43MzMzLDM3LjYxNjdDIDIxLjc4NzgsMzcuNjE2NyAxOS40LDM1LjIyODggMTkuNCwzMi4yODMzQyAxOS40LDI5LjMzNzggMjEuNzg3OCwyNi45NSAyNC43MzMzLDI2Ljk1IFogTSAxOS40LDQ0LjMzMzNDIDE4LjY4ODksNDQuNjg4OSAxNy4yNjY3LDQ3LjUzMzMgMTcuMjY2Nyw0Ny41MzMzQyAxNy4yNjY3LDQ3LjUzMzMgMTYuNTU1Niw0OC42IDE2LjIsNTIuODY2NkwgMTMsNTEuOEwgMTQuMDY2Nyw0Ni40NjY3QyAxNC4wNjY3LDQ2LjQ2NjcgMTYuMiwzOSAyMC40NjY2LDM5LjAwMDFMIDI4Ljk5OTksMzkuMDAwMUMgMzMuMjY2NywzOSAzNS40LDQ2LjQ2NjcgMzUuNCw0Ni40NjY3TCAzNi40NjY2LDUxLjhMIDMzLjI2NjcsNTIuODY2N0MgMzIuOTExMSw0OC42IDMyLjIwMDEsNDcuNTMzMyAzMi4yMDAxLDQ3LjUzMzNDIDMyLjIwMDEsNDcuNTMzMyAzMC43Nzc4LDQ0LjY4ODkgMzAuMDY2Nyw0NC4zMzMzTCAzMC40OTc2LDU0LjAyMDRDIDI4Ljg3NjIsNTQuNjUyOSAyNy4xMTIsNTUgMjUuMjY2Nyw1NUMgMjMuMDE3Myw1NSAyMC44ODg0LDU0LjQ4NDMgMTguOTkxOCw1My41NjQ2TCAxOS40LDQ0LjMzMzMgWiBNIDUxLjczMzMsMjQuOTMxQyA1NC42Nzg4LDI1LjAzNTkgNTcuMDY2NywyNy41MDg3IDU3LjA2NjcsMzAuNDU0MkMgNTcuMDY2NywzMy4zOTk3IDU0LjY3ODgsMzUuNzAyNSA1MS43MzMzLDM1LjU5NzdDIDQ4Ljc4NzgsMzUuNDkyOCA0Ni40LDMzLjAyIDQ2LjQsMzAuMDc0NUMgNDYuNCwyNy4xMjkgNDguNzg3OCwyNC44MjYyIDUxLjczMzMsMjQuOTMxIFogTSA0Ni40LDQyLjEyNDVDIDQ1LjY4ODksNDIuNDU0NyA0NC4yNjY3LDQ1LjI0ODUgNDQuMjY2Nyw0NS4yNDg1QyA0NC4yNjY3LDQ1LjI0ODUgNDMuNTU1Niw0Ni4yODk4IDQzLjIsNTAuNTQzOEwgNDAsNDkuMzYzMkwgNDEuMDY2Nyw0NC4wNjc5QyA0MS4wNjY3LDQ0LjA2NzkgNDMuMiwzNi42NzcyIDQ3LjQ2NjYsMzYuODI5MkwgNTUuOTk5OSwzNy4xMzNDIDYwLjI2NjcsMzcuMjg0OCA2Mi40LDQ0LjgyNzQgNjIuNCw0NC44Mjc0TCA2My40NjY2LDUwLjE5ODhMIDYwLjI2NjcsNTEuMTUxNUMgNTkuOTExMSw0Ni44NzIyIDU5LjIwMDEsNDUuNzgwMiA1OS4yMDAxLDQ1Ljc4MDJDIDU5LjIwMDEsNDUuNzgwMiA1Ny43Nzc4LDQyLjg4NTEgNTcuMDY2Nyw0Mi41MDQyTCA1Ny40OTc2LDUyLjIwNjdDIDU1Ljg3NjIsNTIuNzgxNCA1NC4xMTIsNTMuMDY1NyA1Mi4yNjY3LDUzQyA1MC4wMTczLDUyLjkxOTkgNDcuODg4NCw1Mi4zMjg0IDQ1Ljk5MTgsNTEuMzQxMkwgNDYuNCw0Mi4xMjQ1IFoiIHN0cm9rZS1saW5lam9pbj0icm91bmQiIHN0cm9rZS13aWR0aD0iMC4yIiBmaWxsLW9wYWNpdHk9IjEiIGZpbGw9IiNmZmYiLz4mI3hhOzwvc3ZnPg==;fontColor=#FFFFFF;fontStyle=1;fontFamily=Tahoma;" parent="baI93Eb9KqTFqQ3-h29e-42" vertex="1">
          <mxGeometry x="30" y="20" width="40" height="30.17" as="geometry" />
        </mxCell>
        <mxCell id="baI93Eb9KqTFqQ3-h29e-45" value="" style="group" parent="1" vertex="1" connectable="0">
          <mxGeometry x="1307" y="80.00000000000003" width="100" height="100" as="geometry" />
        </mxCell>
        <mxCell id="baI93Eb9KqTFqQ3-h29e-46" value="" style="ellipse;whiteSpace=wrap;html=1;rounded=0;shadow=0;comic=0;strokeWidth=1;fontFamily=Verdana;fontSize=14;strokeColor=none;fillColor=light-dark(#90a5b1, #52acff);" parent="baI93Eb9KqTFqQ3-h29e-45" vertex="1">
          <mxGeometry width="100" height="100" as="geometry" />
        </mxCell>
        <mxCell id="baI93Eb9KqTFqQ3-h29e-47" value="Data&#xa;Consumer" style="shape=image;verticalLabelPosition=bottom;labelBackgroundColor=none;verticalAlign=top;aspect=fixed;imageAspect=0;editableCssRules=.*;image=data:image/svg+xml,PHN2ZyB4bWxuczp4bGluaz0iaHR0cDovL3d3dy53My5vcmcvMTk5OS94bGluayIgeG1sbnM9Imh0dHA6Ly93d3cudzMub3JnLzIwMDAvc3ZnIiB4bWw6c3BhY2U9InByZXNlcnZlIiB2ZXJzaW9uPSIxLjEiIHZpZXdCb3g9IjEyLjkgMTYuOSA1MC42NjY1OTg1MTA3NDIxOSAzOC4yIiBoZWlnaHQ9IjQwMi4xMDUyNjMxNTc4OTQ3NCIgd2lkdGg9IjUzMy4zMzI2MTU5MDI1NDk0Ij4mI3hhOwk8cGF0aCBkPSJNIDM4LDE3QyA0MC45NDU1LDE3IDQzLjMzMzMsMTkuMzg3OCA0My4zMzMzLDIyLjMzMzNDIDQzLjMzMzMsMjUuMjc4OCA0MC45NDU1LDI3LjY2NjcgMzgsMjcuNjY2N0MgMzUuMDU0NSwyNy42NjY3IDMyLjY2NjcsMjUuMjc4OCAzMi42NjY3LDIyLjMzMzNDIDMyLjY2NjcsMTkuMzg3OCAzNS4wNTQ1LDE3IDM4LDE3IFogTSAzMi42NjY2LDM0LjM4MzRDIDMxLjk1NTUsMzQuNzM4OSAzMC43ODMzLDM3LjgzMzMgMzEuNDI2MiwzOC4yNTAxTCAyNy45NjQsMzcuNjEzMkMgMzAuMzE5MywzNi43NiAzMC43OTExLDM1LjMzNDQgMzAuOTgyMywzMi43MzM1TCAzMC44MDA5LDMxLjExNjNDIDMxLjU3NDQsMzAuNDcyNSAzMi43MTg1LDI5LjA1MDEgMzMuNzMzMywyOS4wNTAyTCA0Mi4yNjY2LDI5LjA1MDJDIDQzLjMwMzcsMjkuMDUwMSA0NC4yMTQ5LDI5LjQ5MTMgNDQuOTk5OSwzMC4xNTkzTCA0NS40OTk5LDMyLjAwMDFDIDQ1LjQ5OTksMzQuMTczNiA0Ny4xNTU2LDM0LjgyNzEgNDguODg2LDM1Ljg3OThMIDQ2LjQ2NjYsMzUuODI5MkMgNDUuODM3NiwzNS44MDY4IDQ1LjI1NTEsMzUuOTQ4MyA0NC43MTg4LDM2LjIwNTlDIDQ0LjI2NDUsMzUuNDI1MiA0My43MDI5LDM0LjU2ODIgNDMuMzMzMywzNC4zODM0TCA0My40NTM0LDM3LjA4MzVDIDQxLjE5NTYsMzkuMTU2OSA0MC4wNjY2LDQzLjA2NzkgNDAuMDY2Niw0My4wNjc5TCAzOS42NzY0LDQ1LjAwNTNMIDM4LjUzMzMsNDUuMDVDIDM3Ljc2NjEsNDUuMDUgMzcuMDEyOSw0NC45OSAzNi4yNzgyLDQ0Ljg3NDVDIDM1LjY5MzMsNDMuMzIwOCAzNC40MTgzLDQwLjUxNjIgMzIuNDUzMywzOS4yMDc5TCAzMi42NjY2LDM0LjM4MzQgWiBNIDI0LjczMzMsMjYuOTVDIDI3LjY3ODksMjYuOTUgMzAuMDY2NywyOS4zMzc4IDMwLjA2NjcsMzIuMjgzM0MgMzAuMDY2NywzNS4yMjg4IDI3LjY3ODksMzcuNjE2NyAyNC43MzMzLDM3LjYxNjdDIDIxLjc4NzgsMzcuNjE2NyAxOS40LDM1LjIyODggMTkuNCwzMi4yODMzQyAxOS40LDI5LjMzNzggMjEuNzg3OCwyNi45NSAyNC43MzMzLDI2Ljk1IFogTSAxOS40LDQ0LjMzMzNDIDE4LjY4ODksNDQuNjg4OSAxNy4yNjY3LDQ3LjUzMzMgMTcuMjY2Nyw0Ny41MzMzQyAxNy4yNjY3LDQ3LjUzMzMgMTYuNTU1Niw0OC42IDE2LjIsNTIuODY2NkwgMTMsNTEuOEwgMTQuMDY2Nyw0Ni40NjY3QyAxNC4wNjY3LDQ2LjQ2NjcgMTYuMiwzOSAyMC40NjY2LDM5LjAwMDFMIDI4Ljk5OTksMzkuMDAwMUMgMzMuMjY2NywzOSAzNS40LDQ2LjQ2NjcgMzUuNCw0Ni40NjY3TCAzNi40NjY2LDUxLjhMIDMzLjI2NjcsNTIuODY2N0MgMzIuOTExMSw0OC42IDMyLjIwMDEsNDcuNTMzMyAzMi4yMDAxLDQ3LjUzMzNDIDMyLjIwMDEsNDcuNTMzMyAzMC43Nzc4LDQ0LjY4ODkgMzAuMDY2Nyw0NC4zMzMzTCAzMC40OTc2LDU0LjAyMDRDIDI4Ljg3NjIsNTQuNjUyOSAyNy4xMTIsNTUgMjUuMjY2Nyw1NUMgMjMuMDE3Myw1NSAyMC44ODg0LDU0LjQ4NDMgMTguOTkxOCw1My41NjQ2TCAxOS40LDQ0LjMzMzMgWiBNIDUxLjczMzMsMjQuOTMxQyA1NC42Nzg4LDI1LjAzNTkgNTcuMDY2NywyNy41MDg3IDU3LjA2NjcsMzAuNDU0MkMgNTcuMDY2NywzMy4zOTk3IDU0LjY3ODgsMzUuNzAyNSA1MS43MzMzLDM1LjU5NzdDIDQ4Ljc4NzgsMzUuNDkyOCA0Ni40LDMzLjAyIDQ2LjQsMzAuMDc0NUMgNDYuNCwyNy4xMjkgNDguNzg3OCwyNC44MjYyIDUxLjczMzMsMjQuOTMxIFogTSA0Ni40LDQyLjEyNDVDIDQ1LjY4ODksNDIuNDU0NyA0NC4yNjY3LDQ1LjI0ODUgNDQuMjY2Nyw0NS4yNDg1QyA0NC4yNjY3LDQ1LjI0ODUgNDMuNTU1Niw0Ni4yODk4IDQzLjIsNTAuNTQzOEwgNDAsNDkuMzYzMkwgNDEuMDY2Nyw0NC4wNjc5QyA0MS4wNjY3LDQ0LjA2NzkgNDMuMiwzNi42NzcyIDQ3LjQ2NjYsMzYuODI5MkwgNTUuOTk5OSwzNy4xMzNDIDYwLjI2NjcsMzcuMjg0OCA2Mi40LDQ0LjgyNzQgNjIuNCw0NC44Mjc0TCA2My40NjY2LDUwLjE5ODhMIDYwLjI2NjcsNTEuMTUxNUMgNTkuOTExMSw0Ni44NzIyIDU5LjIwMDEsNDUuNzgwMiA1OS4yMDAxLDQ1Ljc4MDJDIDU5LjIwMDEsNDUuNzgwMiA1Ny43Nzc4LDQyLjg4NTEgNTcuMDY2Nyw0Mi41MDQyTCA1Ny40OTc2LDUyLjIwNjdDIDU1Ljg3NjIsNTIuNzgxNCA1NC4xMTIsNTMuMDY1NyA1Mi4yNjY3LDUzQyA1MC4wMTczLDUyLjkxOTkgNDcuODg4NCw1Mi4zMjg0IDQ1Ljk5MTgsNTEuMzQxMkwgNDYuNCw0Mi4xMjQ1IFoiIHN0cm9rZS1saW5lam9pbj0icm91bmQiIHN0cm9rZS13aWR0aD0iMC4yIiBmaWxsLW9wYWNpdHk9IjEiIGZpbGw9IiNmZmYiLz4mI3hhOzwvc3ZnPg==;fontColor=#FFFFFF;fontStyle=1;fontFamily=Tahoma;" parent="baI93Eb9KqTFqQ3-h29e-45" vertex="1">
          <mxGeometry x="30" y="20" width="40" height="30.17" as="geometry" />
        </mxCell>
        <mxCell id="baI93Eb9KqTFqQ3-h29e-48" value="" style="group" parent="1" vertex="1" connectable="0">
          <mxGeometry x="571" y="210.00000000000003" width="60" height="60" as="geometry" />
        </mxCell>
        <mxCell id="baI93Eb9KqTFqQ3-h29e-49" value="" style="ellipse;whiteSpace=wrap;html=1;rounded=0;shadow=0;comic=0;strokeWidth=1;fontFamily=Verdana;fontSize=14;strokeColor=none;fillColor=light-dark(#90a5b1, #52acff);" parent="baI93Eb9KqTFqQ3-h29e-48" vertex="1">
          <mxGeometry width="60" height="60" as="geometry" />
        </mxCell>
        <mxCell id="baI93Eb9KqTFqQ3-h29e-50" value="" style="ellipse;whiteSpace=wrap;html=1;rounded=0;shadow=0;comic=0;strokeWidth=1;fontFamily=Verdana;fontSize=22;strokeColor=none;fillColor=light-dark(#c4ccd6, #121212);fontColor=#0069D1;fontStyle=1" parent="baI93Eb9KqTFqQ3-h29e-48" vertex="1">
          <mxGeometry x="15.882352941176471" y="15.882352941176471" width="28.23529411764706" height="28.235294117647054" as="geometry" />
        </mxCell>
        <mxCell id="baI93Eb9KqTFqQ3-h29e-51" style="rounded=0;orthogonalLoop=1;jettySize=auto;html=1;exitX=0.5;exitY=0;exitDx=0;exitDy=0;entryX=0;entryY=0;entryDx=0;entryDy=0;endArrow=none;startFill=0;strokeColor=light-dark(#90a5b1, #ededed);dashed=1;dashPattern=8 8;" parent="1" source="baI93Eb9KqTFqQ3-h29e-49" target="baI93Eb9KqTFqQ3-h29e-59" edge="1">
          <mxGeometry relative="1" as="geometry">
            <mxPoint x="1027" y="20.00000000000003" as="targetPoint" />
          </mxGeometry>
        </mxCell>
        <mxCell id="baI93Eb9KqTFqQ3-h29e-52" style="rounded=0;orthogonalLoop=1;jettySize=auto;html=1;exitX=0.5;exitY=1;exitDx=0;exitDy=0;entryX=0;entryY=1;entryDx=0;entryDy=0;endArrow=none;startFill=0;strokeColor=light-dark(#90a5b1, #ededed);dashed=1;dashPattern=8 8;" parent="1" source="baI93Eb9KqTFqQ3-h29e-49" target="baI93Eb9KqTFqQ3-h29e-59" edge="1">
          <mxGeometry relative="1" as="geometry">
            <mxPoint x="611" y="220.00000000000003" as="sourcePoint" />
            <mxPoint x="977" y="140.00000000000003" as="targetPoint" />
          </mxGeometry>
        </mxCell>
        <mxCell id="baI93Eb9KqTFqQ3-h29e-53" value="" style="group" parent="1" vertex="1" connectable="0">
          <mxGeometry x="767" y="80.00000000000003" width="100" height="100" as="geometry" />
        </mxCell>
        <mxCell id="baI93Eb9KqTFqQ3-h29e-54" value="" style="ellipse;whiteSpace=wrap;html=1;rounded=0;shadow=0;comic=0;strokeWidth=1;fontFamily=Verdana;fontSize=14;strokeColor=none;fillColor=light-dark(#90a5b1, #52acff);" parent="baI93Eb9KqTFqQ3-h29e-53" vertex="1">
          <mxGeometry width="100" height="100" as="geometry" />
        </mxCell>
        <mxCell id="baI93Eb9KqTFqQ3-h29e-55" value="Data Product&#xa;Owner" style="shape=image;verticalLabelPosition=bottom;labelBackgroundColor=none;verticalAlign=top;aspect=fixed;imageAspect=0;editableCssRules=.*;image=data:image/svg+xml,PHN2ZyB4bWxuczp4bGluaz0iaHR0cDovL3d3dy53My5vcmcvMTk5OS94bGluayIgeG1sbnM9Imh0dHA6Ly93d3cudzMub3JnLzIwMDAvc3ZnIiB4bWw6c3BhY2U9InByZXNlcnZlIiB2aWV3Qm94PSI4Ni4zODEwMTk1OTIyODUxNiAwIDMzOS4yMzcwMzAwMjkyOTY5IDUxMi4wMDAwNjEwMzUxNTYyIiBpZD0iX3gzMl8iIHZlcnNpb249IjEuMSIgd2lkdGg9IjUzMC4wNTc4NTk0MjA3NzY0IiBoZWlnaHQ9IjgwMC4wMDAwOTUzNjc0MzE2Ij4mI3hhOzxzdHlsZSB0eXBlPSJ0ZXh0L2NzcyI+JiN4YTsJLnN0MHtmaWxsOiNmZmY7fSYjeGE7PC9zdHlsZT4mI3hhOzxnPiYjeGE7CTxwYXRoIGQ9Ik0zMzIuOTMzLDIxMy40NTFjLTIwLjcxMywxNy43ODQtNDcuNTU5LDI4LjYyNC03Ni45MzgsMjguNjI0Yy0yOS4zNywwLTU2LjIyNC0xMC44NC03Ni45MjgtMjguNjI0JiMxMDsmIzk7JiM5O2MtNTQuOTkxLDIwLjk1Mi05Mi42ODYsNjYuMTI2LTkyLjY4NiwxMzIuMDk0djk4LjA4MmMwLDAsMTQuNTA1LDE5LjMzMSw0NS44NjQsMzcuNDM3di02OS4zMzloMjguOTkydjgzLjIyOCYjMTA7JiM5OyYjOTtjMjQuODQ4LDkuNzgsNTYuMjQzLDE3LjA0Nyw5NC43NTgsMTcuMDQ3YzM4LjUyNCwwLDY5LjkwMS03LjI2Niw5NC43NjctMTcuMDQ3di04My4yMjhoMjguOTkydjY5LjMzOSYjMTA7JiM5OyYjOTtjMzEuMzU5LTE4LjEwNiw0NS44NjQtMzcuNDM3LDQ1Ljg2NC0zNy40Mzd2LTk4LjA4MkM0MjUuNjE4LDI3OS41NzcsMzg3LjkyMywyMzQuNDAzLDMzMi45MzMsMjEzLjQ1MXoiIGNsYXNzPSJzdDAiLz4mI3hhOwk8cGF0aCBkPSJNMjU1Ljk5NiwyMTMuOTAyYzQ5LjI5OSwwLDg5LjI2LTM5Ljk2LDg5LjI2LTg5LjI1OVY4OS4yNjlDMzQ1LjI1NSwzOS45NiwzMDUuMjk0LDAsMjU1Ljk5NiwwJiMxMDsmIzk7JiM5O2MtNDkuMywwLTg5LjI2OCwzOS45Ni04OS4yNjgsODkuMjY5djM1LjM3NEMxNjYuNzI3LDE3My45NDIsMjA2LjY5NiwyMTMuOTAyLDI1NS45OTYsMjEzLjkwMnoiIGNsYXNzPSJzdDAiLz4mI3hhOzwvZz4mI3hhOzwvc3ZnPg==;fontColor=#FFFFFF;fontStyle=1;fontFamily=Tahoma;" parent="baI93Eb9KqTFqQ3-h29e-53" vertex="1">
          <mxGeometry x="36.75" y="10" width="26.5" height="40" as="geometry" />
        </mxCell>
        <mxCell id="baI93Eb9KqTFqQ3-h29e-56" value="" style="group" parent="1" vertex="1" connectable="0">
          <mxGeometry x="767" y="320" width="100" height="100" as="geometry" />
        </mxCell>
        <mxCell id="baI93Eb9KqTFqQ3-h29e-57" value="" style="ellipse;whiteSpace=wrap;html=1;rounded=0;shadow=0;comic=0;strokeWidth=1;fontFamily=Verdana;fontSize=14;strokeColor=none;fillColor=light-dark(#90a5b1, #52acff);" parent="baI93Eb9KqTFqQ3-h29e-56" vertex="1">
          <mxGeometry width="100" height="100" as="geometry" />
        </mxCell>
        <mxCell id="baI93Eb9KqTFqQ3-h29e-58" value="Data Product&#xa;Owner" style="shape=image;verticalLabelPosition=bottom;labelBackgroundColor=none;verticalAlign=top;aspect=fixed;imageAspect=0;editableCssRules=.*;image=data:image/svg+xml,PHN2ZyB4bWxuczp4bGluaz0iaHR0cDovL3d3dy53My5vcmcvMTk5OS94bGluayIgeG1sbnM9Imh0dHA6Ly93d3cudzMub3JnLzIwMDAvc3ZnIiB4bWw6c3BhY2U9InByZXNlcnZlIiB2aWV3Qm94PSI4Ni4zODEwMTk1OTIyODUxNiAwIDMzOS4yMzcwMzAwMjkyOTY5IDUxMi4wMDAwNjEwMzUxNTYyIiBpZD0iX3gzMl8iIHZlcnNpb249IjEuMSIgd2lkdGg9IjUzMC4wNTc4NTk0MjA3NzY0IiBoZWlnaHQ9IjgwMC4wMDAwOTUzNjc0MzE2Ij4mI3hhOzxzdHlsZSB0eXBlPSJ0ZXh0L2NzcyI+JiN4YTsJLnN0MHtmaWxsOiNmZmY7fSYjeGE7PC9zdHlsZT4mI3hhOzxnPiYjeGE7CTxwYXRoIGQ9Ik0zMzIuOTMzLDIxMy40NTFjLTIwLjcxMywxNy43ODQtNDcuNTU5LDI4LjYyNC03Ni45MzgsMjguNjI0Yy0yOS4zNywwLTU2LjIyNC0xMC44NC03Ni45MjgtMjguNjI0JiMxMDsmIzk7JiM5O2MtNTQuOTkxLDIwLjk1Mi05Mi42ODYsNjYuMTI2LTkyLjY4NiwxMzIuMDk0djk4LjA4MmMwLDAsMTQuNTA1LDE5LjMzMSw0NS44NjQsMzcuNDM3di02OS4zMzloMjguOTkydjgzLjIyOCYjMTA7JiM5OyYjOTtjMjQuODQ4LDkuNzgsNTYuMjQzLDE3LjA0Nyw5NC43NTgsMTcuMDQ3YzM4LjUyNCwwLDY5LjkwMS03LjI2Niw5NC43NjctMTcuMDQ3di04My4yMjhoMjguOTkydjY5LjMzOSYjMTA7JiM5OyYjOTtjMzEuMzU5LTE4LjEwNiw0NS44NjQtMzcuNDM3LDQ1Ljg2NC0zNy40Mzd2LTk4LjA4MkM0MjUuNjE4LDI3OS41NzcsMzg3LjkyMywyMzQuNDAzLDMzMi45MzMsMjEzLjQ1MXoiIGNsYXNzPSJzdDAiLz4mI3hhOwk8cGF0aCBkPSJNMjU1Ljk5NiwyMTMuOTAyYzQ5LjI5OSwwLDg5LjI2LTM5Ljk2LDg5LjI2LTg5LjI1OVY4OS4yNjlDMzQ1LjI1NSwzOS45NiwzMDUuMjk0LDAsMjU1Ljk5NiwwJiMxMDsmIzk7JiM5O2MtNDkuMywwLTg5LjI2OCwzOS45Ni04OS4yNjgsODkuMjY5djM1LjM3NEMxNjYuNzI3LDE3My45NDIsMjA2LjY5NiwyMTMuOTAyLDI1NS45OTYsMjEzLjkwMnoiIGNsYXNzPSJzdDAiLz4mI3hhOzwvZz4mI3hhOzwvc3ZnPg==;fontColor=#FFFFFF;fontStyle=1;fontFamily=Tahoma;" parent="baI93Eb9KqTFqQ3-h29e-56" vertex="1">
          <mxGeometry x="36.75" y="10" width="26.5" height="40" as="geometry" />
        </mxCell>
        <mxCell id="baI93Eb9KqTFqQ3-h29e-59" value="" style="ellipse;whiteSpace=wrap;html=1;rounded=0;shadow=0;comic=0;strokeWidth=1;fontFamily=Verdana;fontSize=14;strokeColor=none;fillColor=light-dark(#90a5b1, #52acff);" parent="1" vertex="1">
          <mxGeometry x="917" y="80.00000000000003" width="340" height="340" as="geometry" />
        </mxCell>
        <mxCell id="baI93Eb9KqTFqQ3-h29e-60" value="" style="ellipse;whiteSpace=wrap;html=1;rounded=0;shadow=0;comic=0;strokeWidth=1;fontFamily=Verdana;fontSize=22;strokeColor=none;fillColor=light-dark(#c4ccd6, #121212);fontColor=#0069D1;fontStyle=1" parent="1" vertex="1">
          <mxGeometry x="1007" y="170.00000000000003" width="160" height="160" as="geometry" />
        </mxCell>
        <mxCell id="baI93Eb9KqTFqQ3-h29e-61" value="Data Tables" style="shape=image;verticalLabelPosition=bottom;labelBackgroundColor=none;verticalAlign=top;aspect=fixed;imageAspect=0;editableCssRules=.*;image=data:image/svg+xml,PHN2ZyB4bWxucz0iaHR0cDovL3d3dy53My5vcmcvMjAwMC9zdmciIHZlcnNpb249IjEuMSIgdmlld0JveD0iMCA2LjY1Njk5OTU4ODAxMjY5NSAyMi40MDYwMDAxMzczMjkxIDE4LjY4NzAwMDI3NDY1ODIwMyIgaGVpZ2h0PSI0NjcuMTc1MDA2ODY2NDU1MSIgd2lkdGg9IjU2MC4xNTAwMDM0MzMyMjc1IiBmaWxsPSIjZmZmIj4mI3hhOzx0aXRsZT50YWJsZTwvdGl0bGU+JiN4YTs8cGF0aCBkPSJNMCA4LjA2M3YxNS44NzVjMCAwLjc4MSAwLjYyNSAxLjQwNiAxLjQwNiAxLjQwNmgxOS42MjVjMC43ODEgMCAxLjM3NS0wLjYyNSAxLjM3NS0xLjQwNnYtMTUuODc1YzAtMC43ODEtMC41OTQtMS40MDYtMS4zNzUtMS40MDZoLTE5LjYyNWMtMC43ODEgMC0xLjQwNiAwLjYyNS0xLjQwNiAxLjQwNnpNMS44NzUgMTMuNDY5di00LjAzMWg1LjU5NHY0LjAzMWgtNS41OTR6TTguNDA2IDEzLjQ2OXYtNC4wMzFoNS42MjV2NC4wMzFoLTUuNjI1ek0xNC45MzggMTMuNDY5di00LjAzMWg1LjU5NHY0LjAzMWgtNS41OTR6TTEuODc1IDE4LjQ2OXYtNC4wMzFoNS41OTR2NC4wMzFoLTUuNTk0ek04LjQwNiAxOC40Njl2LTQuMDMxaDUuNjI1djQuMDMxaC01LjYyNXpNMTQuOTM4IDE4LjQ2OXYtNC4wMzFoNS41OTR2NC4wMzFoLTUuNTk0ek0xLjg3NSAyMy40Mzh2LTQuMDYzaDUuNTk0djQuMDYzaC01LjU5NHpNOC40MDYgMjMuNDM4di00LjA2M2g1LjYyNXY0LjA2M2gtNS42MjV6TTE0LjkzOCAyMy40Mzh2LTQuMDYzaDUuNTk0djQuMDYzaC01LjU5NHoiLz4mI3hhOzwvc3ZnPg==;fontColor=#FFFFFF;fontSize=12;fontStyle=1;fontFamily=Tahoma;" parent="1" vertex="1">
          <mxGeometry x="1177" y="256.65000000000003" width="40" height="33.35" as="geometry" />
        </mxCell>
        <mxCell id="baI93Eb9KqTFqQ3-h29e-62" value="API&#39;s" style="shape=image;verticalLabelPosition=bottom;labelBackgroundColor=none;verticalAlign=top;aspect=fixed;imageAspect=0;editableCssRules=.*;image=data:image/svg+xml,PHN2ZyB4bWxucz0iaHR0cDovL3d3dy53My5vcmcvMjAwMC9zdmciIGZpbGw9Im5vbmUiIHZpZXdCb3g9IjAuNDk5OTk5NTgyNzY3NDg2NiAwLjQ5OTYzOTU3MDcxMzA0MzIgMTUuMDAwMTE0NDQwOTE3OTY5IDE1LjAwMDQ3NjgzNzE1ODIwMyIgaGVpZ2h0PSI3NTAuMDIzODQxODU3OTEwMiIgd2lkdGg9Ijc1MC4wMDU3MjIwNDU4OTg0Ij48cGF0aCBjbGlwLXJ1bGU9ImV2ZW5vZGQiIGQ9Ik0uNSAyLjc1YTIuMjUgMi4yNSAwIDExNC4yOC45N2wxLjM0NSAxLjM0NC4yODQtLjI4NGEyLjI1IDIuMjUgMCAwMTMuMTgyIDBsLjI4NC4yODQgMS4zNDQtMS4zNDRhMi4yNSAyLjI1IDAgMTExLjA2IDEuMDZsLTEuMzQzIDEuMzQ1LjI4NC4yODRhMi4yNSAyLjI1IDAgMDEwIDMuMTgybC0uMjg0LjI4NCAxLjM0NCAxLjM0NGEyLjI1IDIuMjUgMCAxMS0xLjA2IDEuMDZsLTEuMzQ1LTEuMzQzLS4yODQuMjg0YTIuMjUgMi4yNSAwIDAxLTMuMTgyIDBsLS4yODQtLjI4NC0xLjM0NCAxLjM0NGEyLjI1IDIuMjUgMCAxMS0xLjA2LTEuMDZsMS4zNDMtMS4zNDUtLjI4NC0uMjg0YTIuMjUgMi4yNSAwIDAxMC0zLjE4MmwuMjg0LS4yODRMMy43MiA0Ljc4MUEyLjI1IDIuMjUgMCAwMS41IDIuNzV6TTIuNzUgMmEuNzUuNzUgMCAxMDAgMS41Ljc1Ljc1IDAgMDAwLTEuNXptMCAxMC41YS43NS43NSAwIDEwMCAxLjUuNzUuNzUgMCAwMDAtMS41em05Ljc1Ljc1YS43NS43NSAwIDExMS41IDAgLjc1Ljc1IDAgMDEtMS41IDB6TTEzLjI1IDJhLjc1Ljc1IDAgMTAwIDEuNS43NS43NSAwIDAwMC0xLjV6TTcuNDcgNS44NDFhLjc1Ljc1IDAgMDExLjA2IDBMMTAuMTYgNy40N2EuNzUuNzUgMCAwMTAgMS4wNkw4LjUzIDEwLjE2YS43NS43NSAwIDAxLTEuMDYgMEw1Ljg0IDguNTNhLjc1Ljc1IDAgMDEwLTEuMDZMNy40NyA1Ljg0eiIgZmlsbC1ydWxlPSJldmVub2RkIiBmaWxsPSIjZmZmIi8+PC9zdmc+;fontColor=#FFFFFF;fontStyle=1;fontFamily=Tahoma;" parent="1" vertex="1">
          <mxGeometry x="967" y="150.00000000000003" width="40" height="40" as="geometry" />
        </mxCell>
        <mxCell id="baI93Eb9KqTFqQ3-h29e-63" value="ML Models" style="shape=image;verticalLabelPosition=bottom;labelBackgroundColor=none;verticalAlign=top;aspect=fixed;imageAspect=0;editableCssRules=.*;image=data:image/svg+xml,PHN2ZyB4bWxuczp4bGluaz0iaHR0cDovL3d3dy53My5vcmcvMTk5OS94bGluayIgeG1sbnM9Imh0dHA6Ly93d3cudzMub3JnLzIwMDAvc3ZnIiB4bWw6c3BhY2U9InByZXNlcnZlIiB2aWV3Qm94PSIwIDAgMzIgMzIiIGlkPSJMYXllcl8xIiB2ZXJzaW9uPSIxLjEiIGZpbGw9IiNmZmYiIHdpZHRoPSIzMiIgaGVpZ2h0PSIzMiI+JiN4YTs8cGF0aCBkPSJNMTIsMS42NGMtMC4wMDIsMC0wLjAwNCwwLTAuMDA2LDBjLTEuNDczLDAtMi42OTEsMC43NTktMy4yMzksMmgtMC40OCYjMTA7JiM5O2MtMC4wMDMsMC0wLjAwNiwwLTAuMDA5LDBjLTEuMjcxLDAtMi40NzgsMC40MjUtMy4zOTgsMS4xOTlDMy44OTIsNS42NTksMy4zNTQsNi43OSwzLjM1Miw4LjAyMSYjMTA7JiM5O2MtMC4wMDEsMC45OTUsMC41MjYsMi4wOTcsMS4wMjUsMi43OTFjLTIuMjIzLDAuNzctMy43MzQsMi42MzMtMy43MzcsNC42ODhjLTAuMDAzLDIuMDQ2LDEuNTA3LDMuOTEsMy43MzQsNC42ODcmIzEwOyYjOTtjLTAuNTA2LDAuNjkyLTEuMDQ0LDEuNzg4LTEuMDQ1LDIuNzY2Yy0wLjAwMywyLjQyNiwyLjIxNSw0LjQwMyw0Ljk0Nyw0LjQwOGgwLjQ4YzAuNTQzLDEuMjM4LDEuNzY0LDEuOTk4LDMuMjQ0LDImIzEwOyYjOTtjMC4wMDIsMCwwLjAwNCwwLDAuMDA3LDBjMS45NzIsMCwzLjM1MS0xLjM4MSwzLjM1NC0zLjM2VjVDMTUuMzYzLDMuMDI1LDEzLjk4MiwxLjY0MywxMiwxLjY0eiBNMTIsMTguNjQmIzEwOyYjOTtjLTAuMzUzLDAtMC42NC0wLjI4Ny0wLjY0LTAuNjRzMC4yODctMC42NCwwLjY0LTAuNjRzMC42NCwwLjI4NywwLjY0LDAuNjRTMTIuMzUzLDE4LjY0LDEyLDE4LjY0eiBNMTQuNjQsMTMuNjRoLTIuMjhWNy4zMDUmIzEwOyYjOTtjMC41NzUtMC4xNTksMS0wLjY4MSwxLTEuMzA1YzAtMC43NS0wLjYxLTEuMzYtMS4zNi0xLjM2UzEwLjY0LDUuMjUsMTAuNjQsNmMwLDAuNjI1LDAuNDI1LDEuMTQ2LDEsMS4zMDV2Ni4zMzVIMTAmIzEwOyYjOTtjLTAuMDAxLDAtMC4wMDEsMC0wLjAwMiwwQzkuMiwxMy42NCw4LjY0MSwxNC4xOTksOC42NCwxNXYwLjY0SDYuMzA1Yy0wLjE1OS0wLjU3NS0wLjY4MS0xLTEuMzA1LTFjLTAuNzUsMC0xLjM2LDAuNjEtMS4zNiwxLjM2JiMxMDsmIzk7UzQuMjUsMTcuMzYsNSwxNy4zNmMwLjYyNSwwLDEuMTQ3LTAuNDI2LDEuMzA1LTFIOC42NHY1LjgzNGMtMC41NzUsMC4xNTktMSwwLjY4MS0xLDEuMzA2YzAsMC43NSwwLjYxLDEuMzYsMS4zNiwxLjM2JiMxMDsmIzk7czEuMzYtMC42MSwxLjM2LTEuMzZjMC0wLjYyNS0wLjQyNS0xLjE0Ny0xLTEuMzA2VjE1YzAuMDAxLTAuNDAxLDAuMjM5LTAuNjQxLDAuNjM5LTAuNjQxSDEwaDQuNjR2MTEuNjM5JiMxMDsmIzk7Yy0wLjAwMywxLjQ1Ni0wLjkwOCwyLjQ2LTIuMjgsMi42MXYtOS4zMDNjMC41NzUtMC4xNTksMS0wLjY4MSwxLTEuMzA2YzAtMC43NS0wLjYxLTEuMzYtMS4zNi0xLjM2cy0xLjM2LDAuNjEtMS4zNiwxLjM2JiMxMDsmIzk7YzAsMC42MjUsMC40MjUsMS4xNDcsMSwxLjMwNnY5LjMxYy0xLjEwMy0wLjExNC0xLjk1MS0wLjc0Mi0yLjMtMS43MzVDOS4yODksMjYuNzM2LDkuMTUzLDI2LjY0LDksMjYuNjRIOC4yNzYmIzEwOyYjOTtjLTIuMDM2LTAuMDAzLTQuMjMtMS40MTMtNC4yMjgtMy42ODZjMC4wMDItMC45NjYsMC43MTQtMi4yMDksMS4yMDYtMi42OTljMC4wOTItMC4wOTEsMC4xMjctMC4yMjUsMC4wOTMtMC4zNSYjMTA7JiM5O3MtMC4xMzItMC4yMjItMC4yNTctMC4yNTRjLTIuMTk5LTAuNTY2LTMuNzMzLTIuMjczLTMuNzMtNC4xNTFjMC4wMDMtMS44NzYsMS41MjItMy41NzMsMy42OTUtNC4xNDFoMi42NCYjMTA7JiM5O2MwLjE1OSwwLjU3NSwwLjY4MSwxLDEuMzA1LDFjMC43NSwwLDEuMzYtMC42MSwxLjM2LTEuMzZTOS43NSw5LjY0LDksOS42NGMtMC42MjUsMC0xLjE0NiwwLjQyNS0xLjMwNSwxSDUuMTYyJiMxMDsmIzk7QzQuNjg1LDEwLjA5OSw0LjA3LDguOTQ5LDQuMDcxLDguMDIyQzQuMDczLDcuMDA2LDQuNTIsNi4wNzIsNS4zMzIsNS4zOWMwLjc3OS0wLjY1NSwxLjg0OS0xLjAzLDIuOTM2LTEuMDMmIzEwOyYjOTtjMC4wMDIsMCwwLjAwNSwwLDAuMDA4LDBIOWMwLjE1MiwwLDAuMjg4LTAuMDk2LDAuMzM5LTAuMjM5YzAuMzkyLTEuMTAzLDEuMzg0LTEuNzYxLDIuNjU1LTEuNzYxYzAuMDAyLDAsMC4wMDMsMCwwLjAwNSwwJiMxMDsmIzk7QzEzLjU4MiwyLjM2MywxNC42NDMsMy40MjMsMTQuNjQsNVYxMy42NHogTTEyLDYuNjRjLTAuMzUzLDAtMC42NC0wLjI4Ny0wLjY0LTAuNjRTMTEuNjQ3LDUuMzYsMTIsNS4zNlMxMi42NCw1LjY0NywxMi42NCw2JiMxMDsmIzk7UzEyLjM1Myw2LjY0LDEyLDYuNjR6IE05LDIyLjg2YzAuMzUzLDAsMC42NCwwLjI4NywwLjY0LDAuNjRTOS4zNTMsMjQuMTQsOSwyNC4xNHMtMC42NC0wLjI4Ny0wLjY0LTAuNjRTOC42NDcsMjIuODYsOSwyMi44NnomIzEwOyYjOTsgTTUuNjQsMTZjMCwwLjM1My0wLjI4NywwLjY0LTAuNjQsMC42NFM0LjM2LDE2LjM1Myw0LjM2LDE2UzQuNjQ3LDE1LjM2LDUsMTUuMzZTNS42NCwxNS42NDcsNS42NCwxNnogTTguMzYsMTEmIzEwOyYjOTtjMC0wLjM1MywwLjI4Ny0wLjY0LDAuNjQtMC42NFM5LjY0LDEwLjY0Nyw5LjY0LDExUzkuMzUzLDExLjY0LDksMTEuNjRTOC4zNiwxMS4zNTMsOC4zNiwxMXogTTMxLjM2LDE1LjUmIzEwOyYjOTtjMC4wMDItMi4wNDYtMS41MDgtMy45MDktMy43MzQtNC42ODdjMC41MDctMC42OTIsMS4wNDQtMS43ODgsMS4wNDYtMi43NjdjMC4wMDItMS4yMzEtMC41NC0yLjM2NS0xLjUyNi0zLjE5MyYjMTA7JiM5O2MtMC45MTctMC43Ny0yLjE2My0xLjIxMi0zLjQyMS0xLjIxNGgtMC40OGMtMC41NDQtMS4yMzgtMS43NjQtMS45OTgtMy4yNDMtMmMtMC4wMDMsMC0wLjAwNSwwLTAuMDA4LDAmIzEwOyYjOTtjLTAuOTcyLDAtMS44MDgsMC4zMjMtMi40MTgsMC45MzNDMTYuOTY1LDMuMTg1LDE2LjY0Miw0LjAyMywxNi42NCw1djIwLjk5OWMtMC4wMDMsMS45NzYsMS4zNzgsMy4zNTcsMy4zNTksMy4zNjEmIzEwOyYjOTtjMC4wMDMsMCwwLjAwNSwwLDAuMDA3LDBjMS40NzMsMCwyLjY5LTAuNzYsMy4yMzgtMmgwLjQ3OWMwLjAwNCwwLDAuMDA3LDAsMC4wMSwwYzEuMjcxLDAsMi40NzgtMC40MjYsMy4zOTgtMS4xOTkmIzEwOyYjOTtjMC45NzctMC44MiwxLjUxNS0xLjk1LDEuNTE3LTMuMTgyYzAuMDAxLTAuOTk1LTAuNTI2LTIuMDk4LTEuMDI1LTIuNzkxQzI5Ljg0NywxOS40MTgsMzEuMzU3LDE3LjU1NSwzMS4zNiwxNS41eiBNMjAsMTIuMzYmIzEwOyYjOTtjMC4zNTMsMCwwLjY0LDAuMjg3LDAuNjQsMC42NHMtMC4yODcsMC42NC0wLjY0LDAuNjRzLTAuNjQtMC4yODctMC42NC0wLjY0UzE5LjY0NywxMi4zNiwyMCwxMi4zNnogTTI2Ljk0NiwxOS42NGgtMi42NDEmIzEwOyYjOTtjLTAuMTU5LTAuNTc1LTAuNjgxLTEtMS4zMDYtMWMtMC43NSwwLTEuMzYsMC42MS0xLjM2LDEuMzZzMC42MSwxLjM2LDEuMzYsMS4zNmMwLjYyNCwwLDEuMTQ3LTAuNDI1LDEuMzA2LTFoMi41MzMmIzEwOyYjOTtjMC40NzYsMC41NDEsMS4wOTEsMS42OTEsMS4wODksMi42MThjLTAuMDAxLDEuMDE2LTAuNDQ4LDEuOTUtMS4yNiwyLjYzMWMtMC43ODEsMC42NTctMS44NjUsMS4wMS0yLjk0MywxLjAzSDIzJiMxMDsmIzk7Yy0wLjE1MiwwLTAuMjg4LDAuMDk3LTAuMzM5LDAuMjM5Yy0wLjM5MywxLjEwNC0xLjM4NSwxLjc2MS0yLjY1NSwxLjc2MWMtMC4wMDIsMC0wLjAwNCwwLTAuMDA1LDAmIzEwOyYjOTtjLTAuNzgxLTAuMDAxLTEuNDQ1LTAuMjUyLTEuOTE5LTAuNzI1QzE3LjYwOCwyNy40NDEsMTcuMzU4LDI2Ljc4LDE3LjM2LDI2di04LjY0aDIuMjc5djYuMzM0Yy0wLjU3NSwwLjE1OS0xLDAuNjgxLTEsMS4zMDYmIzEwOyYjOTtjMCwwLjc1LDAuNjEsMS4zNiwxLjM2LDEuMzZzMS4zNi0wLjYxLDEuMzYtMS4zNmMwLTAuNjI0LTAuNDI1LTEuMTQ3LTEtMS4zMDZWMTcuMzZoMS42MzljMC4wMDEsMCwwLjAwMiwwLDAuMDAzLDAmIzEwOyYjOTtjMC43OTksMCwxLjM1Ni0wLjU1OSwxLjM1OC0xLjM2di0wLjY0aDIuMzM0YzAuMTU5LDAuNTc1LDAuNjgxLDEsMS4zMDYsMWMwLjc1LDAsMS4zNi0wLjYxLDEuMzYtMS4zNnMtMC42MS0xLjM2LTEuMzYtMS4zNiYjMTA7JiM5O2MtMC42MjUsMC0xLjE0NywwLjQyNS0xLjMwNiwxSDIzLjM2VjguODA1YzAuNTc1LTAuMTU5LDEtMC42ODEsMS0xLjMwNWMwLTAuNzUtMC42MS0xLjM2LTEuMzYtMS4zNnMtMS4zNiwwLjYxLTEuMzYsMS4zNiYjMTA7JiM5O2MwLDAuNjI0LDAuNDI1LDEuMTQ2LDEsMS4zMDVWMTZjMCwwLjQwMS0wLjIzOCwwLjY0MS0wLjYzOCwwLjY0MWMtMC4wMDEsMC0wLjAwMSwwLTAuMDAyLDBoLTQuNjRWNSYjMTA7JiM5O2MwLjAwMS0wLjc4MSwwLjI1Mi0xLjQ0NSwwLjcyNS0xLjkxOGMwLjM5Ny0wLjM5OCwwLjkzMy0wLjYyNywxLjU1NS0wLjY5M3Y5LjMwNWMtMC41NzUsMC4xNTktMSwwLjY4MS0xLDEuMzA1JiMxMDsmIzk7YzAsMC43NSwwLjYxLDEuMzYsMS4zNiwxLjM2czEuMzYtMC42MSwxLjM2LTEuMzZjMC0wLjYyNC0wLjQyNS0xLjE0Ni0xLTEuMzA1di05LjMxYzEuMTAzLDAuMTE1LDEuOTUxLDAuNzQyLDIuMywxLjczNiYjMTA7JiM5O2MwLjA1MSwwLjE0NCwwLjE4OCwwLjI0LDAuMzQsMC4yNGgwLjcyNGMxLjA5MiwwLjAwMSwyLjE3LDAuMzgzLDIuOTU5LDEuMDQ1YzAuODIsMC42ODksMS4yNzEsMS42MjYsMS4yNjksMi42NDEmIzEwOyYjOTtjLTAuMDAxLDAuOTY2LTAuNzE0LDIuMjA5LTEuMjA1LDIuNjk5Yy0wLjA5MiwwLjA5MS0wLjEyNywwLjIyNS0wLjA5NCwwLjM1YzAuMDM0LDAuMTI1LDAuMTMzLDAuMjIyLDAuMjU4LDAuMjU0JiMxMDsmIzk7YzIuMTk4LDAuNTY3LDMuNzMyLDIuMjc0LDMuNzI5LDQuMTUxQzMwLjYzOCwxNy4zNzQsMjkuMTIsMTkuMDcsMjYuOTQ2LDE5LjY0eiBNMjMuNjQsMjBjMCwwLjM1My0wLjI4NywwLjY0LTAuNjQsMC42NCYjMTA7JiM5O3MtMC42NC0wLjI4Ny0wLjY0LTAuNjRzMC4yODctMC42NCwwLjY0LTAuNjRTMjMuNjQsMTkuNjQ3LDIzLjY0LDIweiBNMjAsMjQuMzZjMC4zNTMsMCwwLjY0LDAuMjg3LDAuNjQsMC42NHMtMC4yODcsMC42NC0wLjY0LDAuNjQmIzEwOyYjOTtzLTAuNjQtMC4yODctMC42NC0wLjY0UzE5LjY0NywyNC4zNiwyMCwyNC4zNnogTTIzLDguMTRjLTAuMzUzLDAtMC42NC0wLjI4Ny0wLjY0LTAuNjRTMjIuNjQ3LDYuODYsMjMsNi44NnMwLjY0LDAuMjg3LDAuNjQsMC42NCYjMTA7JiM5O1MyMy4zNTMsOC4xNCwyMyw4LjE0eiBNMjYuMzYsMTVjMC0wLjM1MywwLjI4Ny0wLjY0LDAuNjQtMC42NHMwLjY0LDAuMjg3LDAuNjQsMC42NHMtMC4yODcsMC42NC0wLjY0LDAuNjRTMjYuMzYsMTUuMzUzLDI2LjM2LDE1eiIgaWQ9Im1hY2hpbmUtLWxlYXJuaW5nLS0wMV8xXyIvPiYjeGE7PHJlY3QgaGVpZ2h0PSIzMiIgd2lkdGg9IjMyIiBzdHlsZT0iZmlsbDpub25lOyIgaWQ9Il9UcmFuc3BhcmVudF9SZWN0YW5nbGUiLz4mI3hhOzwvc3ZnPg==;fontColor=#FFFFFF;fontStyle=1;fontFamily=Tahoma;" parent="1" vertex="1">
          <mxGeometry x="1127" y="330" width="40" height="40" as="geometry" />
        </mxCell>
        <mxCell id="baI93Eb9KqTFqQ3-h29e-64" value="Dashboards" style="shape=image;verticalLabelPosition=bottom;labelBackgroundColor=none;verticalAlign=top;aspect=fixed;imageAspect=0;editableCssRules=.*;image=data:image/svg+xml,PHN2ZyB4bWxucz0iaHR0cDovL3d3dy53My5vcmcvMjAwMC9zdmciIGlkPSJMYXllcl8xIiBkYXRhLW5hbWU9IkxheWVyIDEiIHZpZXdCb3g9IjEuMDAwMDAxNDMwNTExNDc0NiAxLjAwMDAwMTQzMDUxMTQ3NDYgNDYgNDYiIGhlaWdodD0iNzY2LjY2NjY2NjY2NjY2NjciIHdpZHRoPSI3NjYuNjY2NjY2NjY2NjY2NyI+PGRlZnM+PHN0eWxlPi5jbHMtMSwuY2xzLTJ7ZmlsbDpub25lO3N0cm9rZTojZmZmZmZmO3N0cm9rZS1saW5lam9pbjpyb3VuZDtzdHJva2Utd2lkdGg6MnB4O30uY2xzLTJ7c3Ryb2tlLWxpbmVjYXA6cm91bmQ7fTwvc3R5bGU+PC9kZWZzPjx0aXRsZS8+PHJlY3QgeT0iMSIgeD0iMSIgd2lkdGg9IjQ2IiB0cmFuc2Zvcm09InRyYW5zbGF0ZSg0OCA0OCkgcm90YXRlKDE4MCkiIHJ5PSI0IiByeD0iNCIgaGVpZ2h0PSI0NiIgY2xhc3M9ImNscy0xIi8+PHJlY3QgeT0iMjIiIHg9IjQiIHdpZHRoPSI3IiBoZWlnaHQ9IjIyIiBjbGFzcz0iY2xzLTIiLz48cmVjdCB5PSIyOCIgeD0iMTUiIHdpZHRoPSI3IiBoZWlnaHQ9IjE2IiBjbGFzcz0iY2xzLTIiLz48cmVjdCB5PSIxOSIgeD0iMjYiIHdpZHRoPSI3IiBoZWlnaHQ9IjI1IiBjbGFzcz0iY2xzLTIiLz48cmVjdCB5PSIyMyIgeD0iMzciIHdpZHRoPSI3IiBoZWlnaHQ9IjIxIiBjbGFzcz0iY2xzLTIiLz48Y2lyY2xlIHI9IjIiIGN5PSIxNCIgY3g9IjciIGNsYXNzPSJjbHMtMiIvPjxjaXJjbGUgcj0iMiIgY3k9IjIwIiBjeD0iMTkiIGNsYXNzPSJjbHMtMiIvPjxjaXJjbGUgcj0iMiIgY3k9IjExIiBjeD0iMzAiIGNsYXNzPSJjbHMtMiIvPjxjaXJjbGUgcj0iMiIgY3k9IjE1IiBjeD0iNDEiIGNsYXNzPSJjbHMtMiIvPjxsaW5lIHkyPSIxOSIgeTE9IjE1IiB4Mj0iMTciIHgxPSI5IiBjbGFzcz0iY2xzLTIiLz48bGluZSB5Mj0iMTIiIHkxPSIxOSIgeDI9IjI4IiB4MT0iMjEiIGNsYXNzPSJjbHMtMiIvPjxsaW5lIHkyPSIxNCIgeTE9IjEyIiB4Mj0iMzkiIHgxPSIzMiIgY2xhc3M9ImNscy0yIi8+PC9zdmc+;fontColor=#FFFFFF;fontStyle=1;fontFamily=Tahoma;" parent="1" vertex="1">
          <mxGeometry x="957" y="250.00000000000003" width="40" height="40" as="geometry" />
        </mxCell>
        <mxCell id="baI93Eb9KqTFqQ3-h29e-65" value="Notebooks" style="shape=image;verticalLabelPosition=bottom;labelBackgroundColor=none;verticalAlign=top;aspect=fixed;imageAspect=0;editableCssRules=.*;image=data:image/svg+xml,PHN2ZyB4bWxucz0iaHR0cDovL3d3dy53My5vcmcvMjAwMC9zdmciIHZpZXdCb3g9IjAgMCAzNCA0NiIgaGVpZ2h0PSI4MDAiIHdpZHRoPSI1OTEuMzA0MzQ3ODI2MDg2OSIgZmlsbD0iI2ZmZiI+JiN4YTsgIDxwYXRoIGZpbGwtcnVsZT0iZXZlbm9kZCIgdHJhbnNmb3JtPSJ0cmFuc2xhdGUoLTcgLTEpIiBkPSJNNDEsNDZoMGExLDEsMCwwLDEtMSwxSDEyYTUsNSwwLDAsMS01LTVWNmE1LDUsMCwwLDEsNS01SDM4YTEsMSwwLDAsMSwxLDFoMFY5aDFhMSwxLDAsMCwxLDEsMWgwWk05LDQySDlhMywzLDAsMCwwLDMsM2gzVjExSDEyQTQuOTYyLDQuOTYyLDAsMCwxLDksOS45NzhaTTM3LDlWM0gxMmEzLDMsMCwwLDAsMCw2Wm0yLDJIMTdWNDVIMzlaTTEyLDdhMSwxLDAsMCwxLDAtMkgzNGExLDEsMCwwLDEsMCwyWiIgZGF0YS1uYW1lPSIxMS5Ob3RlYm9vayIgaWQ9Il8xMS5Ob3RlYm9vayIvPiYjeGE7PC9zdmc+;fontColor=#FFFFFF;fontStyle=1;fontFamily=Tahoma;" parent="1" vertex="1">
          <mxGeometry x="1017" y="330" width="29.55" height="40" as="geometry" />
        </mxCell>
        <mxCell id="baI93Eb9KqTFqQ3-h29e-66" value="Data Files" style="shape=image;verticalLabelPosition=bottom;labelBackgroundColor=none;verticalAlign=top;aspect=fixed;imageAspect=0;editableCssRules=.*;image=data:image/svg+xml,PHN2ZyB4bWxucz0iaHR0cDovL3d3dy53My5vcmcvMjAwMC9zdmciIGZpbGw9Im5vbmUiIHZpZXdCb3g9IjQgMiAxNiAyMCIgaGVpZ2h0PSI2NjYuNjY2NjY2NjY2NjY2NyIgd2lkdGg9IjUzMy4zMzMzMzMzMzMzMzM0Ij4mI3hhOzxwYXRoIHN0cm9rZS1saW5lam9pbj0icm91bmQiIHN0cm9rZS1saW5lY2FwPSJyb3VuZCIgc3Ryb2tlLXdpZHRoPSIyIiBzdHJva2U9IiNmZmYiIGQ9Ik0xOSA5VjE3LjhDMTkgMTguOTIwMSAxOSAxOS40ODAyIDE4Ljc4MiAxOS45MDhDMTguNTkwMyAyMC4yODQzIDE4LjI4NDMgMjAuNTkwMyAxNy45MDggMjAuNzgyQzE3LjQ4MDIgMjEgMTYuOTIwMSAyMSAxNS44IDIxSDguMkM3LjA3OTg5IDIxIDYuNTE5ODQgMjEgNi4wOTIwMiAyMC43ODJDNS43MTU2OSAyMC41OTAzIDUuNDA5NzMgMjAuMjg0MyA1LjIxNzk5IDE5LjkwOEM1IDE5LjQ4MDIgNSAxOC45MjAxIDUgMTcuOFY2LjJDNSA1LjA3OTg5IDUgNC41MTk4NCA1LjIxNzk5IDQuMDkyMDJDNS40MDk3MyAzLjcxNTY5IDUuNzE1NjkgMy40MDk3MyA2LjA5MjAyIDMuMjE3OTlDNi41MTk4NCAzIDcuMDc5OSAzIDguMiAzSDEzTTE5IDlMMTMgM00xOSA5SDE0QzEzLjQ0NzcgOSAxMyA4LjU1MjI4IDEzIDhWMyIvPiYjeGE7PC9zdmc+;fontColor=#FFFFFF;fontStyle=1;fontFamily=Tahoma;" parent="1" vertex="1">
          <mxGeometry x="1181.03" y="150" width="31.95" height="40" as="geometry" />
        </mxCell>
        <mxCell id="baI93Eb9KqTFqQ3-h29e-67" value="Data&#xa;Discoverability" style="shape=image;verticalLabelPosition=bottom;labelBackgroundColor=none;verticalAlign=top;aspect=fixed;imageAspect=0;editableCssRules=.*;image=data:image/svg+xml,PHN2ZyB4bWxucz0iaHR0cDovL3d3dy53My5vcmcvMjAwMC9zdmciIGhlaWdodD0iNTk5Ljk5ODUzNTE1NjI1IiB3aWR0aD0iNTk5Ljk5OTI2NzU3ODEyNSIgaWQ9InN2Zzk3MjQiIHZlcnNpb249IjEuMSIgdmlld0JveD0iMC4wMDA2ODA1NzQ3Mzk4MTc1Mjk5IDAuMDAwNjYxMTYwNDQ3NjM0NzU2NiA1OTkuOTk5MjY3NTc4MTI1IDU5OS45OTg1MzUxNTYyNSI+JiN4YTsgIDxkZWZzIGlkPSJkZWZzOTcyOCIvPiYjeGE7ICAmI3hhOyAgICAmI3hhOyAgICAmI3hhOyAgICAmI3hhOyAgICAmI3hhOyAgICAmI3hhOyAgJiN4YTsgICYjeGE7ICA8ZyBzdHlsZT0ic3Ryb2tlLXdpZHRoOjEuMDUxMDMiIHRyYW5zZm9ybT0ibWF0cml4KDAuOTUxNzMyMDUsMCwwLDAuOTUxMTU3ODcsMTMuOTAxMTc0LDEyLjE2ODc5NCkiIGlkPSJnMTA0NDkiPiYjeGE7ICAgIDxwYXRoIGlkPSJwYXRoMzk3IiBkPSJtIDIwNi4wNDQ5MiwtMTIuNzkyOTY5IGMgLTEyMS4zODA2NzUsMCAtMjIwLjY1MDM4OSw5OS4zNjI4NCAtMjIwLjY1MDM4OSwyMjAuNzgzMTk5IDAsMTIxLjQyMDM3IDk5LjI2OTcxNCwyMjAuNzgzMjEgMjIwLjY1MDM4OSwyMjAuNzgzMjEgMTIxLjM4MDY4LDAgMjIwLjY1MDM5LC05OS4zNjI4NCAyMjAuNjUwMzksLTIyMC43ODMyMSAwLC0xMjEuNDIwMzU5IC05OS4yNjk3MSwtMjIwLjc4MzE5OSAtMjIwLjY1MDM5LC0yMjAuNzgzMTk5IHogbSAwLDg0LjA4MjAzMSBjIDc1LjkwNTIzLDEwZS03IDEzNi41NjY0MSw2MC42ODg1MTggMTM2LjU2NjQxLDEzNi43MDExNjggMCw3Ni4wMTI2NiAtNjAuNjYxMTgsMTM2LjcwMTE4IC0xMzYuNTY2NDEsMTM2LjcwMTE4IC03NS45MDUyMiwwIC0xMzYuNTY4MzU3LC02MC42ODg1MiAtMTM2LjU2ODM1OCwtMTM2LjcwMTE4IDEwZS03LC03Ni4wMTI2NSA2MC42NjMxMzgsLTEzNi43MDExNjggMTM2LjU2ODM1OCwtMTM2LjcwMTE2OCB6IiBzdHlsZT0iY29sb3I6I2ZmZjtmaWxsOiNmZmY7c3Ryb2tlLWxpbmVjYXA6cm91bmQ7c3Ryb2tlLWxpbmVqb2luOnJvdW5kOy1pbmtzY2FwZS1zdHJva2U6bm9uZTtwYWludC1vcmRlcjpzdHJva2UgZmlsbCBtYXJrZXJzIi8+JiN4YTsgICAgPGcgdHJhbnNmb3JtPSJtYXRyaXgoMS4zODA3NTUxLDAsMCwxLjI3MDA4ODgsMjczLjYwMDE0LDI2My45OTc2OCkiIGlkPSJwYXRoMTAwMjYiLz4mI3hhOyAgICA8ZyBzdHlsZT0ic3Ryb2tlLXdpZHRoOjUwLjY5NTEiIHRyYW5zZm9ybT0ibWF0cml4KDEuNTA5MjMwMSwwLDAsMS4zOTU1NTU1LDM2Ljc3NDA0OCwtOS40NTAzOTMzKSIgaWQ9ImcxMTMxNCIvPiYjeGE7ICAgIDxwYXRoIGlkPSJwYXRoNDUzIiBkPSJtIDMzMi4xNTYyNSwyOTIuMTQ2NDggYSA0Mi4wNDEzMDIsNDIuMDQxMzAyIDAgMCAwIC0yOS43MzI0MiwxMi4zMDQ2OSA0Mi4wNDEzMDIsNDIuMDQxMzAyIDAgMCAwIC0wLjAxNzYsNTkuNDU1MDggbCAyNDEuNjM4NjcsMjQxLjc4NzExIGEgNDIuMDQxMzAyLDQyLjA0MTMwMiAwIDAgMCA1OS40NTUwOCwwLjAxNzYgNDIuMDQxMzAyLDQyLjA0MTMwMiAwIDAgMCAwLjAxOTUsLTU5LjQ1NTA4IEwgMzYxLjg3ODkxLDMwNC40NzA3IGEgNDIuMDQxMzAyLDQyLjA0MTMwMiAwIDAgMCAtMjkuNzIyNjYsLTEyLjMyNDIyIHoiIHN0eWxlPSJjb2xvcjojZmZmO2ZpbGw6I2ZmZjtzdHJva2UtbGluZWNhcDpyb3VuZDstaW5rc2NhcGUtc3Ryb2tlOm5vbmUiLz4mI3hhOyAgICA8cGF0aCB0cmFuc2Zvcm09InNjYWxlKDEsLTEpIiBpZD0icGF0aDEwMDkiIGQ9Im0gMzAwLjQ3NjU2LC0yMjMuNzUxOTUgYSAxMC41MTAzNSwxMC41MTAzNSAwIDAgMCAtMTAuNTExNzIsMTAuNTA5NzYgYyAwLDI3LjgyMTY1IC0xMi45MzMwMSw1NC4wMzQwMSAtMzUuMDAzOSw3MC45NDkyMiAtMjIuMDcwODksMTYuOTE1MjIgLTUwLjcyNjg5LDIyLjU4MDIxIC03Ny41NjY0MSwxNS4zMzM5OSBhIDEwLjUxMDM1LDEwLjUxMDM1IDAgMCAwIC0xMi44ODY3Miw3LjQwNjI1IDEwLjUxMDM1LDEwLjUxMDM1IDAgMCAwIDcuNDA4MjEsMTIuODg2NzEgYyAzMy4xNDEzOSw4Ljk0NzYzNCA2OC41ODIxLDEuOTQxMSA5NS44MzIwMywtMTguOTQzMzYgMjcuMjQ5OTMsLTIwLjg4NDQ1IDQzLjIzODI4LC01My4yOTA5OSA0My4yMzgyOCwtODcuNjMyODEgYSAxMC41MTAzNSwxMC41MTAzNSAwIDAgMCAtMTAuNTA5NzcsLTEwLjUwOTc2IHoiIHN0eWxlPSJjb2xvcjojZmZmO2ZpbGw6I2ZmZjtzdHJva2UtbGluZWNhcDpyb3VuZDtzdHJva2UtbGluZWpvaW46cm91bmQ7LWlua3NjYXBlLXN0cm9rZTpub25lO3BhaW50LW9yZGVyOnN0cm9rZSBmaWxsIG1hcmtlcnMiLz4mI3hhOyAgPC9nPiYjeGE7PC9zdmc+;fontColor=#FFFFFF;fontStyle=1;fontFamily=Tahoma;" parent="1" vertex="1">
          <mxGeometry x="1069.6100000000001" y="90.00000000000003" width="40" height="40" as="geometry" />
        </mxCell>
        <mxCell id="baI93Eb9KqTFqQ3-h29e-69" value="Data Marketplace" style="shape=image;verticalLabelPosition=bottom;labelBackgroundColor=none;verticalAlign=top;aspect=fixed;imageAspect=0;editableCssRules=.*;image=data:image/svg+xml,PHN2ZyB4bWxucz0iaHR0cDovL3d3dy53My5vcmcvMjAwMC9zdmciIHZpZXdCb3g9IjMuMTE1MjEwNTMzMTQyMDkgNSAyNS44NTM1NTM3NzE5NzI2NTYgMjMiIGZpbGw9IiNmZmYiIHdpZHRoPSIyNS44NTM1NTM3NzE5NzI2NTYiIGhlaWdodD0iMjMiPjx0aXRsZS8+PHBhdGggZD0iTTI4LjkwOCwxMi41NzFhLjk1Mi45NTIsMCwwLDAtLjEtLjE2NiwzLjE0NiwzLjE0NiwwLDAsMC0uMTE4LS40MjNjLS4wMDYtLjAxNi0uMDEyLS4wMzItLjAyLS4wNDhMMjUuOTE3LDUuNkExLDEsMCwwLDAsMjUsNUg3YTEsMSwwLDAsMC0uOTE3LjZsLTIuNzcsNi4zODFhMi44NDEsMi44NDEsMCwwLDAsMCwyLjA4M0E0Ljc1LDQuNzUsMCwwLDAsNiwxNi42MDlWMjdhMSwxLDAsMCwwLDEsMUgyNWExLDEsMCwwLDAsMS0xVjE2LjYwOWE0Ljc0OSw0Ljc0OSwwLDAsMCwyLjY4Ny0yLjU0MywyLjYxNCwyLjYxNCwwLDAsMCwuMTYzLS42NTVBMS4wNTcsMS4wNTcsMCwwLDAsMjguOTA4LDEyLjU3MVpNMTMsMjZWMjBoMnY2Wm00LDBWMjBoMnY2Wm03LDBIMjFWMTlhMSwxLDAsMCwwLTEtMUgxMmExLDEsMCwwLDAtMSwxdjdIOFYxN2E1LjIsNS4yLDAsMCwwLDQtMS44LDUuMzM5LDUuMzM5LDAsMCwwLDgsMEE1LjIsNS4yLDAsMCwwLDI0LDE3Wm0yLjgzNy0xMi43QTMuMDE1LDMuMDE1LDAsMCwxLDI0LDE1YTIuNzg4LDIuNzg4LDAsMCwxLTMtMi41LDEsMSwwLDAsMC0yLDBBMi43ODgsMi43ODgsMCwwLDEsMTYsMTVhMi43ODgsMi43ODgsMCwwLDEtMy0yLjUsMSwxLDAsMCwwLTIsMEEyLjc4OCwyLjc4OCwwLDAsMSw4LDE1YTMuMDE2LDMuMDE2LDAsMCwxLTIuODM4LTEuNy44MzYuODM2LDAsMCwxLDAtLjU3MUw3LjY1Niw3SDI0LjM0NGwyLjQ3Nyw1LjdBLjg1OC44NTgsMCwwLDEsMjYuODM3LDEzLjNaIi8+PC9zdmc+;fontColor=#FFFFFF;fontStyle=1;fontFamily=Tahoma;" parent="1" vertex="1">
          <mxGeometry x="1064.3899999999999" y="223.25000000000003" width="45.22" height="40" as="geometry" />
        </mxCell>
        <mxCell id="baI93Eb9KqTFqQ3-h29e-70" value="" style="group" parent="1" vertex="1" connectable="0">
          <mxGeometry x="384" y="265" width="89.68" height="45" as="geometry" />
        </mxCell>
        <mxCell id="baI93Eb9KqTFqQ3-h29e-71" value="" style="html=1;shadow=0;dashed=0;align=center;verticalAlign=middle;shape=mxgraph.arrows2.uTurnArrow;dy=2.38;arrowHead=23.14;dx2=11.11;fillColor=#666666;strokeColor=none;fontColor=#ffffff;" parent="baI93Eb9KqTFqQ3-h29e-70" vertex="1">
          <mxGeometry width="22.68" height="35" as="geometry" />
        </mxCell>
        <mxCell id="baI93Eb9KqTFqQ3-h29e-72" value="&lt;strong style=&quot;--tw-border-spacing-x: 0; --tw-border-spacing-y: 0; --tw-translate-x: 0; --tw-translate-y: 0; --tw-rotate: 0; --tw-skew-x: 0; --tw-skew-y: 0; --tw-scale-x: 1; --tw-scale-y: 1; --tw-pan-x: ; --tw-pan-y: ; --tw-pinch-zoom: ; --tw-scroll-snap-strictness: proximity; --tw-gradient-from-position: ; --tw-gradient-via-position: ; --tw-gradient-to-position: ; --tw-ordinal: ; --tw-slashed-zero: ; --tw-numeric-figure: ; --tw-numeric-spacing: ; --tw-numeric-fraction: ; --tw-ring-inset: ; --tw-ring-offset-width: 0px; --tw-ring-offset-color: light-dark(#fff, #000000); --tw-ring-color: light-dark(rgba(59,130,246,.5), #4c89ec); --tw-ring-offset-shadow: 0 0 #0000; --tw-ring-shadow: 0 0 #0000; --tw-shadow: 0 0 #0000; --tw-shadow-colored: 0 0 #0000; --tw-blur: ; --tw-brightness: ; --tw-contrast: ; --tw-grayscale: ; --tw-hue-rotate: ; --tw-invert: ; --tw-saturate: ; --tw-sepia: ; --tw-drop-shadow: ; --tw-backdrop-blur: ; --tw-backdrop-brightness: ; --tw-backdrop-contrast: ; --tw-backdrop-grayscale: ; --tw-backdrop-hue-rotate: ; --tw-backdrop-invert: ; --tw-backdrop-opacity: ; --tw-backdrop-saturate: ; --tw-backdrop-sepia: ; --tw-contain-size: ; --tw-contain-layout: ; --tw-contain-paint: ; --tw-contain-style: ; box-sizing: border-box; border: 0px solid rgb(229, 231, 235); scrollbar-color: auto; scrollbar-width: auto; font-style: normal; font-variant-ligatures: normal; font-variant-caps: normal; letter-spacing: normal; orphans: 2; text-indent: 0px; text-transform: none; widows: 2; word-spacing: 0px; -webkit-text-stroke-width: 0px; white-space: normal; text-decoration-thickness: initial; text-decoration-style: initial; text-decoration-color: initial;&quot;&gt;META DATA&lt;/strong&gt;" style="text;whiteSpace=wrap;html=1;labelBackgroundColor=none;fontSize=12;fontStyle=1;fontFamily=Tahoma;verticalAlign=middle;align=center;fontColor=#808080;" parent="baI93Eb9KqTFqQ3-h29e-70" vertex="1">
          <mxGeometry x="9.319999999999993" y="10" width="72" height="20" as="geometry" />
        </mxCell>
        <mxCell id="baI93Eb9KqTFqQ3-h29e-73" value="" style="html=1;shadow=0;dashed=0;align=center;verticalAlign=middle;shape=mxgraph.arrows2.uTurnArrow;dy=2.38;arrowHead=23.14;dx2=11.11;fillColor=#666666;strokeColor=none;fontColor=#ffffff;direction=west;" parent="baI93Eb9KqTFqQ3-h29e-70" vertex="1">
          <mxGeometry x="67" y="10" width="22.68" height="35" as="geometry" />
        </mxCell>
        <mxCell id="baI93Eb9KqTFqQ3-h29e-74" value="DATA" style="html=1;shadow=0;dashed=0;align=center;verticalAlign=middle;shape=mxgraph.arrows2.arrow;dy=0;dx=10;notch=0;direction=north;fillColor=#666666;strokeColor=none;fontColor=#FFFFFF;fontFamily=Tahoma;fontStyle=1;spacing=0;spacingTop=4;" parent="1" vertex="1">
          <mxGeometry x="401.28" y="362.5" width="50.44" height="25" as="geometry" />
        </mxCell>
        <mxCell id="baI93Eb9KqTFqQ3-h29e-75" value="DATA" style="html=1;shadow=0;dashed=0;align=center;verticalAlign=middle;shape=mxgraph.arrows2.arrow;dy=0;dx=10;notch=0;direction=north;fillColor=#666666;strokeColor=none;fontColor=#FFFFFF;fontFamily=Tahoma;fontStyle=1;spacing=0;spacingTop=4;" parent="1" vertex="1">
          <mxGeometry x="401.28" y="450" width="50.44" height="25" as="geometry" />
        </mxCell>
        <mxCell id="IeD59A_C2ISS3C6xlSpZ-1" value="" style="shape=image;verticalLabelPosition=bottom;labelBackgroundColor=none;verticalAlign=top;aspect=fixed;imageAspect=0;editableCssRules=.*;image=data:image/svg+xml,PHN2ZyB4bWxucz0iaHR0cDovL3d3dy53My5vcmcvMjAwMC9zdmciIHZpZXdCb3g9IjEuMTU0OTk5OTcxMzg5NzcwNSAwLjUgMTUuNjkwMDAxNDg3NzMxOTM0IDE3IiBoZWlnaHQ9IjE3IiB3aWR0aD0iMTUuNjkwMDAxNDg3NzMxOTM0IiBpZD0iYjFlNzE0NzktMjEzOC00NGUwLWFkZjAtMDJmZTlmZWQ1YzFlIj48cGF0aCBmaWxsPSIjZmYzNjIxIiBkPSJNMS4xNTUsNC45M3YuNTEyTDksOS44NjhsNy4wMDYtMy45NTcsMCwxLjZMOSwxMS40OTEsMS41NSw3LjI1OGwtLjM5NS4yMlYxMC41NEw5LDE0Ljk1NWw3LjAwNi0zLjk0MiwwLDEuNTg2TDksMTYuNTgxLDEuNTUsMTIuMzQ3bC0uMzk1LjIydi41MTlMOSwxNy41bDcuODQ1LTQuNDE0VjEwLjAyMWwtLjQtLjIxOEw5LDE0LjAzNiwxLjk5MiwxMC4wNTRWOC40NzZMOSwxMi40MTQsMTYuODQ1LDhWNC45NzhsLS40LS4yMTlMOSw4Ljk5MywyLjM1Miw1LjIxNSw5LDEuNDZsNS40NzYsMy4wOTQuNDc5LS4yNjlWMy44NjNMOSwuNVoiLz48L3N2Zz4=;" vertex="1" parent="1">
          <mxGeometry x="411.72" y="218.75" width="40" height="42.5" as="geometry" />
        </mxCell>
      </root>
    </mxGraphModel>
  </diagram>
  <diagram id="YwlDxU0AKNfWyEfmR1lF" name="Medallion Arch">
    <mxGraphModel dx="1205" dy="743" grid="1" gridSize="10" guides="1" tooltips="1" connect="1" arrows="1" fold="1" page="1" pageScale="1" pageWidth="1169" pageHeight="827" background="none" math="0" shadow="0">
      <root>
        <mxCell id="0" />
        <mxCell id="1" parent="0" />
        <mxCell id="CSK182GglYd2x8Q4G_cj-2" value="Data flow architecture" style="text;whiteSpace=wrap;fontSize=20;fontStyle=1" parent="1" vertex="1">
          <mxGeometry x="30" y="18.75" width="220" height="40" as="geometry" />
        </mxCell>
        <mxCell id="1G0nagz6v2ccPys6KGnb-17" style="edgeStyle=orthogonalEdgeStyle;rounded=0;orthogonalLoop=1;jettySize=auto;html=1;entryX=0;entryY=0.5;entryDx=0;entryDy=0;" parent="1" source="A09IK0mkJr3Xp2zA0tw4-23" target="A09IK0mkJr3Xp2zA0tw4-24" edge="1">
          <mxGeometry relative="1" as="geometry" />
        </mxCell>
        <mxCell id="A09IK0mkJr3Xp2zA0tw4-23" value="Data Sources" style="swimlane;fillColor=#647687;fontColor=#ffffff;strokeColor=#314354;fontSize=14;startSize=36;fillStyle=auto;" parent="1" vertex="1">
          <mxGeometry x="30" y="60" width="110" height="670" as="geometry">
            <mxRectangle x="400" y="130" width="110" height="30" as="alternateBounds" />
          </mxGeometry>
        </mxCell>
        <mxCell id="A09IK0mkJr3Xp2zA0tw4-9" value="" style="shape=image;verticalLabelPosition=bottom;labelBackgroundColor=default;verticalAlign=top;aspect=fixed;imageAspect=0;editableCssRules=.*;image=data:image/svg+xml,PHN2ZyB4bWxuczp4bGluaz0iaHR0cDovL3d3dy53My5vcmcvMTk5OS94bGluayIgeG1sbnM9Imh0dHA6Ly93d3cudzMub3JnLzIwMDAvc3ZnIiB4bWw6c3BhY2U9InByZXNlcnZlIiBzdHlsZT0iZW5hYmxlLWJhY2tncm91bmQ6bmV3IDAgMCAyNjIgMTg0OyIgdmlld0JveD0iMS4wOTk5OTg0NzQxMjEwOTM4IDEgMjU5Ljg5OTk5Mzg5NjQ4NDQgMTgxLjk5OTk4NDc0MTIxMDk0IiB5PSIwcHgiIHg9IjBweCIgaWQ9IkxheWVyXzEiIHZlcnNpb249IjEuMSIgd2lkdGg9IjI1OS44OTk5OTM4OTY0ODQ0IiBoZWlnaHQ9IjE4MS45OTk5ODQ3NDEyMTA5NCI+JiN4YTs8c3R5bGUgdHlwZT0idGV4dC9jc3MiPiYjeGE7CS5zdDB7ZmlsbDojMDBBMUUwO30mI3hhOwkuc3Qxe2ZpbGw6I0ZGRkZGRjt9JiN4YTs8L3N0eWxlPiYjeGE7PHRpdGxlPmxvZ28tc2FsZXNmb3JjZTwvdGl0bGU+JiN4YTs8ZGVzYz5DcmVhdGVkIHdpdGggU2tldGNoLjwvZGVzYz4mI3hhOzxnIGlkPSJUZXN0LUIiPiYjeGE7CTxnIGlkPSJNb2JpbGUtTmF2LS0tVGVzdC1CLV94MjhfMF94MjlfIj4mI3hhOwkJPGcgaWQ9Ikdyb3VwIj4mI3hhOwkJCTxnIGlkPSJsb2dvLXNhbGVzZm9yY2UiPiYjeGE7CQkJCTxwYXRoIGQ9Ik0xMDkuMiwyMC45YzguNC04LjcsMjAuMS0xNC4yLDMzLTE0LjJjMTcuMiwwLDMyLjEsOS42LDQwLjEsMjMuOGM2LjktMy4xLDE0LjYtNC44LDIyLjctNC44JiMxMDsmIzk7JiM5OyYjOTsmIzk7JiM5O2MzMSwwLDU2LDI1LjMsNTYsNTYuNXMtMjUuMSw1Ni41LTU2LDU2LjVjLTMuOCwwLTcuNS0wLjQtMTEtMS4xYy03LDEyLjUtMjAuNCwyMS0zNS44LDIxYy02LjQsMC0xMi41LTEuNS0xNy45LTQuMSYjMTA7JiM5OyYjOTsmIzk7JiM5OyYjOTtjLTcuMSwxNi43LTIzLjcsMjguNS00MywyOC41Yy0yMC4xLDAtMzcuMy0xMi43LTQzLjktMzAuNmMtMi45LDAuNi01LjksMC45LTguOSwwLjljLTI0LDAtNDMuNC0xOS42LTQzLjQtNDMuOSYjMTA7JiM5OyYjOTsmIzk7JiM5OyYjOTtjMC0xNi4yLDguNy0zMC40LDIxLjctMzhjLTIuNy02LjEtNC4yLTEyLjktNC4yLTIwLjFDMTguNSwyMy42LDQxLjIsMSw2OSwxQzg1LjQsMSwxMDAsOC44LDEwOS4yLDIwLjkiIGNsYXNzPSJzdDAiIGlkPSJGaWxsLTEiLz4mI3hhOwkJCQk8cGF0aCBkPSJNMzguNyw5NS40bDEuMS0yLjljMC4yLTAuNSwwLjUtMC4zLDAuNy0wLjJjMC4zLDAuMiwwLjUsMC4zLDAuOSwwLjZjMy4xLDIsNiwyLDYuOSwyJiMxMDsmIzk7JiM5OyYjOTsmIzk7JiM5O2MyLjMsMCwzLjgtMS4yLDMuOC0yLjl2LTAuMWMwLTEuOC0yLjItMi41LTQuOC0zLjNsLTAuNi0wLjJjLTMuNS0xLTcuMy0yLjUtNy4zLTYuOXYtMC4xYzAtNC4yLDMuNC03LjIsOC4zLTcuMmwwLjUsMCYjMTA7JiM5OyYjOTsmIzk7JiM5OyYjOTtjMi45LDAsNS42LDAuOCw3LjYsMi4xYzAuMiwwLjEsMC40LDAuMywwLjMsMC42Yy0wLjEsMC4zLTEsMi42LTEuMSwyLjljLTAuMiwwLjUtMC43LDAuMi0wLjcsMC4yYy0xLjgtMS00LjUtMS43LTYuOC0xLjcmIzEwOyYjOTsmIzk7JiM5OyYjOTsmIzk7Yy0yLjEsMC0zLjQsMS4xLTMuNCwyLjZ2MC4xYzAsMS43LDIuMywyLjUsNC45LDMuM2wwLjUsMC4xYzMuNSwxLjEsNy4yLDIuNiw3LjIsNi45djAuMWMwLDQuNi0zLjMsNy40LTguNiw3LjQmIzEwOyYjOTsmIzk7JiM5OyYjOTsmIzk7Yy0yLjYsMC01LjEtMC40LTcuOC0xLjhjLTAuNS0wLjMtMS0wLjUtMS41LTAuOUMzOC43LDk1LjksMzguNSw5NS44LDM4LjcsOTUuNHogTTExNi43LDk1LjRsMS4xLTIuOWMwLjItMC41LDAuNi0wLjMsMC43LTAuMiYjMTA7JiM5OyYjOTsmIzk7JiM5OyYjOTtjMC4zLDAuMiwwLjUsMC4zLDAuOSwwLjZjMy4xLDIsNiwyLDYuOSwyYzIuMywwLDMuOC0xLjIsMy44LTIuOXYtMC4xYzAtMS44LTIuMi0yLjUtNC44LTMuM2wtMC42LTAuMmMtMy41LTEtNy4zLTIuNS03LjMtNi45JiMxMDsmIzk7JiM5OyYjOTsmIzk7JiM5O3YtMC4xYzAtNC4yLDMuNC03LjIsOC4zLTcuMmwwLjUsMGMyLjksMCw1LjYsMC44LDcuNiwyLjFjMC4yLDAuMSwwLjQsMC4zLDAuMywwLjZjLTAuMSwwLjMtMSwyLjYtMS4xLDIuOSYjMTA7JiM5OyYjOTsmIzk7JiM5OyYjOTtjLTAuMiwwLjUtMC43LDAuMi0wLjcsMC4yYy0xLjgtMS00LjUtMS43LTYuOC0xLjdjLTIuMSwwLTMuNCwxLjEtMy40LDIuNnYwLjFjMCwxLjcsMi4zLDIuNSw0LjksMy4zbDAuNSwwLjEmIzEwOyYjOTsmIzk7JiM5OyYjOTsmIzk7YzMuNSwxLjEsNy4yLDIuNiw3LjIsNi45djAuMWMwLDQuNi0zLjMsNy40LTguNiw3LjRjLTIuNiwwLTUuMS0wLjQtNy44LTEuOGMtMC41LTAuMy0xLTAuNS0xLjUtMC45JiMxMDsmIzk7JiM5OyYjOTsmIzk7JiM5O0MxMTYuOCw5NS45LDExNi42LDk1LjgsMTE2LjcsOTUuNHogTTE3NC41LDgxLjdjMC40LDEuNSwwLjcsMy4xLDAuNyw0LjhzLTAuMiwzLjMtMC43LDQuOGMtMC40LDEuNS0xLjEsMi44LTIsMy45JiMxMDsmIzk7JiM5OyYjOTsmIzk7JiM5O2MtMC45LDEuMS0yLjEsMi0zLjQsMi42Yy0xLjQsMC42LTMsMC45LTQuOCwwLjljLTEuOCwwLTMuNC0wLjMtNC44LTAuOWMtMS40LTAuNi0yLjUtMS41LTMuNC0yLjZjLTAuOS0xLjEtMS42LTIuNC0yLTMuOSYjMTA7JiM5OyYjOTsmIzk7JiM5OyYjOTtjLTAuNC0xLjUtMC43LTMuMS0wLjctNC44YzAtMS43LDAuMi0zLjMsMC43LTQuOGMwLjQtMS41LDEuMS0yLjgsMi0zLjljMC45LTEuMSwyLjEtMiwzLjQtMi42YzEuNC0wLjYsMy0xLDQuOC0xJiMxMDsmIzk7JiM5OyYjOTsmIzk7JiM5O2MxLjgsMCwzLjQsMC4zLDQuOCwxYzEuNCwwLjYsMi41LDEuNSwzLjQsMi42QzE3My40LDc4LjksMTc0LjEsODAuMiwxNzQuNSw4MS43eiBNMTcwLDg2LjRjMC0yLjYtMC41LTQuNi0xLjQtNiYjMTA7JiM5OyYjOTsmIzk7JiM5OyYjOTtjLTAuOS0xLjQtMi40LTIuMS00LjMtMi4xYy0yLDAtMy40LDAuNy00LjMsMi4xYy0wLjksMS40LTEuNCwzLjQtMS40LDZjMCwyLjYsMC41LDQuNiwxLjQsNi4xYzAuOSwxLjQsMi4zLDIuMSw0LjMsMi4xJiMxMDsmIzk7JiM5OyYjOTsmIzk7JiM5O2MyLDAsMy40LTAuNyw0LjMtMi4xQzE2OS42LDkxLjEsMTcwLDg5LDE3MCw4Ni40eiBNMjExLjEsOTMuOWwxLjEsM2MwLjEsMC40LTAuMiwwLjUtMC4yLDAuNWMtMS43LDAuNy00LDEuMS02LjMsMS4xJiMxMDsmIzk7JiM5OyYjOTsmIzk7JiM5O2MtMy45LDAtNi44LTEuMS04LjgtMy4zYy0yLTIuMi0zLTUuMi0zLTguOWMwLTEuNywwLjItMy4zLDAuNy00LjhjMC41LTEuNSwxLjItMi44LDIuMi0zLjljMS0xLjEsMi4yLTIsMy42LTIuNiYjMTA7JiM5OyYjOTsmIzk7JiM5OyYjOTtjMS40LTAuNiwzLjEtMSw1LTFjMS4zLDAsMi40LDAuMSwzLjMsMC4yYzEsMC4yLDIuNCwwLjUsMywwLjhjMC4xLDAsMC40LDAuMiwwLjMsMC41Yy0wLjQsMS4yLTAuNywyLTEuMSwzJiMxMDsmIzk7JiM5OyYjOTsmIzk7JiM5O2MtMC4yLDAuNS0wLjUsMC4zLTAuNSwwLjNjLTEuNS0wLjUtMi45LTAuNy00LjctMC43Yy0yLjIsMC0zLjksMC43LTQuOSwyLjJjLTEuMSwxLjQtMS43LDMuMy0xLjcsNS45YzAsMi44LDAuNyw0LjgsMS45LDYuMSYjMTA7JiM5OyYjOTsmIzk7JiM5OyYjOTtjMS4yLDEuMywyLjksMS45LDUuMSwxLjljMC45LDAsMS43LTAuMSwyLjQtMC4yYzAuNy0wLjEsMS40LTAuMywyLjEtMC42QzIxMC41LDkzLjYsMjEwLjksOTMuNSwyMTEuMSw5My45eiBNMjMzLjgsODAuOCYjMTA7JiM5OyYjOTsmIzk7JiM5OyYjOTtjMSwzLjQsMC41LDYuMywwLjQsNi41YzAsMC40LTAuNCwwLjQtMC40LDAuNGwtMTUuMSwwYzAuMSwyLjMsMC42LDMuOSwxLjgsNWMxLjEsMS4xLDIuOCwxLjgsNS4yLDEuOGMzLjYsMCw1LjEtMC43LDYuMi0xLjEmIzEwOyYjOTsmIzk7JiM5OyYjOTsmIzk7YzAsMCwwLjQtMC4xLDAuNiwwLjNsMSwyLjhjMC4yLDAuNSwwLDAuNi0wLjEsMC43Yy0wLjksMC41LTMuMiwxLjUtNy42LDEuNWMtMi4xLDAtNC0wLjMtNS41LTAuOWMtMS41LTAuNi0yLjgtMS40LTMuOC0yLjUmIzEwOyYjOTsmIzk7JiM5OyYjOTsmIzk7Yy0xLTEuMS0xLjctMi40LTIuMi0zLjhjLTAuNS0xLjUtMC43LTMuMS0wLjctNC44YzAtMS43LDAuMi0zLjMsMC43LTQuOGMwLjQtMS41LDEuMS0yLjgsMi0zLjljMC45LTEuMSwyLjEtMiwzLjUtMi42JiMxMDsmIzk7JiM5OyYjOTsmIzk7JiM5O2MxLjQtMC43LDMuMS0xLDUtMWMxLjYsMCwzLjEsMC4zLDQuMywwLjljMC45LDAuNCwxLjksMS4xLDIuOSwyLjJDMjMyLjUsNzcuOSwyMzMuNCw3OS40LDIzMy44LDgwLjh6IE0yMTguOCw4NGgxMC43JiMxMDsmIzk7JiM5OyYjOTsmIzk7JiM5O2MtMC4xLTEuNC0wLjQtMi42LTEtMy42Yy0wLjktMS40LTIuMi0yLjItNC4yLTIuMmMtMiwwLTMuNCwwLjgtNC4zLDIuMkMyMTkuNCw4MS4zLDIxOS4xLDgyLjUsMjE4LjgsODR6IE0xMTMuMSw4MC44JiMxMDsmIzk7JiM5OyYjOTsmIzk7JiM5O2MxLDMuNCwwLjUsNi4zLDAuNSw2LjVjMCwwLjQtMC40LDAuNC0wLjQsMC40bC0xNS4xLDBjMC4xLDIuMywwLjYsMy45LDEuOCw1YzEuMSwxLjEsMi44LDEuOCw1LjIsMS44YzMuNiwwLDUuMS0wLjcsNi4yLTEuMSYjMTA7JiM5OyYjOTsmIzk7JiM5OyYjOTtjMCwwLDAuNC0wLjEsMC42LDAuM2wxLDIuOGMwLjIsMC41LDAsMC42LTAuMSwwLjdjLTAuOSwwLjUtMy4yLDEuNS03LjYsMS41Yy0yLjEsMC00LTAuMy01LjUtMC45Yy0xLjUtMC42LTIuOC0xLjQtMy44LTIuNSYjMTA7JiM5OyYjOTsmIzk7JiM5OyYjOTtjLTEtMS4xLTEuNy0yLjQtMi4yLTMuOGMtMC41LTEuNS0wLjctMy4xLTAuNy00LjhjMC0xLjcsMC4yLTMuMywwLjctNC44YzAuNC0xLjUsMS4xLTIuOCwyLTMuOWMwLjktMS4xLDIuMS0yLDMuNS0yLjYmIzEwOyYjOTsmIzk7JiM5OyYjOTsmIzk7YzEuNC0wLjcsMy4xLTEsNS0xYzEuNiwwLDMuMSwwLjMsNC4zLDAuOWMwLjksMC40LDEuOSwxLjEsMi45LDIuMkMxMTEuOCw3Ny45LDExMi44LDc5LjQsMTEzLjEsODAuOHogTTk4LjEsODRoMTAuOCYjMTA7JiM5OyYjOTsmIzk7JiM5OyYjOTtjLTAuMS0xLjQtMC40LTIuNi0xLTMuNmMtMC45LTEuNC0yLjItMi4yLTQuMi0yLjJjLTIsMC0zLjQsMC44LTQuMywyLjJDOTguNyw4MS4zLDk4LjQsODIuNSw5OC4xLDg0eiBNNzEuNiw4My4yJiMxMDsmIzk7JiM5OyYjOTsmIzk7JiM5O2MwLDAsMS4yLDAuMSwyLjUsMC4zdi0wLjZjMC0yLTAuNC0zLTEuMi0zLjZjLTAuOC0wLjYtMi4xLTEtMy43LTFjMCwwLTMuNywwLTYuNiwxLjVjLTAuMSwwLjEtMC4yLDAuMS0wLjIsMC4xJiMxMDsmIzk7JiM5OyYjOTsmIzk7JiM5O3MtMC40LDAuMS0wLjUtMC4ybC0xLjEtMi45Yy0wLjItMC40LDAuMS0wLjYsMC4xLTAuNmMxLjQtMS4xLDQuNi0xLjcsNC42LTEuN2MxLjEtMC4yLDIuOS0wLjQsNC0wLjRjMywwLDUuMywwLjcsNi45LDIuMSYjMTA7JiM5OyYjOTsmIzk7JiM5OyYjOTtjMS42LDEuNCwyLjQsMy42LDIuNCw2LjdsMCwxMy44YzAsMCwwLDAuNC0wLjMsMC41YzAsMC0wLjYsMC4yLTEuMSwwLjNjLTAuNSwwLjEtMi4zLDAuNS0zLjgsMC43Yy0xLjUsMC4zLTMsMC40LTQuNiwwLjQmIzEwOyYjOTsmIzk7JiM5OyYjOTsmIzk7Yy0xLjUsMC0yLjgtMC4xLTQtMC40Yy0xLjItMC4zLTIuMi0wLjctMy4xLTEuM2MtMC44LTAuNi0xLjUtMS40LTItMi40Yy0wLjUtMC45LTAuNy0yLjEtMC43LTMuNGMwLTEuMywwLjMtMi41LDAuOC0zLjUmIzEwOyYjOTsmIzk7JiM5OyYjOTsmIzk7YzAuNS0xLDEuMy0xLjgsMi4yLTIuNWMwLjktMC43LDItMS4xLDMuMS0xLjVjMS4yLTAuMywyLjQtMC41LDMuNy0wLjVDNzAuMiw4My4yLDcxLDgzLjIsNzEuNiw4My4yeiBNNjUuNiw5My44JiMxMDsmIzk7JiM5OyYjOTsmIzk7JiM5O2MwLDAsMS40LDEuMSw0LjQsMC45YzIuMi0wLjEsNC4xLTAuNSw0LjEtMC41di02LjljMCwwLTEuOS0wLjMtNC4xLTAuM2MtMy4xLDAtNC40LDEuMS00LjQsMS4xYy0wLjksMC42LTEuMywxLjYtMS4zLDIuOSYjMTA7JiM5OyYjOTsmIzk7JiM5OyYjOTtjMCwwLjgsMC4yLDEuNSwwLjUsMkM2NC45LDkzLjIsNjUsOTMuNCw2NS42LDkzLjh6IE0xOTMuMSw3NS41Yy0wLjEsMC40LTAuOSwyLjUtMS4xLDMuMmMtMC4xLDAuMy0wLjMsMC40LTAuNiwwLjQmIzEwOyYjOTsmIzk7JiM5OyYjOTsmIzk7YzAsMC0wLjktMC4yLTEuNy0wLjJjLTAuNSwwLTEuMywwLjEtMiwwLjNjLTAuNywwLjItMS4zLDAuNi0xLjksMS4xYy0wLjYsMC41LTEsMS4zLTEuMywyLjJjLTAuMywwLjktMC41LDIuNC0wLjUsNHYxMS4yJiMxMDsmIzk7JiM5OyYjOTsmIzk7JiM5O2MwLDAuMy0wLjIsMC41LTAuNSwwLjVoLTRjLTAuMywwLTAuNS0wLjItMC41LTAuNVY3NS4yYzAtMC4zLDAuMi0wLjUsMC40LTAuNWgzLjljMC4zLDAsMC40LDAuMiwwLjQsMC41Vjc3JiMxMDsmIzk7JiM5OyYjOTsmIzk7JiM5O2MwLjYtMC44LDEuNi0xLjUsMi41LTEuOWMwLjktMC40LDItMC43LDMuOS0wLjZjMSwwLjEsMi4zLDAuMywyLjUsMC40QzE5Myw3NSwxOTMuMiw3NS4xLDE5My4xLDc1LjV6IE0xNTYsNjUuMSYjMTA7JiM5OyYjOTsmIzk7JiM5OyYjOTtjMC4xLDAsMC40LDAuMiwwLjMsMC41bC0xLjIsMy4yYy0wLjEsMC4yLTAuMiwwLjQtMC43LDAuMmMtMC4xLDAtMC4zLTAuMS0wLjgtMC4yYy0wLjMtMC4xLTAuOC0wLjEtMS4yLTAuMSYjMTA7JiM5OyYjOTsmIzk7JiM5OyYjOTtjLTAuNiwwLTEuMSwwLjEtMS42LDAuMmMtMC41LDAuMS0wLjksMC40LTEuMywwLjhjLTAuNCwwLjQtMC44LDAuOS0xLjEsMS42Yy0wLjYsMS42LTAuOCwzLjMtMC44LDMuNGg0LjgmIzEwOyYjOTsmIzk7JiM5OyYjOTsmIzk7YzAuNCwwLDAuNSwwLjIsMC41LDAuNWwtMC42LDMuMWMtMC4xLDAuNS0wLjUsMC40LTAuNSwwLjRoLTVMMTQzLjYsOThjLTAuNCwyLTAuOCwzLjctMS4zLDUuMWMtMC41LDEuNC0xLjEsMi40LTIsMy40JiMxMDsmIzk7JiM5OyYjOTsmIzk7JiM5O2MtMC44LDAuOS0xLjcsMS42LTIuOCwxLjljLTEsMC40LTIuMywwLjYtMy43LDAuNmMtMC43LDAtMS40LDAtMi4yLTAuMmMtMC42LTAuMS0wLjktMC4yLTEuNC0wLjRjLTAuMi0wLjEtMC4zLTAuMy0wLjItMC42JiMxMDsmIzk7JiM5OyYjOTsmIzk7JiM5O2MwLjEtMC4zLDEtMi43LDEuMS0zLjFjMC4yLTAuNCwwLjUtMC4yLDAuNS0wLjJjMC4zLDAuMSwwLjUsMC4yLDAuOCwwLjNjMC40LDAuMSwwLjgsMC4xLDEuMiwwLjFjMC43LDAsMS4zLTAuMSwxLjgtMC4zJiMxMDsmIzk7JiM5OyYjOTsmIzk7JiM5O2MwLjYtMC4yLDEtMC42LDEuNC0xLjFjMC40LTAuNSwwLjctMS4yLDEuMS0yLjFjMC4zLTAuOSwwLjYtMi4yLDAuOS0zLjdsMy40LTE4LjloLTMuM2MtMC40LDAtMC41LTAuMi0wLjUtMC41bDAuNi0zLjEmIzEwOyYjOTsmIzk7JiM5OyYjOTsmIzk7YzAuMS0wLjUsMC41LTAuNCwwLjUtMC40aDMuNGwwLjItMWMwLjUtMywxLjUtNS4zLDMtNi44YzEuNS0xLjUsMy43LTIuMyw2LjQtMi4zYzAuOCwwLDEuNSwwLjEsMi4xLDAuMiYjMTA7JiM5OyYjOTsmIzk7JiM5OyYjOTtDMTU1LDY0LjgsMTU1LjUsNjQuOSwxNTYsNjUuMXogTTg4LjYsOTcuNmMwLDAuMy0wLjIsMC41LTAuNCwwLjVoLTRjLTAuMywwLTAuNC0wLjItMC40LTAuNVY2NS41YzAtMC4yLDAuMi0wLjUsMC40LTAuNWg0JiMxMDsmIzk7JiM5OyYjOTsmIzk7JiM5O2MwLjMsMCwwLjQsMC4yLDAuNCwwLjVWOTcuNnoiIGNsYXNzPSJzdDEiIGlkPSJDb21iaW5lZC1TaGFwZSIvPiYjeGE7CQkJPC9nPiYjeGE7CQk8L2c+JiN4YTsJPC9nPiYjeGE7PC9nPiYjeGE7PC9zdmc+;flipH=0;" parent="A09IK0mkJr3Xp2zA0tw4-23" vertex="1">
          <mxGeometry x="31" y="610" width="40" height="28" as="geometry" />
        </mxCell>
        <mxCell id="A09IK0mkJr3Xp2zA0tw4-28" value="Market Data" style="shape=image;verticalLabelPosition=bottom;labelBackgroundColor=default;verticalAlign=top;aspect=fixed;imageAspect=0;editableCssRules=.*;image=data:image/svg+xml,PHN2ZyB4bWxucz0iaHR0cDovL3d3dy53My5vcmcvMjAwMC9zdmciIHZpZXdCb3g9IjIxLjk5NDk5ODkzMTg4NDc2NiAyMiAxNDguMDA1MDA0ODgyODEyNSAxNDgiIGhlaWdodD0iNjE2LjY2NjY2NjY2NjY2NjciIHdpZHRoPSI2MTYuNjg3NTIwMzQ1MDUyMSI+JiN4YTsmI3hhOzxnIGZpbGw9Im5vbmUiPiYjeGE7JiN4YTs8cGF0aCBmaWxsPSJub25lIiBzdHlsZT0iZmlsbDojMDAwMDAwO2ZpbGwtb3BhY2l0eTowO3N0cm9rZTojMDAwMDAwO3N0cm9rZS13aWR0aDoxMjtzdHJva2UtbGluZWNhcDpyb3VuZDtzdHJva2UtbGluZWpvaW46cm91bmQ7c3Ryb2tlLW1pdGVybGltaXQ6NjtzdHJva2UtZGFzaGFycmF5Om5vbmU7cGFpbnQtb3JkZXI6c3Ryb2tlIGZpbGwgbWFya2VycyIgZD0iTTIyIDE0Mi41NzZoMTAuNzAyTTIyIDExNC43MTJoMTAuNzAyTTIyIDIydjE0OGgxNDhNMjEuOTk1IDMyLjkzNGgxMC43MDJtLTEwLjcwMiAyNy4zMmgxMC43MDJNMjEuOTk1IDg3LjM1NmgxMC43MDIiLz4mI3hhOyYjeGE7PHBhdGggc3R5bGU9ImZpbGwtb3BhY2l0eTowO3N0cm9rZTojMDAwMDAwO3N0cm9rZS13aWR0aDoxMjtzdHJva2UtbGluZWNhcDpyb3VuZDtzdHJva2UtbGluZWpvaW46cm91bmQ7c3Ryb2tlLW1pdGVybGltaXQ6NjtwYWludC1vcmRlcjpzdHJva2UgZmlsbCBtYXJrZXJzIiBkPSJNNjguODQyIDEyOC42OTVhMTAuNzgyIDEwLjc4MiAwIDAgMS0xMC43ODEgMTAuNzgxIDEwLjc4MiAxMC43ODIgMCAwIDEtMTAuNzgyLTEwLjc4MSAxMC43ODIgMTAuNzgyIDAgMCAxIDEwLjc4Mi0xMC43ODIgMTAuNzgyIDEwLjc4MiAwIDAgMSAxMC43ODEgMTAuNzgyek05NS4wNiA3Ni4zNThBMTAuNzgyIDEwLjc4MiAwIDAgMSA4NC4yNzcgODcuMTRhMTAuNzgyIDEwLjc4MiAwIDAgMS0xMC43ODItMTAuNzgyIDEwLjc4MiAxMC43ODIgMCAwIDEgMTAuNzgyLTEwLjc4MiAxMC43ODIgMTAuNzgyIDAgMCAxIDEwLjc4MSAxMC43ODJabTQzLjU3NiAzNi4zOTZhMTAuNzgyIDEwLjc4MiAwIDAgMS0xMC43ODIgMTAuNzgxIDEwLjc4MiAxMC43ODIgMCAwIDEtMTAuNzgxLTEwLjc4MSAxMC43ODIgMTAuNzgyIDAgMCAxIDEwLjc4MS0xMC43ODIgMTAuNzgyIDEwLjc4MiAwIDAgMSAxMC43ODIgMTAuNzgyem0yMS42MDQtNzMuMzk2YTEwLjc4MiAxMC43ODIgMCAwIDEtMTAuNzgyIDEwLjc4MiAxMC43ODIgMTAuNzgyIDAgMCAxLTEwLjc4Mi0xMC43ODIgMTAuNzgyIDEwLjc4MiAwIDAgMSAxMC43ODItMTAuNzgxIDEwLjc4MiAxMC43ODIgMCAwIDEgMTAuNzgxIDEwLjc4MXoiLz4mI3hhOyYjeGE7PHBhdGggZmlsbD0ibm9uZSIgc3R5bGU9ImZpbGw6IzAwMDAwMDtmaWxsLW9wYWNpdHk6MDtzdHJva2U6IzAwMDAwMDtzdHJva2Utd2lkdGg6ODtzdHJva2UtbGluZWNhcDpyb3VuZDtzdHJva2UtbGluZWpvaW46cm91bmQ7c3Ryb2tlLW1pdGVybGltaXQ6NjtzdHJva2UtZGFzaGFycmF5Om5vbmU7cGFpbnQtb3JkZXI6c3Ryb2tlIGZpbGwgbWFya2VycyIgZD0ibTY0LjM4IDExOC4xOTggMTQuMTE3LTMxLjM2Mm0xNS4wOC0yLjQyNCAyNC4zMzMgMjEuMTI0bTEzLjY2OC00LjA2NyAxNS41My01Mi4zOTMiLz4mI3hhOyYjeGE7PC9nPiYjeGE7JiN4YTs8L3N2Zz4=;flipH=0;" parent="A09IK0mkJr3Xp2zA0tw4-23" vertex="1">
          <mxGeometry x="31" y="50" width="40" height="40" as="geometry" />
        </mxCell>
        <mxCell id="A09IK0mkJr3Xp2zA0tw4-30" value="Claims Data" style="shape=image;verticalLabelPosition=bottom;labelBackgroundColor=default;verticalAlign=top;aspect=fixed;imageAspect=0;editableCssRules=.*;image=data:image/svg+xml,PHN2ZyB4bWxucz0iaHR0cDovL3d3dy53My5vcmcvMjAwMC9zdmciIGRhdGEtbmFtZT0iTGF5ZXIgMSIgaWQ9IkxheWVyXzEiIHZpZXdCb3g9IjAgMCAzMiAzMiIgaGVpZ2h0PSI4MDAiIHdpZHRoPSI4MDAiIGZpbGw9IiMwMDAwMDAiPiYjeGE7ICA8ZGVmcz4mI3hhOyAgICA8c3R5bGU+JiN4YTsgICAgICAuY2xzLTEgeyYjeGE7ICAgICAgICBmaWxsOiBub25lOyYjeGE7ICAgICAgfSYjeGE7ICAgIDwvc3R5bGU+JiN4YTsgIDwvZGVmcz4mI3hhOyAgPHJlY3QgaGVpZ2h0PSIyIiB3aWR0aD0iMjgiIHk9IjI4IiB4PSIyIi8+JiN4YTsgIDxyZWN0IHRyYW5zZm9ybT0idHJhbnNsYXRlKC00LjY1NjcgMTMuNzg2Nykgcm90YXRlKC00NSkiIGhlaWdodD0iMiIgd2lkdGg9IjYiIHk9IjExLjUxNDUiIHg9IjExLjMxMzciLz4mI3hhOyAgPHBhdGggdHJhbnNmb3JtPSJ0cmFuc2xhdGUoMCAwKSIgZD0iTTEyLjA4MTUsMjMuNDMyOWw0LjExNjgsMi4zMTc2YTIuMDA5LDIuMDA5LDAsMCwwLDIuMzg1My0uMzM0NGw4LjgzMjYtOC44MzI2YTIuMDA4OCwyLjAwODgsMCwwLDAsLjMzNC0yLjM4NTZsLTIuMjk3Ny00LjEzNiwxLjc5LTEuNzlMMjUuODI4Myw2Ljg1NzcsMjQuNDE0MSw4LjI3MTlsLTQuOTUtNC45NWEyLjAwMjYsMi4wMDI2LDAsMCwwLTIuODI4NSwwTDE0LjUxNDYsMS4yMDA4LDEzLjEsMi42MTVsMi4xMjEzLDIuMTIxNEw2LjczNjQsMTMuMjIxNiw0LjYxNTEsMTEuMSwzLjIwMDksMTIuNTE0NWwyLjEyMTMsMi4xMjEzYTIuMDAyNSwyLjAwMjUsMCwwLDAsMCwyLjgyODVsNC45NSw0Ljk1TDguODU3NywyMy44MjgybDEuNDE0MywxLjQxNDJabTEzLjkyLTguMjYzNi04LjgzMjgsOC44MzI4LTQuNTQ1Ni0yLjUyNTVMMjMuNDc2NywxMC42MjM1Wk05LjU2NDksMTguODc4NWwxLjQxNDItMS40MTQyTDkuNTY0OSwxNi4wNSw4LjE1MDYsMTcuNDY0Myw2LjczNjQsMTYuMDUsMTguMDUsNC43MzY0bDEuNDE0MywxLjQxNDJMMTguMDUsNy41NjQ4LDE5LjQ2NDQsOC45NzlsMS40MTQyLTEuNDE0MkwyMi4yOTI4LDguOTc5LDEwLjk3OTEsMjAuMjkyN1oiLz4mI3hhOyAgPHJlY3QgaGVpZ2h0PSIzMiIgd2lkdGg9IjMyIiBjbGFzcz0iY2xzLTEiIGRhdGEtbmFtZT0iJmx0O1RyYW5zcGFyZW50IFJlY3RhbmdsZSZndDsiIGlkPSJfVHJhbnNwYXJlbnRfUmVjdGFuZ2xlXyIvPiYjeGE7PC9zdmc+;flipH=0;" parent="A09IK0mkJr3Xp2zA0tw4-23" vertex="1">
          <mxGeometry x="31" y="129" width="40" height="40" as="geometry" />
        </mxCell>
        <mxCell id="A09IK0mkJr3Xp2zA0tw4-29" value="Policy Data" style="shape=image;verticalLabelPosition=bottom;labelBackgroundColor=default;verticalAlign=top;aspect=fixed;imageAspect=0;editableCssRules=.*;image=data:image/svg+xml,PHN2ZyB4bWxucz0iaHR0cDovL3d3dy53My5vcmcvMjAwMC9zdmciIGNsYXNzPSJjZi1pY29uLXN2ZyIgdmlld0JveD0iMC41NTY1MDAwNzcyNDc2MTk2IDIuODI5OTk5OTIzNzA2MDU0NyAxMy44ODY1MDAzNTg1ODE1NDMgMTMuMjM4MDAwODY5NzUwOTc3IiBoZWlnaHQ9IjU1Ny4zODk1MTAzMDUzMDQzIiB3aWR0aD0iNTg0LjY5NDc1MTk0MDI3NTUiIGZpbGw9IiMwMDAwMDAiPjxwYXRoIGQ9Ik0xNC40NDMgNC40NDVhMS42MTUgMS42MTUgMCAwIDEtMS42MTMgMS42MTRoLS41MDZ2OC4zOTZhMS42MTUgMS42MTUgMCAwIDEtMS42MTMgMS42MTNIMi4xN2ExLjYxMyAxLjYxMyAwIDEgMSAwLTMuMjI3aC41MDVWNC40NDVBMS42MTUgMS42MTUgMCAwIDEgNC4yODkgMi44M2g4LjU0YTEuNjE1IDEuNjE1IDAgMCAxIDEuNjE0IDEuNjE0ek0yLjE3IDE0Ljk2aDcuMDA3YTEuNjEyIDEuNjEyIDAgMCAxIDAtMS4wMUgyLjE3MmEuNTA1LjUwNSAwIDAgMCAwIDEuMDF6bTkuMDQ1LTEwLjUxNWExLjYyIDEuNjIgMCAwIDEgLjA4LS41MDVINC4yOWEuNS41IDAgMCAwLS4zMS4xMDdsLS4wMDIuMDAxYS41LjUgMCAwIDAtLjE5My4zOTd2OC4zOTZoNi4zMzdhLjYxLjYxIDAgMCAxIC42LjQ2Ny42MzIuNjMyIDAgMCAxLS4yNTEuNzAyLjUwNS41MDUgMCAxIDAgLjc0Ni40NDV6bS0uODYgMS40MzhoLTUuNzZWNi45OWg1Ljc2em0wIDIuMjZoLTUuNzZWOS4yNWg1Ljc2em0wIDIuMjZoLTUuNzZ2MS4xMDhoNS43NnptMi45NzktNS45NThhLjUwNi41MDYgMCAwIDAtLjUwNS0uNTA1LjQ5Ni40OTYgMCAwIDAtLjMxLjEwN2gtLjAwMmEuNTAxLjUwMSAwIDAgMC0uMTk0LjM5OHYuNTA1aC41MDZhLjUwNi41MDYgMCAwIDAgLjUwNS0uNTA1eiIvPjwvc3ZnPg==;imageBackground=default;flipH=0;" parent="A09IK0mkJr3Xp2zA0tw4-23" vertex="1">
          <mxGeometry x="31" y="209" width="40" height="38.09" as="geometry" />
        </mxCell>
        <mxCell id="A09IK0mkJr3Xp2zA0tw4-32" value="Geospatial Data" style="shape=image;verticalLabelPosition=bottom;labelBackgroundColor=default;verticalAlign=top;aspect=fixed;imageAspect=0;editableCssRules=.*;image=data:image/svg+xml,PHN2ZyB4bWxucz0iaHR0cDovL3d3dy53My5vcmcvMjAwMC9zdmciIGNsYXNzPSJjZi1pY29uLXN2ZyIgdmlld0JveD0iMC42MDgyNTc1OTE3MjQzOTU4IDMuOTY0MzAzNzMxOTE4MzM1IDE0Ljc4MzQ4MzUwNTI0OTAyMyAxMS4yMzkzNDY1MDQyMTE0MjYiIGhlaWdodD0iNDczLjIzNTY0MjI4MjU4NjM1IiB3aWR0aD0iNjIyLjQ2MjQ2MzM3ODkwNjIiIGZpbGw9IiMwMDAwMDAiPjxwYXRoIGQ9Ik0xNS4wODQgMTUuMkguOTE2YS4yNjQuMjY0IDAgMCAxLS4yNTQtLjQybDIuMzYtNC40OTJhLjg2NS44NjUgMCAwIDEgLjY5Ni0uNDJoLjgyN2E5LjUxIDkuNTEgMCAwIDAgLjk0MyAxLjEwOEgzLjkxMmwtMS42MzcgMy4xMTZoMTEuNDVsLTEuNjM3LTMuMTE2aC0xLjM0YTkuNDgxIDkuNDgxIDAgMCAwIC45NDMtMS4xMDloLjU5MWEuODY2Ljg2NiAwIDAgMSAuNjk2LjQyMWwyLjM2IDQuNDkyYS4yNjQuMjY0IDAgMCAxLS4yNTQuNDJ6TTExLjQgNy4xODljMCAyLjY0LTIuMTc2IDIuODg4LTMuMTAzIDUuNDZhLjE4Mi4xODIgMCAwIDEtLjM1NiAwYy0uOTI4LTIuNTcyLTMuMTA0LTIuODItMy4xMDQtNS40NmEzLjI4MiAzLjI4MiAwIDAgMSA2LjU2MyAwem0tMS44Ni0uMDA1YTEuNDI1IDEuNDI1IDAgMSAwLTEuNDI1IDEuNDI1QTEuNDI1IDEuNDI1IDAgMCAwIDkuNTQgNy4xODR6Ii8+PC9zdmc+;flipH=0;" parent="A09IK0mkJr3Xp2zA0tw4-23" vertex="1">
          <mxGeometry x="31" y="451" width="40" height="30.42" as="geometry" />
        </mxCell>
        <mxCell id="A09IK0mkJr3Xp2zA0tw4-33" value="Pricing Data" style="shape=image;verticalLabelPosition=bottom;labelBackgroundColor=default;verticalAlign=top;aspect=fixed;imageAspect=0;editableCssRules=.*;image=data:image/svg+xml,PHN2ZyB4bWxuczp4bGluaz0iaHR0cDovL3d3dy53My5vcmcvMTk5OS94bGluayIgeG1sbnM9Imh0dHA6Ly93d3cudzMub3JnLzIwMDAvc3ZnIiB2aWV3Qm94PSIwLjQ4MzIxNTMzMjAzMTI1IDAuNTQ5NDM4NDc2NTYyNSAzMS4wMzM5MDUwMjkyOTY4NzUgMzAuOTAzMzIwMzEyNSIgaGVpZ2h0PSI3NzIuNTgzMDA3ODEyNSIgd2lkdGg9Ijc3NS44NDc2MjU3MzI0MjE5Ij4mI3hhOyAgPGRlZnM+JiN4YTsgICAgPGNsaXBQYXRoIGlkPSJjbGlwLXByaWNldGFnMiI+JiN4YTsgICAgICA8cmVjdCBoZWlnaHQ9IjMyIiB3aWR0aD0iMzIiLz4mI3hhOyAgICA8L2NsaXBQYXRoPiYjeGE7ICA8L2RlZnM+JiN4YTsgIDxnIGNsaXAtcGF0aD0idXJsKCNjbGlwLXByaWNldGFnMikiIGlkPSJwcmljZXRhZzIiPiYjeGE7ICAgIDxnIHRyYW5zZm9ybT0idHJhbnNsYXRlKC0yMDggLTI2MCkiIGRhdGEtbmFtZT0iR3JvdXAgMjQwMSIgaWQ9Ikdyb3VwXzI0MDEiPiYjeGE7ICAgICAgPGcgZGF0YS1uYW1lPSJHcm91cCAyMzk3IiBpZD0iR3JvdXBfMjM5NyI+JiN4YTsgICAgICAgIDxnIGRhdGEtbmFtZT0iR3JvdXAgMjM5NiIgaWQ9Ikdyb3VwXzIzOTYiPiYjeGE7ICAgICAgICAgIDxnIGRhdGEtbmFtZT0iR3JvdXAgMjM5NSIgaWQ9Ikdyb3VwXzIzOTUiPiYjeGE7ICAgICAgICAgICAgPHBhdGggZmlsbD0iIzM0NDk1MiIgZD0iTTIyNy4xNjgsMjczLjQxOWwuNTI0LS41MjRxLjQtLjQuMDg3LS43MDh0LS43MTMuMWwtLjUxNC41MTRhMy4zNywzLjM3LDAsMCwwLTIuMTU2LS45MTUsMi45NDEsMi45NDEsMCwwLDAtMi42NzUsMi4xNTYsMi42LDIuNiwwLDAsMCwuMDgsMS4zMzcsOC4zOTEsOC4zOTEsMCwwLDAsLjY4NywxLjQ4NmwtMi4yNTYsMi4yNTVhMS44NDQsMS44NDQsMCwwLDEtLjI1NC0uNzg4LDEuNjUyLDEuNjUyLDAsMCwxLC4wOTItLjY3OSw4LjY1Miw4LjY1MiwwLDAsMSwuMzgxLS44MzYuNzQ1Ljc0NSwwLDAsMCwuMDc3LS40OTUuOTA2LjkwNiwwLDAsMC0uMjY3LS40NzEuODU0Ljg1NCwwLDAsMC0uNjQtLjI2Ni44MjguODI4LDAsMCwwLS42LjIzNywyLjM2NywyLjM2NywwLDAsMC0uNTA3Ljc3OSwyLjk4NSwyLjk4NSwwLDAsMC0uMjExLDEuMDUsMy4zMjMsMy4zMjMsMCwwLDAsLjIsMS4yMTUsNC4zMzgsNC4zMzgsMCwwLDAsLjcyNSwxLjI1OGwtMS4zMDksMS4zMWEuODYxLjg2MSwwLDAsMC0uMjYuNC4zODYuMzg2LDAsMCwwLC4xMzguMzUyLjMzNi4zMzYsMCwwLDAsLjM3Ni4xMTQsMS42MSwxLjYxLDAsMCwwLC40NzMtLjM2MmwxLjIwOC0xLjIwN2EzLjg1NiwzLjg1NiwwLDAsMCwxLjU2Mi44MzQsMi45MTMsMi45MTMsMCwwLDAsMS41NTItLjAyNCwzLjA2MSwzLjA2MSwwLDAsMCwxLjI5NS0uNzc2LDIuODUsMi44NSwwLDAsMCwuNjUtLjk3NSwyLjU2NCwyLjU2NCwwLDAsMCwuMTc0LTEuMSwyLjgwNiwyLjgwNiwwLDAsMC0uMjQ1LTEuMDMxcS0uMjItLjQ5Mi0uNjU3LTEuMjU5bDIuMDE4LTIuMDE3YTEuNTU0LDEuNTU0LDAsMCwxLS4wMzQsMS41NzYuODUzLjg1MywwLDAsMCwuMSwxLjEzLjgyNi44MjYsMCwwLDAsLjYwNi4yNTIuODA3LjgwNywwLDAsMCwuNi0uMjQyLDEuNjY2LDEuNjY2LDAsMCwwLC4zNjItLjYsMi45MTQsMi45MTQsMCwwLDAsLjE3Mi0uODQ2LDIuNSwyLjUsMCwwLDAtLjE2Mi0xLjEzM0E0LjMsNC4zLDAsMCwwLDIyNy4xNjgsMjczLjQxOVptLTQuMjYzLDYuMzFhMS40MTMsMS40MTMsMCwwLDEtLjk1Ni40MjIsMS44ODMsMS44ODMsMCwwLDEtMS4xNDktLjM2NGwyLjEyNC0yLjEyNGEyLjk4NywyLjk4NywwLDAsMSwuMzc0LDEuMTU0QTEuMTc0LDEuMTc0LDAsMCwxLDIyMi45LDI3OS43MjlabS44NDQtNC4xMjNhMi43NiwyLjc2LDAsMCwxLS4yOTQtMS4wMDYsMS4yNzQsMS4yNzQsMCwwLDEsMS4yLTEuMTY3LDIuNDE0LDIuNDE0LDAsMCwxLC45NTUuMzE1WiIgZGF0YS1uYW1lPSJQYXRoIDM4NTYiIGlkPSJQYXRoXzM4NTYiLz4mI3hhOyAgICAgICAgICA8L2c+JiN4YTsgICAgICAgIDwvZz4mI3hhOyAgICAgIDwvZz4mI3hhOyAgICAgIDxnIGRhdGEtbmFtZT0iR3JvdXAgMjQwMCIgaWQ9Ikdyb3VwXzI0MDAiPiYjeGE7ICAgICAgICA8ZyBkYXRhLW5hbWU9Ikdyb3VwIDIzOTkiIGlkPSJHcm91cF8yMzk5Ij4mI3hhOyAgICAgICAgICA8ZyBkYXRhLW5hbWU9Ikdyb3VwIDIzOTgiIGlkPSJHcm91cF8yMzk4Ij4mI3hhOyAgICAgICAgICAgIDxwYXRoIGZpbGw9IiMzNDQ5NTIiIGQ9Ik0yMzkuNTE2LDI2MS4wMTRhLjQ3LjQ3LDAsMCwwLS41MTktLjQ2Mi41MDYuNTA2LDAsMCwwLS40OC41MTRjMCwuMDYzLS4wMTMsMS41NTYtMy4zMTQsMS45NzhhNC42MzIsNC42MzIsMCwwLDAtMS42MzEuNTI5bC0xLjYxMy0xLjYxNGExLDEsMCwwLDAtLjk2Ni0uMjU5bC04LjAxNiwyLjE0OWExLDEsMCwwLDAtLjY3NS4yOTJsLTEzLjUyNiwxMy41MjZhMSwxLDAsMCwwLDAsMS40MTRsMTIuMDgsMTIuMDc5YTEsMSwwLDAsMCwxLjQxNCwwTDIzNS44LDI3Ny42MzVhMSwxLDAsMCwwLC4yOTItLjY3M2wyLjE0OC04LjAxOGExLDEsMCwwLDAtLjI1OS0uOTY2bC0zLjY1Ny0zLjY1N2EzLjY3MiwzLjY3MiwwLDAsMSwxLjAxLS4yODVDMjM5LjYyMSwyNjMuNDg4LDIzOS41MjIsMjYxLjExNCwyMzkuNTE2LDI2MS4wMTRabS01LjM2MSwxNS40MzMtMTIuNTkyLDEyLjU5MkwyMTAuOSwyNzguMzc0bDEyLjU5Mi0xMi41OTMsNy40NjQtMiwxLjA5MiwxLjA5M2E3LjU4OSw3LjU4OSwwLDAsMC0xLjE2NSwyLjE2NCwyLjEyMiwyLjEyMiwwLDEsMCwuOTY3LjI0NSw2LjQ2MSw2LjQ2MSwwLDAsMSwuOTA4LTEuN2wzLjQsMy40Wm0tMi41NDUtOC4xMmExLDEsMCwxLDEtMS40MTUsMCwuOTc4Ljk3OCwwLDAsMSwuMzcxLS4yMjcsNy44MjIsNy44MjIsMCwwLDAtLjE2MS44ODYuNS41LDAsMCwwLC40NDguNTQ1LjQyMy40MjMsMCwwLDAsLjA1LDAsLjUuNSwwLDAsMCwuNS0uNDUxLDcuMjI2LDcuMjI2LDAsMCwxLC4xNDctLjhDMjMxLjU2NiwyNjguMywyMzEuNTkxLDI2OC4zMDksMjMxLjYxLDI2OC4zMjdaIiBkYXRhLW5hbWU9IlBhdGggMzg1NyIgaWQ9IlBhdGhfMzg1NyIvPiYjeGE7ICAgICAgICAgIDwvZz4mI3hhOyAgICAgICAgPC9nPiYjeGE7ICAgICAgPC9nPiYjeGE7ICAgIDwvZz4mI3hhOyAgPC9nPiYjeGE7PC9zdmc+;flipH=0;" parent="A09IK0mkJr3Xp2zA0tw4-23" vertex="1">
          <mxGeometry x="31" y="367" width="40" height="39.85" as="geometry" />
        </mxCell>
        <mxCell id="1G0nagz6v2ccPys6KGnb-1" value="Reference Data" style="shape=image;verticalLabelPosition=bottom;labelBackgroundColor=default;verticalAlign=top;aspect=fixed;imageAspect=0;editableCssRules=.*;image=data:image/svg+xml,PHN2ZyB4bWxuczp4bGluaz0iaHR0cDovL3d3dy53My5vcmcvMTk5OS94bGluayIgeG1sbnM9Imh0dHA6Ly93d3cudzMub3JnLzIwMDAvc3ZnIiBwcmVzZXJ2ZUFzcGVjdFJhdGlvPSJ4TWlkWU1pZCBtZWV0IiB2ZXJzaW9uPSIxLjEiIHZpZXdCb3g9IjAgMCAzNiAzNiIgaGVpZ2h0PSI4MDAiIHdpZHRoPSI4MDAiIGZpbGw9IiMwMDAwMDAiPiYjeGE7ICAgIDx0aXRsZT5saWJyYXJ5LWxpbmU8L3RpdGxlPiYjeGE7ICAgIDxwYXRoIGNsYXNzPSJjbHItaS1vdXRsaW5lIGNsci1pLW91dGxpbmUtcGF0aC0xIiBkPSJNMzMuNDgsMjkuNjMsMjYuNzQsMTEuODJhMiwyLDAsMCwwLTIuNTgtMS4xNkwyMSwxMS44NVY4LjkyQTEuOTIsMS45MiwwLDAsMCwxOS4wOCw3SDE0VjQuOTJBMS45MiwxLjkyLDAsMCwwLDEyLjA4LDNINUEyLDIsMCwwLDAsMyw1VjMyYTEsMSwwLDAsMCwxLDFIMjBhMSwxLDAsMCwwLDEtMVYxOS4yN2w1LDEzLjIxYTEsMSwwLDAsMCwxLjI5LjU4bDUuNjEtMi4xNGExLDEsMCwwLDAsLjU4LTEuMjlaTTEyLDguODNWMzFINVY1aDdaTTE5LDMxSDE0VjloNVptOC41MS0uMjVMMjEuMTMsMTMuOTJsMy43NC0xLjQyLDYuMzksMTYuODNaIi8+JiN4YTsgICAgPHJlY3QgZmlsbC1vcGFjaXR5PSIwIiBoZWlnaHQ9IjM2IiB3aWR0aD0iMzYiIHk9IjAiIHg9IjAiLz4mI3hhOzwvc3ZnPg==;flipH=0;" parent="A09IK0mkJr3Xp2zA0tw4-23" vertex="1">
          <mxGeometry x="31" y="525" width="40" height="40" as="geometry" />
        </mxCell>
        <mxCell id="IxwIb3dYdLttnHqc6bn6-2" value="Bordereau" style="shape=image;verticalLabelPosition=bottom;labelBackgroundColor=default;verticalAlign=top;aspect=fixed;imageAspect=0;editableCssRules=.*;image=data:image/svg+xml,PHN2ZyB4bWxucz0iaHR0cDovL3d3dy53My5vcmcvMjAwMC9zdmciIGlkPSJzdmc4IiB2ZXJzaW9uPSIxLjEiIHZpZXdCb3g9IjMyIDE2IDE5Mi4wMDAzNTA5NTIxNDg0NCAyMjQiIGhlaWdodD0iMjI0IiB3aWR0aD0iMTkyLjAwMDM1MDk1MjE0ODQ0Ij4mI3hhOyAgPHRpdGxlIGlkPSJ0aXRsZTg1MSI+R2FsYSBpY29uIHNldDwvdGl0bGU+JiN4YTsgIDxkZWZzIGlkPSJkZWZzMiIvPiYjeGE7ICAmI3hhOyAgICAmI3hhOyAgICAmI3hhOyAgICAmI3hhOyAgJiN4YTsgIDxtZXRhZGF0YSBpZD0ibWV0YWRhdGE1Ij4mI3hhOyAgICAmI3hhOyAgICAgICYjeGE7ICAgICAgICBpbWFnZS9zdmcreG1sJiN4YTsgICAgICAgICYjeGE7ICAgICAgICBHYWxhIGljb24gc2V0JiN4YTsgICAgICAgIGh0dHBzOi8vZ2l0aHViLmNvbS9zaXN5cGh1c2lvbi9nYWxhLWljb25zJiN4YTsgICAgICAgICYjeGE7ICAgICAgICAgICYjeGE7ICAgICAgICAmI3hhOyAgICAgICAgJiN4YTsgICAgICAgICAgJiN4YTsgICAgICAgICAgICBKYWtlIFdlbGxzJiN4YTsgICAgICAgICAgJiN4YTsgICAgICAgICYjeGE7ICAgICAgICAmI3hhOyAgICAgICAgICAmI3hhOyAgICAgICAgICAgICYjeGE7ICAgICAgICAgICYjeGE7ICAgICAgICAmI3hhOyAgICAgICYjeGE7ICAgICYjeGE7ICA8L21ldGFkYXRhPiYjeGE7ICA8ZyBpZD0ibGF5ZXIxIj4mI3hhOyAgICA8cGF0aCBzdHlsZT0iZmlsbDpub25lO3N0cm9rZTojMDAwMDAwO3N0cm9rZS13aWR0aDoxNS45OTIzNDM5O3N0cm9rZS1saW5lY2FwOnJvdW5kO3N0cm9rZS1saW5lam9pbjptaXRlcjtzdHJva2UtbWl0ZXJsaW1pdDo0O3N0cm9rZS1kYXNoYXJyYXk6bm9uZTtzdHJva2Utb3BhY2l0eToxIiBkPSJNIDMyLDQ4IFYgMjA3LjkyMzYiIGlkPSJwYXRoODcwIi8+JiN4YTsgICAgPHBhdGggc3R5bGU9ImZpbGw6bm9uZTtzdHJva2U6IzAwMDAwMDtzdHJva2Utd2lkdGg6MTUuOTkyMzQzOTtzdHJva2UtbGluZWNhcDpyb3VuZDtzdHJva2UtbGluZWpvaW46cm91bmQ7c3Ryb2tlLW1pdGVybGltaXQ6NDtzdHJva2UtZGFzaGFycmF5Om5vbmU7c3Ryb2tlLW9wYWNpdHk6MSIgZD0iTSAyMjQsOTYgViAyMDgiIGlkPSJwYXRoODc0Ii8+JiN4YTsgICAgPHBhdGggc3R5bGU9ImZpbGw6bm9uZTtzdHJva2U6IzAwMDAwMDtzdHJva2Utd2lkdGg6MTUuOTkyMzQzOTtzdHJva2UtbGluZWNhcDpyb3VuZDtzdHJva2UtbGluZWpvaW46cm91bmQ7c3Ryb2tlLW1pdGVybGltaXQ6NDtzdHJva2UtZGFzaGFycmF5Om5vbmU7c3Ryb2tlLW9wYWNpdHk6MSIgZD0ibSA2NCwxNiBoIDgwIiBpZD0icGF0aDg4MCIvPiYjeGE7ICAgIDxwYXRoIHN0eWxlPSJmaWxsOm5vbmU7c3Ryb2tlOiMwMDAwMDA7c3Ryb2tlLXdpZHRoOjE1Ljk5MjM0Mzk7c3Ryb2tlLWxpbmVjYXA6cm91bmQ7c3Ryb2tlLWxpbmVqb2luOm1pdGVyO3N0cm9rZS1taXRlcmxpbWl0OjQ7c3Ryb2tlLWRhc2hhcnJheTpub25lO3N0cm9rZS1vcGFjaXR5OjEiIGQ9Ik0gNjQsMjQwIEggMTkyIiBpZD0icGF0aDg4MiIvPiYjeGE7ICAgIDxwYXRoIGlkPSJwYXRoODg2IiBkPSJtIDIyNCwyMDggYyAwLjA4NzQsMTUuOTgxNjkgLTE2LDMyIC0zMiwzMiIgc3R5bGU9ImZpbGw6bm9uZTtzdHJva2U6IzAwMDAwMDtzdHJva2Utd2lkdGg6MTUuOTkyMzQzOTtzdHJva2UtbGluZWNhcDpyb3VuZDtzdHJva2UtbGluZWpvaW46cm91bmQ7c3Ryb2tlLW1pdGVybGltaXQ6NDtzdHJva2UtZGFzaGFycmF5Om5vbmU7c3Ryb2tlLW9wYWNpdHk6MSIvPiYjeGE7ICAgIDxwYXRoIGlkPSJwYXRoODg2LTMiIGQ9Im0gLTMyLDIwOCBjIC0xMGUtNywxNiAtMTYsMzIgLTMyLDMyIiBzdHlsZT0iZmlsbDpub25lO3N0cm9rZTojMDAwMDAwO3N0cm9rZS13aWR0aDoxNS45OTIzNDM5O3N0cm9rZS1saW5lY2FwOnJvdW5kO3N0cm9rZS1saW5lam9pbjpyb3VuZDtzdHJva2UtbWl0ZXJsaW1pdDo0O3N0cm9rZS1kYXNoYXJyYXk6bm9uZTtzdHJva2Utb3BhY2l0eToxIiB0cmFuc2Zvcm09InNjYWxlKC0xLDEpIi8+JiN4YTsgICAgPHBhdGggaWQ9InBhdGg4ODYtMy02IiBkPSJNIC0zMiwtNDcuOTc2Nzg0IEMgLTMyLC0zMiAtNDgsLTE2LjM1NjMyMiAtNjMuOTk5OTk3LC0xNi4wMDAwMDIiIHN0eWxlPSJmaWxsOm5vbmU7c3Ryb2tlOiMwMDAwMDA7c3Ryb2tlLXdpZHRoOjE1Ljk5MjM0Mzk7c3Ryb2tlLWxpbmVjYXA6cm91bmQ7c3Ryb2tlLWxpbmVqb2luOnJvdW5kO3N0cm9rZS1taXRlcmxpbWl0OjQ7c3Ryb2tlLWRhc2hhcnJheTpub25lO3N0cm9rZS1vcGFjaXR5OjEiIHRyYW5zZm9ybT0ic2NhbGUoLTEpIi8+JiN4YTsgICAgPHBhdGggc3R5bGU9ImZpbGw6bm9uZTtzdHJva2U6IzAwMDAwMDtzdHJva2Utd2lkdGg6MTUuOTkyMzQzOTtzdHJva2UtbGluZWNhcDpyb3VuZDtzdHJva2UtbGluZWpvaW46cm91bmQ7c3Ryb2tlLW1pdGVybGltaXQ6NDtzdHJva2UtZGFzaGFycmF5Om5vbmU7c3Ryb2tlLW9wYWNpdHk6MSIgZD0iTSAyMjMuOTEyNTcsOTYuMDcxNzc5IDE0NCwxNiIgaWQ9InBhdGg5MzMiLz4mI3hhOyAgICA8cGF0aCBpZD0icGF0aDg4Ni01IiBkPSJtIC0xNDQsNjQgYyAtMC4wNDkyLDE1LjkxMjkyNiAtMTYuMDY0NTIsMzEuOTk5OTk1IC0zMiwzMiIgc3R5bGU9ImZpbGw6bm9uZTtzdHJva2U6IzAwMDAwMDtzdHJva2Utd2lkdGg6MTUuOTkyMzQzOTtzdHJva2UtbGluZWNhcDpyb3VuZDtzdHJva2UtbGluZWpvaW46cm91bmQ7c3Ryb2tlLW1pdGVybGltaXQ6NDtzdHJva2UtZGFzaGFycmF5Om5vbmU7c3Ryb2tlLW9wYWNpdHk6MSIgdHJhbnNmb3JtPSJzY2FsZSgtMSwxKSIvPiYjeGE7ICAgIDxwYXRoIHN0eWxlPSJmaWxsOm5vbmU7c3Ryb2tlOiMwMDAwMDA7c3Ryb2tlLXdpZHRoOjE1Ljk5MjM0Mzk7c3Ryb2tlLWxpbmVjYXA6cm91bmQ7c3Ryb2tlLWxpbmVqb2luOnJvdW5kO3N0cm9rZS1taXRlcmxpbWl0OjQ7c3Ryb2tlLWRhc2hhcnJheTpub25lO3N0cm9rZS1vcGFjaXR5OjEiIGQ9Ik0gMTQ0LDY0IFYgMTYiIGlkPSJwYXRoOTUwIi8+JiN4YTsgICAgPHBhdGggc3R5bGU9ImZpbGw6bm9uZTtzdHJva2U6IzAwMDAwMDtzdHJva2Utd2lkdGg6MTUuOTkyMzQzOTtzdHJva2UtbGluZWNhcDpyb3VuZDtzdHJva2UtbGluZWpvaW46cm91bmQ7c3Ryb2tlLW1pdGVybGltaXQ6NDtzdHJva2UtZGFzaGFycmF5Om5vbmU7c3Ryb2tlLW9wYWNpdHk6MSIgZD0ibSAxNzYsOTYgaCA0OCIgaWQ9InBhdGg5NTIiLz4mI3hhOyAgICA8cGF0aCBpZD0icGF0aDgyOSIgZD0ibSA2NCwxOTIgaCA5NiIgc3R5bGU9ImZpbGw6bm9uZTtzdHJva2U6IzAwMDAwMDtzdHJva2Utd2lkdGg6MTY7c3Ryb2tlLWxpbmVjYXA6cm91bmQ7c3Ryb2tlLWxpbmVqb2luOnJvdW5kO3N0cm9rZS1taXRlcmxpbWl0OjQ7c3Ryb2tlLWRhc2hhcnJheTpub25lO3N0cm9rZS1vcGFjaXR5OjEiLz4mI3hhOyAgICA8cGF0aCBpZD0icGF0aDgzMSIgZD0ibSA2NCwxNjAgaCA5NiIgc3R5bGU9ImZpbGw6bm9uZTtzdHJva2U6IzAwMDAwMDtzdHJva2Utd2lkdGg6MTY7c3Ryb2tlLWxpbmVjYXA6cm91bmQ7c3Ryb2tlLWxpbmVqb2luOnJvdW5kO3N0cm9rZS1taXRlcmxpbWl0OjQ7c3Ryb2tlLWRhc2hhcnJheTpub25lO3N0cm9rZS1vcGFjaXR5OjEiLz4mI3hhOyAgICA8cGF0aCBpZD0icGF0aDgzMyIgZD0ibSA4MCwxNDQgdiA2NCIgc3R5bGU9ImZpbGw6bm9uZTtzdHJva2U6IzAwMDAwMDtzdHJva2Utd2lkdGg6MTY7c3Ryb2tlLWxpbmVjYXA6cm91bmQ7c3Ryb2tlLWxpbmVqb2luOnJvdW5kO3N0cm9rZS1vcGFjaXR5OjE7c3Ryb2tlLW1pdGVybGltaXQ6NDtzdHJva2UtZGFzaGFycmF5Om5vbmUiLz4mI3hhOyAgICA8cGF0aCBpZD0icGF0aDgzNSIgZD0ibSAxMTIsMTQ0IHYgNjQiIHN0eWxlPSJmaWxsOm5vbmU7c3Ryb2tlOiMwMDAwMDA7c3Ryb2tlLXdpZHRoOjE2O3N0cm9rZS1saW5lY2FwOnJvdW5kO3N0cm9rZS1saW5lam9pbjpyb3VuZDtzdHJva2UtbWl0ZXJsaW1pdDo0O3N0cm9rZS1kYXNoYXJyYXk6bm9uZTtzdHJva2Utb3BhY2l0eToxIi8+JiN4YTsgICAgPHBhdGggaWQ9InBhdGg4MzUtMyIgZD0ibSAxNDQsMTQ0IHYgNjQiIHN0eWxlPSJmaWxsOm5vbmU7c3Ryb2tlOiMwMDAwMDA7c3Ryb2tlLXdpZHRoOjE2O3N0cm9rZS1saW5lY2FwOnJvdW5kO3N0cm9rZS1saW5lam9pbjpyb3VuZDtzdHJva2UtbWl0ZXJsaW1pdDo0O3N0cm9rZS1kYXNoYXJyYXk6bm9uZTtzdHJva2Utb3BhY2l0eToxIi8+JiN4YTsgIDwvZz4mI3hhOzwvc3ZnPg==;flipH=0;" vertex="1" parent="A09IK0mkJr3Xp2zA0tw4-23">
          <mxGeometry x="31" y="284" width="40" height="46.67" as="geometry" />
        </mxCell>
        <mxCell id="1G0nagz6v2ccPys6KGnb-15" style="edgeStyle=orthogonalEdgeStyle;rounded=0;orthogonalLoop=1;jettySize=auto;html=1;entryX=-0.06;entryY=0.488;entryDx=0;entryDy=0;entryPerimeter=0;" parent="1" source="A09IK0mkJr3Xp2zA0tw4-24" target="A09IK0mkJr3Xp2zA0tw4-2" edge="1">
          <mxGeometry relative="1" as="geometry">
            <Array as="points">
              <mxPoint x="330" y="395" />
              <mxPoint x="330" y="312" />
            </Array>
          </mxGeometry>
        </mxCell>
        <mxCell id="A09IK0mkJr3Xp2zA0tw4-24" value="Data Ingestion" style="swimlane;fillColor=#647687;fontColor=#ffffff;strokeColor=#314354;fontSize=14;startSize=36;" parent="1" vertex="1">
          <mxGeometry x="180" y="170" width="120" height="450" as="geometry">
            <mxRectangle x="400" y="130" width="110" height="30" as="alternateBounds" />
          </mxGeometry>
        </mxCell>
        <mxCell id="A09IK0mkJr3Xp2zA0tw4-26" value="Batch&lt;div&gt;&lt;br&gt;CDC&lt;div&gt;&lt;br&gt;Streaming&lt;br&gt;&lt;br&gt;Structured or&lt;br&gt;Unstructured&lt;/div&gt;&lt;/div&gt;" style="text;html=1;align=center;verticalAlign=middle;resizable=0;points=[];autosize=1;strokeColor=none;fillColor=none;labelPosition=center;verticalLabelPosition=middle;flipH=1;flipV=0;" parent="A09IK0mkJr3Xp2zA0tw4-24" vertex="1">
          <mxGeometry x="20" y="170" width="90" height="130" as="geometry" />
        </mxCell>
        <mxCell id="A09IK0mkJr3Xp2zA0tw4-11" value="Azure&lt;br&gt;Event Hubs" style="image;aspect=fixed;html=1;points=[];align=center;fontSize=12;image=img/lib/azure2/analytics/Event_Hubs.svg;" parent="A09IK0mkJr3Xp2zA0tw4-24" vertex="1">
          <mxGeometry x="37.085" y="60" width="55.83" height="50" as="geometry" />
        </mxCell>
        <mxCell id="A09IK0mkJr3Xp2zA0tw4-14" value="Azure&lt;br&gt;Data Factory" style="image;aspect=fixed;html=1;points=[];align=center;fontSize=12;image=img/lib/azure2/databases/Data_Factory.svg;" parent="A09IK0mkJr3Xp2zA0tw4-24" vertex="1">
          <mxGeometry x="40" y="340" width="50" height="50" as="geometry" />
        </mxCell>
        <mxCell id="A09IK0mkJr3Xp2zA0tw4-47" value="Lakehouse" style="swimlane;fillColor=light-dark(#FF3621,#FF3621);fontColor=#ffffff;strokeColor=#FF3621;fontSize=14;startSize=36;" parent="1" vertex="1">
          <mxGeometry x="350" y="60" width="580" height="460" as="geometry">
            <mxRectangle x="400" y="130" width="110" height="30" as="alternateBounds" />
          </mxGeometry>
        </mxCell>
        <mxCell id="8DbxGTEwBoXB_ghz781e-20" style="edgeStyle=orthogonalEdgeStyle;rounded=0;orthogonalLoop=1;jettySize=auto;html=1;entryX=0;entryY=0.5;entryDx=0;entryDy=0;" parent="A09IK0mkJr3Xp2zA0tw4-47" source="A09IK0mkJr3Xp2zA0tw4-34" target="8DbxGTEwBoXB_ghz781e-14" edge="1">
          <mxGeometry relative="1" as="geometry" />
        </mxCell>
        <mxCell id="IxwIb3dYdLttnHqc6bn6-1" style="edgeStyle=orthogonalEdgeStyle;rounded=0;orthogonalLoop=1;jettySize=auto;html=1;exitX=1;exitY=0.5;exitDx=0;exitDy=0;entryX=0;entryY=0.5;entryDx=0;entryDy=0;" edge="1" parent="A09IK0mkJr3Xp2zA0tw4-47" source="A09IK0mkJr3Xp2zA0tw4-34" target="8DbxGTEwBoXB_ghz781e-12">
          <mxGeometry relative="1" as="geometry" />
        </mxCell>
        <mxCell id="A09IK0mkJr3Xp2zA0tw4-34" value="ETL" style="swimlane;fillColor=#647687;fontColor=#ffffff;strokeColor=#314354;fontSize=14;startSize=36;" parent="A09IK0mkJr3Xp2zA0tw4-47" vertex="1">
          <mxGeometry x="20" y="135" width="290" height="230" as="geometry">
            <mxRectangle x="400" y="130" width="110" height="30" as="alternateBounds" />
          </mxGeometry>
        </mxCell>
        <mxCell id="1G0nagz6v2ccPys6KGnb-12" value="" style="edgeStyle=orthogonalEdgeStyle;rounded=0;orthogonalLoop=1;jettySize=auto;html=1;dashed=1;" parent="A09IK0mkJr3Xp2zA0tw4-34" source="A09IK0mkJr3Xp2zA0tw4-2" target="A09IK0mkJr3Xp2zA0tw4-3" edge="1">
          <mxGeometry relative="1" as="geometry" />
        </mxCell>
        <mxCell id="A09IK0mkJr3Xp2zA0tw4-2" value="Bronze&lt;br&gt;(Raw)" style="html=1;verticalLabelPosition=bottom;align=center;labelBackgroundColor=#ffffff;verticalAlign=top;strokeWidth=2;strokeColor=#CC6600;shadow=0;dashed=0;shape=mxgraph.ios7.icons.data;" parent="A09IK0mkJr3Xp2zA0tw4-34" vertex="1">
          <mxGeometry x="30" y="97.5" width="50" height="40" as="geometry" />
        </mxCell>
        <mxCell id="1G0nagz6v2ccPys6KGnb-11" value="" style="edgeStyle=orthogonalEdgeStyle;rounded=0;orthogonalLoop=1;jettySize=auto;html=1;dashed=1;entryX=-0.007;entryY=0.458;entryDx=0;entryDy=0;entryPerimeter=0;" parent="A09IK0mkJr3Xp2zA0tw4-34" source="A09IK0mkJr3Xp2zA0tw4-3" target="A09IK0mkJr3Xp2zA0tw4-4" edge="1">
          <mxGeometry relative="1" as="geometry" />
        </mxCell>
        <mxCell id="A09IK0mkJr3Xp2zA0tw4-3" value="Silver&lt;br&gt;(Refined)" style="html=1;verticalLabelPosition=bottom;align=center;labelBackgroundColor=#ffffff;verticalAlign=top;strokeWidth=2;strokeColor=#C0C0C0;shadow=0;dashed=0;shape=mxgraph.ios7.icons.data;" parent="A09IK0mkJr3Xp2zA0tw4-34" vertex="1">
          <mxGeometry x="120" y="97.5" width="50" height="40" as="geometry" />
        </mxCell>
        <mxCell id="A09IK0mkJr3Xp2zA0tw4-4" value="Gold&lt;br&gt;(Aggregated)" style="html=1;verticalLabelPosition=bottom;align=center;labelBackgroundColor=#ffffff;verticalAlign=top;strokeWidth=2;strokeColor=#FCC200;shadow=0;dashed=0;shape=mxgraph.ios7.icons.data;" parent="A09IK0mkJr3Xp2zA0tw4-34" vertex="1">
          <mxGeometry x="210" y="45" width="50" height="40" as="geometry" />
        </mxCell>
        <mxCell id="1G0nagz6v2ccPys6KGnb-13" value="Gold&lt;br&gt;(Aggregated)" style="html=1;verticalLabelPosition=bottom;align=center;labelBackgroundColor=#ffffff;verticalAlign=top;strokeWidth=2;strokeColor=#FCC200;shadow=0;dashed=0;shape=mxgraph.ios7.icons.data;" parent="A09IK0mkJr3Xp2zA0tw4-34" vertex="1">
          <mxGeometry x="210" y="145" width="50" height="40" as="geometry" />
        </mxCell>
        <mxCell id="1G0nagz6v2ccPys6KGnb-14" style="edgeStyle=orthogonalEdgeStyle;rounded=0;orthogonalLoop=1;jettySize=auto;html=1;entryX=-0.007;entryY=0.558;entryDx=0;entryDy=0;entryPerimeter=0;dashed=1;" parent="A09IK0mkJr3Xp2zA0tw4-34" source="A09IK0mkJr3Xp2zA0tw4-3" target="1G0nagz6v2ccPys6KGnb-13" edge="1">
          <mxGeometry relative="1" as="geometry" />
        </mxCell>
        <mxCell id="8DbxGTEwBoXB_ghz781e-14" value="Machine Learning" style="swimlane;fillColor=#647687;fontColor=#ffffff;strokeColor=#314354;fontSize=14;startSize=36;" parent="A09IK0mkJr3Xp2zA0tw4-47" vertex="1">
          <mxGeometry x="360" y="50" width="160" height="110" as="geometry">
            <mxRectangle x="400" y="130" width="110" height="30" as="alternateBounds" />
          </mxGeometry>
        </mxCell>
        <mxCell id="8DbxGTEwBoXB_ghz781e-16" value="" style="shape=image;imageAspect=0;aspect=fixed;verticalLabelPosition=bottom;verticalAlign=top;image=https://avatars2.githubusercontent.com/u/39938107?s=400&amp;v=4;" parent="8DbxGTEwBoXB_ghz781e-14" vertex="1">
          <mxGeometry x="49" y="46" width="60" height="60" as="geometry" />
        </mxCell>
        <mxCell id="8DbxGTEwBoXB_ghz781e-12" value="AI/BI Analytics" style="swimlane;fillColor=#647687;fontColor=#ffffff;strokeColor=#314354;fontSize=14;startSize=36;" parent="A09IK0mkJr3Xp2zA0tw4-47" vertex="1">
          <mxGeometry x="360" y="330" width="160" height="120" as="geometry">
            <mxRectangle x="400" y="130" width="110" height="30" as="alternateBounds" />
          </mxGeometry>
        </mxCell>
        <mxCell id="8DbxGTEwBoXB_ghz781e-18" value="" style="image;sketch=0;aspect=fixed;html=1;points=[];align=center;fontSize=12;image=img/lib/mscae/Chart.svg;" parent="8DbxGTEwBoXB_ghz781e-12" vertex="1">
          <mxGeometry x="55" y="50" width="50" height="48" as="geometry" />
        </mxCell>
        <mxCell id="OYOdB8hLhjcsJ94Izrda-2" value="Goverance, Security, Observabiity, Interoperatibility, Sharing" style="swimlane;fillColor=light-dark(#FF3621,#FF3621);fontColor=#ffffff;strokeColor=#FF3621;fontSize=14;startSize=36;" parent="1" vertex="1">
          <mxGeometry x="350" y="530" width="580" height="90" as="geometry">
            <mxRectangle x="400" y="130" width="110" height="30" as="alternateBounds" />
          </mxGeometry>
        </mxCell>
        <mxCell id="OYOdB8hLhjcsJ94Izrda-1" value="Unity Catalog" style="shape=image;verticalLabelPosition=middle;labelBackgroundColor=default;verticalAlign=middle;aspect=fixed;imageAspect=0;editableCssRules=.*;image=data:image/svg+xml,PHN2ZyB4bWxucz0iaHR0cDovL3d3dy53My5vcmcvMjAwMC9zdmciIGZpbGw9Im5vbmUiIHZpZXdCb3g9IjguMzIyNzY1MDA5NDYwNDQ5IDEwLjg1MjYzNTA0MjcyNDYwOSA1NC4zNjY5OTkzNTQyNDgwNDQgNDkuNDcxNTI5Njg4NzIwNyIgaGVpZ2h0PSI0OS40NzE1Mjk2ODg3MjA3IiB3aWR0aD0iNTQuMzY2OTk5MzU0MjQ4MDQ0Ij4mI3hhOzxwYXRoIHN0cm9rZS1saW5lY2FwPSJzcXVhcmUiIHN0cm9rZS1taXRlcmxpbWl0PSIzIiBzdHJva2Utd2lkdGg9IjEuNDAwMTMiIHN0cm9rZT0iI0ZGNUY0NiIgZD0iTTE5LjA5NDUgNTkuNjIzOUMyNC42NTc3IDU5LjYyMzkgMjkuMTY2MSA1NS4xMTU1IDI5LjE2NjEgNDkuNTUyM1YxMS41NTI3SDYxLjk4OTdWNDkuNTUyM0M2MS45ODk3IDU1LjExNTUgNTcuNDgxNSA1OS42MjM5IDUxLjkxODMgNTkuNjIzOSIvPiYjeGE7PHBhdGggc3Ryb2tlLWxpbmVjYXA9InNxdWFyZSIgc3Ryb2tlLW1pdGVybGltaXQ9IjMiIHN0cm9rZS13aWR0aD0iMS40MDAxMyIgc3Ryb2tlPSIjRkY1RjQ2IiBkPSJNNTEuOTE4NCA1OS42MjRIMjkuODE5NiIvPiYjeGE7PHBhdGggc3Ryb2tlLWxpbmVjYXA9InNxdWFyZSIgc3Ryb2tlLW1pdGVybGltaXQ9IjMiIHN0cm9rZS13aWR0aD0iMS40MDAxMyIgc3Ryb2tlPSIjRkY1RjQ2IiBkPSJNMTkuMDk0NSA1OS42MjQxQzEzLjUzMTMgNTkuNjI0MSA5LjAyMjgzIDU1LjExNTcgOS4wMjI4MyA0OS41NTI1VjE4LjkzMTYiLz4mI3hhOzxwYXRoIHN0cm9rZS1saW5lY2FwPSJzcXVhcmUiIHN0cm9rZS1taXRlcmxpbWl0PSIzIiBzdHJva2Utd2lkdGg9IjEuNDAwMTMiIHN0cm9rZT0iI0ZGNUY0NiIgZD0iTTkuMDI3NDcgMTguOTMxNkgyNC40MjQ0Ii8+JiN4YTs8cGF0aCBzdHJva2UtbGluZWNhcD0ic3F1YXJlIiBzdHJva2UtbWl0ZXJsaW1pdD0iMyIgc3Ryb2tlLXdpZHRoPSIxLjQwMDEzIiBzdHJva2U9IiNGRjVGNDYiIGQ9Ik0zNS4wNzQ2IDI0Ljg0NDdINTYuMjY4Ii8+JiN4YTs8cGF0aCBzdHJva2UtbGluZWNhcD0ic3F1YXJlIiBzdHJva2UtbWl0ZXJsaW1pdD0iMyIgc3Ryb2tlLXdpZHRoPSIxLjQwMDEzIiBzdHJva2U9IiNGRjVGNDYiIGQ9Ik0zNS4wNzQ2IDM1Ljk0MjRINTYuMjY4Ii8+JiN4YTs8cGF0aCBzdHJva2UtbGluZWNhcD0ic3F1YXJlIiBzdHJva2UtbWl0ZXJsaW1pdD0iMyIgc3Ryb2tlLXdpZHRoPSIxLjQwMDEzIiBzdHJva2U9IiNGRjVGNDYiIGQ9Ik0zNS4wNzQ2IDQ3LjA0NTlINTYuMjY4Ii8+JiN4YTs8L3N2Zz4=;labelPosition=right;align=left;" parent="OYOdB8hLhjcsJ94Izrda-2" vertex="1">
          <mxGeometry x="30" y="45" width="40" height="36.3" as="geometry" />
        </mxCell>
        <mxCell id="1G0nagz6v2ccPys6KGnb-19" value="Delta Lake" style="shape=image;imageAspect=0;aspect=fixed;verticalLabelPosition=middle;verticalAlign=middle;image=https://www.thatbluecloud.com/content/images/2023/08/delta-lake-logo-528274377.png;labelPosition=right;align=left;" parent="OYOdB8hLhjcsJ94Izrda-2" vertex="1">
          <mxGeometry x="182" y="43" width="41.27" height="40" as="geometry" />
        </mxCell>
        <mxCell id="8DbxGTEwBoXB_ghz781e-5" value="" style="shape=image;imageAspect=0;aspect=fixed;verticalLabelPosition=bottom;verticalAlign=top;image=https://blogger.googleusercontent.com/img/b/R29vZ2xl/AVvXsEgt38F78lbRW1Am0jP3_GZGgpluZI8HZ2E9b8eNyyvioACDEoivyUH023kLpr6UUt641zfqKSGFgCxWG7zzinGeoT4V7nLRtUVdh_Z4pxP3-pCVbJz-lJgA0KRPOd1H16MRUL8sPB0BwjuerLrt9_RsW6QO8GuZql6d2hVBFu24DTx5rDxJLOi-d5cKxQ/s2225/Logo%20Apache%20Spark.png;" parent="OYOdB8hLhjcsJ94Izrda-2" vertex="1">
          <mxGeometry x="470" y="42.6" width="76.75" height="40" as="geometry" />
        </mxCell>
        <mxCell id="8DbxGTEwBoXB_ghz781e-6" value="Azure&lt;br&gt;Data Lake" style="image;aspect=fixed;html=1;points=[];align=left;fontSize=12;image=img/lib/azure2/storage/Storage_Accounts.svg;labelPosition=right;verticalLabelPosition=middle;verticalAlign=middle;" parent="OYOdB8hLhjcsJ94Izrda-2" vertex="1">
          <mxGeometry x="331" y="44" width="50" height="40" as="geometry" />
        </mxCell>
        <mxCell id="1G0nagz6v2ccPys6KGnb-20" value="Azure Platform" style="swimlane;fillColor=#647687;fontColor=#ffffff;strokeColor=#314354;fontSize=14;startSize=36;" parent="1" vertex="1">
          <mxGeometry x="350" y="630" width="580" height="100" as="geometry">
            <mxRectangle x="400" y="130" width="110" height="30" as="alternateBounds" />
          </mxGeometry>
        </mxCell>
        <mxCell id="1G0nagz6v2ccPys6KGnb-24" value="Azure&lt;div&gt;Entra ID&lt;/div&gt;" style="image;aspect=fixed;html=1;points=[];align=left;fontSize=12;image=img/lib/azure2/other/Entra_Identity.svg;labelPosition=right;verticalLabelPosition=middle;verticalAlign=middle;flipV=0;flipH=0;" parent="1G0nagz6v2ccPys6KGnb-20" vertex="1">
          <mxGeometry x="7.5" y="50" width="45" height="40" as="geometry" />
        </mxCell>
        <mxCell id="1G0nagz6v2ccPys6KGnb-25" value="Azure&lt;div&gt;&lt;span style=&quot;background-color: light-dark(#ffffff, var(--ge-dark-color, #121212)); color: light-dark(rgb(0, 0, 0), rgb(255, 255, 255));&quot;&gt;Cost Management&lt;/span&gt;&lt;/div&gt;" style="image;aspect=fixed;html=1;points=[];align=left;fontSize=12;image=img/lib/azure2/general/Cost_Management.svg;labelPosition=right;verticalLabelPosition=middle;verticalAlign=middle;flipV=0;flipH=0;" parent="1G0nagz6v2ccPys6KGnb-20" vertex="1">
          <mxGeometry x="120" y="50" width="44.67" height="40" as="geometry" />
        </mxCell>
        <mxCell id="1G0nagz6v2ccPys6KGnb-26" value="Azure&lt;div&gt;Key Vault&lt;/div&gt;" style="image;aspect=fixed;html=1;points=[];align=left;fontSize=12;image=img/lib/azure2/security/Key_Vaults.svg;convertToSvg=0;labelPosition=right;verticalLabelPosition=middle;verticalAlign=middle;flipV=0;flipH=0;" parent="1G0nagz6v2ccPys6KGnb-20" vertex="1">
          <mxGeometry x="280" y="50" width="40" height="40" as="geometry" />
        </mxCell>
        <mxCell id="1G0nagz6v2ccPys6KGnb-27" value="Azure&lt;div&gt;Monitor&lt;/div&gt;" style="image;aspect=fixed;html=1;points=[];align=left;fontSize=12;image=img/lib/azure2/management_governance/Monitor.svg;labelPosition=right;verticalLabelPosition=middle;verticalAlign=middle;flipV=0;flipH=0;" parent="1G0nagz6v2ccPys6KGnb-20" vertex="1">
          <mxGeometry x="390" y="50" width="40" height="40" as="geometry" />
        </mxCell>
        <mxCell id="1G0nagz6v2ccPys6KGnb-31" value="Azure&lt;br&gt;Devops" style="image;sketch=0;aspect=fixed;html=1;points=[];align=left;fontSize=12;image=img/lib/mscae/Azure_DevOps.svg;labelPosition=right;verticalLabelPosition=middle;verticalAlign=middle;flipV=0;flipH=0;" parent="1G0nagz6v2ccPys6KGnb-20" vertex="1">
          <mxGeometry x="490" y="50" width="40" height="40" as="geometry" />
        </mxCell>
        <mxCell id="8DbxGTEwBoXB_ghz781e-1" value="Databricks" style="shape=image;verticalLabelPosition=middle;labelBackgroundColor=none;verticalAlign=middle;aspect=fixed;imageAspect=0;editableCssRules=.*;image=data:image/svg+xml,PHN2ZyB4bWxucz0iaHR0cDovL3d3dy53My5vcmcvMjAwMC9zdmciIHZpZXdCb3g9IjEuMTU0OTk5OTcxMzg5NzcwNSAwLjUgMTUuNjkwMDAxNDg3NzMxOTM0IDE3IiBoZWlnaHQ9IjE3IiB3aWR0aD0iMTUuNjkwMDAxNDg3NzMxOTM0IiBpZD0iYjFlNzE0NzktMjEzOC00NGUwLWFkZjAtMDJmZTlmZWQ1YzFlIj48cGF0aCBmaWxsPSIjZmYzNjIxIiBkPSJNMS4xNTUsNC45M3YuNTEyTDksOS44NjhsNy4wMDYtMy45NTcsMCwxLjZMOSwxMS40OTEsMS41NSw3LjI1OGwtLjM5NS4yMlYxMC41NEw5LDE0Ljk1NWw3LjAwNi0zLjk0MiwwLDEuNTg2TDksMTYuNTgxLDEuNTUsMTIuMzQ3bC0uMzk1LjIydi41MTlMOSwxNy41bDcuODQ1LTQuNDE0VjEwLjAyMWwtLjQtLjIxOEw5LDE0LjAzNiwxLjk5MiwxMC4wNTRWOC40NzZMOSwxMi40MTQsMTYuODQ1LDhWNC45NzhsLS40LS4yMTlMOSw4Ljk5MywyLjM1Miw1LjIxNSw5LDEuNDZsNS40NzYsMy4wOTQuNDc5LS4yNjlWMy44NjNMOSwuNVoiLz48L3N2Zz4=;labelPosition=right;align=left;spacing=6;fontStyle=1;fontSize=14;" parent="1" vertex="1">
          <mxGeometry x="360" y="10" width="40" height="42.5" as="geometry" />
        </mxCell>
        <mxCell id="8DbxGTEwBoXB_ghz781e-7" value="BI Reporting" style="swimlane;fillColor=#647687;fontColor=#ffffff;strokeColor=#314354;fontSize=14;startSize=36;" parent="1" vertex="1">
          <mxGeometry x="950" y="227.5" width="120" height="145" as="geometry">
            <mxRectangle x="400" y="130" width="110" height="30" as="alternateBounds" />
          </mxGeometry>
        </mxCell>
        <mxCell id="8DbxGTEwBoXB_ghz781e-11" value="PowerBI" style="image;aspect=fixed;html=1;points=[];align=center;fontSize=12;image=img/lib/azure2/power_platform/PowerBI.svg;" parent="8DbxGTEwBoXB_ghz781e-7" vertex="1">
          <mxGeometry x="45" y="65" width="30" height="40" as="geometry" />
        </mxCell>
        <mxCell id="8DbxGTEwBoXB_ghz781e-21" style="edgeStyle=orthogonalEdgeStyle;rounded=0;orthogonalLoop=1;jettySize=auto;html=1;entryX=0;entryY=0.5;entryDx=0;entryDy=0;" parent="1" source="A09IK0mkJr3Xp2zA0tw4-38" edge="1">
          <mxGeometry relative="1" as="geometry">
            <mxPoint x="950" y="310" as="targetPoint" />
          </mxGeometry>
        </mxCell>
        <mxCell id="8DbxGTEwBoXB_ghz781e-23" style="edgeStyle=orthogonalEdgeStyle;rounded=0;orthogonalLoop=1;jettySize=auto;html=1;entryX=0.5;entryY=0;entryDx=0;entryDy=0;" parent="1" source="A09IK0mkJr3Xp2zA0tw4-38" target="8DbxGTEwBoXB_ghz781e-12" edge="1">
          <mxGeometry relative="1" as="geometry" />
        </mxCell>
        <mxCell id="A09IK0mkJr3Xp2zA0tw4-38" value="Data Warehouse" style="swimlane;fillColor=#647687;fontColor=#ffffff;strokeColor=#314354;fontSize=14;startSize=36;" parent="1" vertex="1">
          <mxGeometry x="710" y="250" width="160" height="120" as="geometry">
            <mxRectangle x="400" y="130" width="110" height="30" as="alternateBounds" />
          </mxGeometry>
        </mxCell>
        <mxCell id="A09IK0mkJr3Xp2zA0tw4-42" value="Databricks SQL" style="html=1;verticalLabelPosition=bottom;align=center;labelBackgroundColor=#ffffff;verticalAlign=top;strokeWidth=2;strokeColor=#6c8ebf;shadow=0;dashed=0;shape=mxgraph.ios7.icons.data;fillColor=#dae8fc;gradientColor=#7ea6e0;" parent="A09IK0mkJr3Xp2zA0tw4-38" vertex="1">
          <mxGeometry x="55" y="50" width="50" height="40" as="geometry" />
        </mxCell>
        <mxCell id="8DbxGTEwBoXB_ghz781e-24" style="edgeStyle=orthogonalEdgeStyle;rounded=0;orthogonalLoop=1;jettySize=auto;html=1;entryX=0;entryY=0.5;entryDx=0;entryDy=0;" parent="1" source="A09IK0mkJr3Xp2zA0tw4-34" target="A09IK0mkJr3Xp2zA0tw4-38" edge="1">
          <mxGeometry relative="1" as="geometry" />
        </mxCell>
      </root>
    </mxGraphModel>
  </diagram>
  <diagram name="Copy of Medallion Arch" id="tObxjMAkNpjy_pT8Q0sr">
    <mxGraphModel dx="1418" dy="874" grid="1" gridSize="10" guides="1" tooltips="1" connect="1" arrows="1" fold="1" page="1" pageScale="1" pageWidth="1169" pageHeight="827" background="none" math="0" shadow="0">
      <root>
        <mxCell id="reJXSmA4aoyDP7H5V71n-0" />
        <mxCell id="reJXSmA4aoyDP7H5V71n-1" parent="reJXSmA4aoyDP7H5V71n-0" />
        <mxCell id="reJXSmA4aoyDP7H5V71n-2" value="Data flow architecture" style="text;whiteSpace=wrap;fontSize=20;fontStyle=1" vertex="1" parent="reJXSmA4aoyDP7H5V71n-1">
          <mxGeometry x="50" y="20" width="220" height="40" as="geometry" />
        </mxCell>
        <mxCell id="reJXSmA4aoyDP7H5V71n-3" style="edgeStyle=orthogonalEdgeStyle;rounded=0;orthogonalLoop=1;jettySize=auto;html=1;entryX=0;entryY=0.5;entryDx=0;entryDy=0;strokeColor=#009900;strokeWidth=2;" edge="1" parent="reJXSmA4aoyDP7H5V71n-1" source="reJXSmA4aoyDP7H5V71n-4" target="reJXSmA4aoyDP7H5V71n-14">
          <mxGeometry relative="1" as="geometry" />
        </mxCell>
        <mxCell id="reJXSmA4aoyDP7H5V71n-4" value="Data Sources" style="swimlane;fillColor=#647687;fontColor=#ffffff;strokeColor=#314354;fontSize=14;startSize=36;fillStyle=auto;" vertex="1" parent="reJXSmA4aoyDP7H5V71n-1">
          <mxGeometry x="50" y="60" width="115" height="600" as="geometry">
            <mxRectangle x="400" y="130" width="110" height="30" as="alternateBounds" />
          </mxGeometry>
        </mxCell>
        <mxCell id="reJXSmA4aoyDP7H5V71n-5" value="" style="shape=image;verticalLabelPosition=bottom;labelBackgroundColor=default;verticalAlign=top;aspect=fixed;imageAspect=0;editableCssRules=.*;image=data:image/svg+xml,PHN2ZyB4bWxuczp4bGluaz0iaHR0cDovL3d3dy53My5vcmcvMTk5OS94bGluayIgeG1sbnM9Imh0dHA6Ly93d3cudzMub3JnLzIwMDAvc3ZnIiB4bWw6c3BhY2U9InByZXNlcnZlIiBzdHlsZT0iZW5hYmxlLWJhY2tncm91bmQ6bmV3IDAgMCAyNjIgMTg0OyIgdmlld0JveD0iMS4wOTk5OTg0NzQxMjEwOTM4IDEgMjU5Ljg5OTk5Mzg5NjQ4NDQgMTgxLjk5OTk4NDc0MTIxMDk0IiB5PSIwcHgiIHg9IjBweCIgaWQ9IkxheWVyXzEiIHZlcnNpb249IjEuMSIgd2lkdGg9IjI1OS44OTk5OTM4OTY0ODQ0IiBoZWlnaHQ9IjE4MS45OTk5ODQ3NDEyMTA5NCI+JiN4YTs8c3R5bGUgdHlwZT0idGV4dC9jc3MiPiYjeGE7CS5zdDB7ZmlsbDojMDBBMUUwO30mI3hhOwkuc3Qxe2ZpbGw6I0ZGRkZGRjt9JiN4YTs8L3N0eWxlPiYjeGE7PHRpdGxlPmxvZ28tc2FsZXNmb3JjZTwvdGl0bGU+JiN4YTs8ZGVzYz5DcmVhdGVkIHdpdGggU2tldGNoLjwvZGVzYz4mI3hhOzxnIGlkPSJUZXN0LUIiPiYjeGE7CTxnIGlkPSJNb2JpbGUtTmF2LS0tVGVzdC1CLV94MjhfMF94MjlfIj4mI3hhOwkJPGcgaWQ9Ikdyb3VwIj4mI3hhOwkJCTxnIGlkPSJsb2dvLXNhbGVzZm9yY2UiPiYjeGE7CQkJCTxwYXRoIGQ9Ik0xMDkuMiwyMC45YzguNC04LjcsMjAuMS0xNC4yLDMzLTE0LjJjMTcuMiwwLDMyLjEsOS42LDQwLjEsMjMuOGM2LjktMy4xLDE0LjYtNC44LDIyLjctNC44JiMxMDsmIzk7JiM5OyYjOTsmIzk7JiM5O2MzMSwwLDU2LDI1LjMsNTYsNTYuNXMtMjUuMSw1Ni41LTU2LDU2LjVjLTMuOCwwLTcuNS0wLjQtMTEtMS4xYy03LDEyLjUtMjAuNCwyMS0zNS44LDIxYy02LjQsMC0xMi41LTEuNS0xNy45LTQuMSYjMTA7JiM5OyYjOTsmIzk7JiM5OyYjOTtjLTcuMSwxNi43LTIzLjcsMjguNS00MywyOC41Yy0yMC4xLDAtMzcuMy0xMi43LTQzLjktMzAuNmMtMi45LDAuNi01LjksMC45LTguOSwwLjljLTI0LDAtNDMuNC0xOS42LTQzLjQtNDMuOSYjMTA7JiM5OyYjOTsmIzk7JiM5OyYjOTtjMC0xNi4yLDguNy0zMC40LDIxLjctMzhjLTIuNy02LjEtNC4yLTEyLjktNC4yLTIwLjFDMTguNSwyMy42LDQxLjIsMSw2OSwxQzg1LjQsMSwxMDAsOC44LDEwOS4yLDIwLjkiIGNsYXNzPSJzdDAiIGlkPSJGaWxsLTEiLz4mI3hhOwkJCQk8cGF0aCBkPSJNMzguNyw5NS40bDEuMS0yLjljMC4yLTAuNSwwLjUtMC4zLDAuNy0wLjJjMC4zLDAuMiwwLjUsMC4zLDAuOSwwLjZjMy4xLDIsNiwyLDYuOSwyJiMxMDsmIzk7JiM5OyYjOTsmIzk7JiM5O2MyLjMsMCwzLjgtMS4yLDMuOC0yLjl2LTAuMWMwLTEuOC0yLjItMi41LTQuOC0zLjNsLTAuNi0wLjJjLTMuNS0xLTcuMy0yLjUtNy4zLTYuOXYtMC4xYzAtNC4yLDMuNC03LjIsOC4zLTcuMmwwLjUsMCYjMTA7JiM5OyYjOTsmIzk7JiM5OyYjOTtjMi45LDAsNS42LDAuOCw3LjYsMi4xYzAuMiwwLjEsMC40LDAuMywwLjMsMC42Yy0wLjEsMC4zLTEsMi42LTEuMSwyLjljLTAuMiwwLjUtMC43LDAuMi0wLjcsMC4yYy0xLjgtMS00LjUtMS43LTYuOC0xLjcmIzEwOyYjOTsmIzk7JiM5OyYjOTsmIzk7Yy0yLjEsMC0zLjQsMS4xLTMuNCwyLjZ2MC4xYzAsMS43LDIuMywyLjUsNC45LDMuM2wwLjUsMC4xYzMuNSwxLjEsNy4yLDIuNiw3LjIsNi45djAuMWMwLDQuNi0zLjMsNy40LTguNiw3LjQmIzEwOyYjOTsmIzk7JiM5OyYjOTsmIzk7Yy0yLjYsMC01LjEtMC40LTcuOC0xLjhjLTAuNS0wLjMtMS0wLjUtMS41LTAuOUMzOC43LDk1LjksMzguNSw5NS44LDM4LjcsOTUuNHogTTExNi43LDk1LjRsMS4xLTIuOWMwLjItMC41LDAuNi0wLjMsMC43LTAuMiYjMTA7JiM5OyYjOTsmIzk7JiM5OyYjOTtjMC4zLDAuMiwwLjUsMC4zLDAuOSwwLjZjMy4xLDIsNiwyLDYuOSwyYzIuMywwLDMuOC0xLjIsMy44LTIuOXYtMC4xYzAtMS44LTIuMi0yLjUtNC44LTMuM2wtMC42LTAuMmMtMy41LTEtNy4zLTIuNS03LjMtNi45JiMxMDsmIzk7JiM5OyYjOTsmIzk7JiM5O3YtMC4xYzAtNC4yLDMuNC03LjIsOC4zLTcuMmwwLjUsMGMyLjksMCw1LjYsMC44LDcuNiwyLjFjMC4yLDAuMSwwLjQsMC4zLDAuMywwLjZjLTAuMSwwLjMtMSwyLjYtMS4xLDIuOSYjMTA7JiM5OyYjOTsmIzk7JiM5OyYjOTtjLTAuMiwwLjUtMC43LDAuMi0wLjcsMC4yYy0xLjgtMS00LjUtMS43LTYuOC0xLjdjLTIuMSwwLTMuNCwxLjEtMy40LDIuNnYwLjFjMCwxLjcsMi4zLDIuNSw0LjksMy4zbDAuNSwwLjEmIzEwOyYjOTsmIzk7JiM5OyYjOTsmIzk7YzMuNSwxLjEsNy4yLDIuNiw3LjIsNi45djAuMWMwLDQuNi0zLjMsNy40LTguNiw3LjRjLTIuNiwwLTUuMS0wLjQtNy44LTEuOGMtMC41LTAuMy0xLTAuNS0xLjUtMC45JiMxMDsmIzk7JiM5OyYjOTsmIzk7JiM5O0MxMTYuOCw5NS45LDExNi42LDk1LjgsMTE2LjcsOTUuNHogTTE3NC41LDgxLjdjMC40LDEuNSwwLjcsMy4xLDAuNyw0LjhzLTAuMiwzLjMtMC43LDQuOGMtMC40LDEuNS0xLjEsMi44LTIsMy45JiMxMDsmIzk7JiM5OyYjOTsmIzk7JiM5O2MtMC45LDEuMS0yLjEsMi0zLjQsMi42Yy0xLjQsMC42LTMsMC45LTQuOCwwLjljLTEuOCwwLTMuNC0wLjMtNC44LTAuOWMtMS40LTAuNi0yLjUtMS41LTMuNC0yLjZjLTAuOS0xLjEtMS42LTIuNC0yLTMuOSYjMTA7JiM5OyYjOTsmIzk7JiM5OyYjOTtjLTAuNC0xLjUtMC43LTMuMS0wLjctNC44YzAtMS43LDAuMi0zLjMsMC43LTQuOGMwLjQtMS41LDEuMS0yLjgsMi0zLjljMC45LTEuMSwyLjEtMiwzLjQtMi42YzEuNC0wLjYsMy0xLDQuOC0xJiMxMDsmIzk7JiM5OyYjOTsmIzk7JiM5O2MxLjgsMCwzLjQsMC4zLDQuOCwxYzEuNCwwLjYsMi41LDEuNSwzLjQsMi42QzE3My40LDc4LjksMTc0LjEsODAuMiwxNzQuNSw4MS43eiBNMTcwLDg2LjRjMC0yLjYtMC41LTQuNi0xLjQtNiYjMTA7JiM5OyYjOTsmIzk7JiM5OyYjOTtjLTAuOS0xLjQtMi40LTIuMS00LjMtMi4xYy0yLDAtMy40LDAuNy00LjMsMi4xYy0wLjksMS40LTEuNCwzLjQtMS40LDZjMCwyLjYsMC41LDQuNiwxLjQsNi4xYzAuOSwxLjQsMi4zLDIuMSw0LjMsMi4xJiMxMDsmIzk7JiM5OyYjOTsmIzk7JiM5O2MyLDAsMy40LTAuNyw0LjMtMi4xQzE2OS42LDkxLjEsMTcwLDg5LDE3MCw4Ni40eiBNMjExLjEsOTMuOWwxLjEsM2MwLjEsMC40LTAuMiwwLjUtMC4yLDAuNWMtMS43LDAuNy00LDEuMS02LjMsMS4xJiMxMDsmIzk7JiM5OyYjOTsmIzk7JiM5O2MtMy45LDAtNi44LTEuMS04LjgtMy4zYy0yLTIuMi0zLTUuMi0zLTguOWMwLTEuNywwLjItMy4zLDAuNy00LjhjMC41LTEuNSwxLjItMi44LDIuMi0zLjljMS0xLjEsMi4yLTIsMy42LTIuNiYjMTA7JiM5OyYjOTsmIzk7JiM5OyYjOTtjMS40LTAuNiwzLjEtMSw1LTFjMS4zLDAsMi40LDAuMSwzLjMsMC4yYzEsMC4yLDIuNCwwLjUsMywwLjhjMC4xLDAsMC40LDAuMiwwLjMsMC41Yy0wLjQsMS4yLTAuNywyLTEuMSwzJiMxMDsmIzk7JiM5OyYjOTsmIzk7JiM5O2MtMC4yLDAuNS0wLjUsMC4zLTAuNSwwLjNjLTEuNS0wLjUtMi45LTAuNy00LjctMC43Yy0yLjIsMC0zLjksMC43LTQuOSwyLjJjLTEuMSwxLjQtMS43LDMuMy0xLjcsNS45YzAsMi44LDAuNyw0LjgsMS45LDYuMSYjMTA7JiM5OyYjOTsmIzk7JiM5OyYjOTtjMS4yLDEuMywyLjksMS45LDUuMSwxLjljMC45LDAsMS43LTAuMSwyLjQtMC4yYzAuNy0wLjEsMS40LTAuMywyLjEtMC42QzIxMC41LDkzLjYsMjEwLjksOTMuNSwyMTEuMSw5My45eiBNMjMzLjgsODAuOCYjMTA7JiM5OyYjOTsmIzk7JiM5OyYjOTtjMSwzLjQsMC41LDYuMywwLjQsNi41YzAsMC40LTAuNCwwLjQtMC40LDAuNGwtMTUuMSwwYzAuMSwyLjMsMC42LDMuOSwxLjgsNWMxLjEsMS4xLDIuOCwxLjgsNS4yLDEuOGMzLjYsMCw1LjEtMC43LDYuMi0xLjEmIzEwOyYjOTsmIzk7JiM5OyYjOTsmIzk7YzAsMCwwLjQtMC4xLDAuNiwwLjNsMSwyLjhjMC4yLDAuNSwwLDAuNi0wLjEsMC43Yy0wLjksMC41LTMuMiwxLjUtNy42LDEuNWMtMi4xLDAtNC0wLjMtNS41LTAuOWMtMS41LTAuNi0yLjgtMS40LTMuOC0yLjUmIzEwOyYjOTsmIzk7JiM5OyYjOTsmIzk7Yy0xLTEuMS0xLjctMi40LTIuMi0zLjhjLTAuNS0xLjUtMC43LTMuMS0wLjctNC44YzAtMS43LDAuMi0zLjMsMC43LTQuOGMwLjQtMS41LDEuMS0yLjgsMi0zLjljMC45LTEuMSwyLjEtMiwzLjUtMi42JiMxMDsmIzk7JiM5OyYjOTsmIzk7JiM5O2MxLjQtMC43LDMuMS0xLDUtMWMxLjYsMCwzLjEsMC4zLDQuMywwLjljMC45LDAuNCwxLjksMS4xLDIuOSwyLjJDMjMyLjUsNzcuOSwyMzMuNCw3OS40LDIzMy44LDgwLjh6IE0yMTguOCw4NGgxMC43JiMxMDsmIzk7JiM5OyYjOTsmIzk7JiM5O2MtMC4xLTEuNC0wLjQtMi42LTEtMy42Yy0wLjktMS40LTIuMi0yLjItNC4yLTIuMmMtMiwwLTMuNCwwLjgtNC4zLDIuMkMyMTkuNCw4MS4zLDIxOS4xLDgyLjUsMjE4LjgsODR6IE0xMTMuMSw4MC44JiMxMDsmIzk7JiM5OyYjOTsmIzk7JiM5O2MxLDMuNCwwLjUsNi4zLDAuNSw2LjVjMCwwLjQtMC40LDAuNC0wLjQsMC40bC0xNS4xLDBjMC4xLDIuMywwLjYsMy45LDEuOCw1YzEuMSwxLjEsMi44LDEuOCw1LjIsMS44YzMuNiwwLDUuMS0wLjcsNi4yLTEuMSYjMTA7JiM5OyYjOTsmIzk7JiM5OyYjOTtjMCwwLDAuNC0wLjEsMC42LDAuM2wxLDIuOGMwLjIsMC41LDAsMC42LTAuMSwwLjdjLTAuOSwwLjUtMy4yLDEuNS03LjYsMS41Yy0yLjEsMC00LTAuMy01LjUtMC45Yy0xLjUtMC42LTIuOC0xLjQtMy44LTIuNSYjMTA7JiM5OyYjOTsmIzk7JiM5OyYjOTtjLTEtMS4xLTEuNy0yLjQtMi4yLTMuOGMtMC41LTEuNS0wLjctMy4xLTAuNy00LjhjMC0xLjcsMC4yLTMuMywwLjctNC44YzAuNC0xLjUsMS4xLTIuOCwyLTMuOWMwLjktMS4xLDIuMS0yLDMuNS0yLjYmIzEwOyYjOTsmIzk7JiM5OyYjOTsmIzk7YzEuNC0wLjcsMy4xLTEsNS0xYzEuNiwwLDMuMSwwLjMsNC4zLDAuOWMwLjksMC40LDEuOSwxLjEsMi45LDIuMkMxMTEuOCw3Ny45LDExMi44LDc5LjQsMTEzLjEsODAuOHogTTk4LjEsODRoMTAuOCYjMTA7JiM5OyYjOTsmIzk7JiM5OyYjOTtjLTAuMS0xLjQtMC40LTIuNi0xLTMuNmMtMC45LTEuNC0yLjItMi4yLTQuMi0yLjJjLTIsMC0zLjQsMC44LTQuMywyLjJDOTguNyw4MS4zLDk4LjQsODIuNSw5OC4xLDg0eiBNNzEuNiw4My4yJiMxMDsmIzk7JiM5OyYjOTsmIzk7JiM5O2MwLDAsMS4yLDAuMSwyLjUsMC4zdi0wLjZjMC0yLTAuNC0zLTEuMi0zLjZjLTAuOC0wLjYtMi4xLTEtMy43LTFjMCwwLTMuNywwLTYuNiwxLjVjLTAuMSwwLjEtMC4yLDAuMS0wLjIsMC4xJiMxMDsmIzk7JiM5OyYjOTsmIzk7JiM5O3MtMC40LDAuMS0wLjUtMC4ybC0xLjEtMi45Yy0wLjItMC40LDAuMS0wLjYsMC4xLTAuNmMxLjQtMS4xLDQuNi0xLjcsNC42LTEuN2MxLjEtMC4yLDIuOS0wLjQsNC0wLjRjMywwLDUuMywwLjcsNi45LDIuMSYjMTA7JiM5OyYjOTsmIzk7JiM5OyYjOTtjMS42LDEuNCwyLjQsMy42LDIuNCw2LjdsMCwxMy44YzAsMCwwLDAuNC0wLjMsMC41YzAsMC0wLjYsMC4yLTEuMSwwLjNjLTAuNSwwLjEtMi4zLDAuNS0zLjgsMC43Yy0xLjUsMC4zLTMsMC40LTQuNiwwLjQmIzEwOyYjOTsmIzk7JiM5OyYjOTsmIzk7Yy0xLjUsMC0yLjgtMC4xLTQtMC40Yy0xLjItMC4zLTIuMi0wLjctMy4xLTEuM2MtMC44LTAuNi0xLjUtMS40LTItMi40Yy0wLjUtMC45LTAuNy0yLjEtMC43LTMuNGMwLTEuMywwLjMtMi41LDAuOC0zLjUmIzEwOyYjOTsmIzk7JiM5OyYjOTsmIzk7YzAuNS0xLDEuMy0xLjgsMi4yLTIuNWMwLjktMC43LDItMS4xLDMuMS0xLjVjMS4yLTAuMywyLjQtMC41LDMuNy0wLjVDNzAuMiw4My4yLDcxLDgzLjIsNzEuNiw4My4yeiBNNjUuNiw5My44JiMxMDsmIzk7JiM5OyYjOTsmIzk7JiM5O2MwLDAsMS40LDEuMSw0LjQsMC45YzIuMi0wLjEsNC4xLTAuNSw0LjEtMC41di02LjljMCwwLTEuOS0wLjMtNC4xLTAuM2MtMy4xLDAtNC40LDEuMS00LjQsMS4xYy0wLjksMC42LTEuMywxLjYtMS4zLDIuOSYjMTA7JiM5OyYjOTsmIzk7JiM5OyYjOTtjMCwwLjgsMC4yLDEuNSwwLjUsMkM2NC45LDkzLjIsNjUsOTMuNCw2NS42LDkzLjh6IE0xOTMuMSw3NS41Yy0wLjEsMC40LTAuOSwyLjUtMS4xLDMuMmMtMC4xLDAuMy0wLjMsMC40LTAuNiwwLjQmIzEwOyYjOTsmIzk7JiM5OyYjOTsmIzk7YzAsMC0wLjktMC4yLTEuNy0wLjJjLTAuNSwwLTEuMywwLjEtMiwwLjNjLTAuNywwLjItMS4zLDAuNi0xLjksMS4xYy0wLjYsMC41LTEsMS4zLTEuMywyLjJjLTAuMywwLjktMC41LDIuNC0wLjUsNHYxMS4yJiMxMDsmIzk7JiM5OyYjOTsmIzk7JiM5O2MwLDAuMy0wLjIsMC41LTAuNSwwLjVoLTRjLTAuMywwLTAuNS0wLjItMC41LTAuNVY3NS4yYzAtMC4zLDAuMi0wLjUsMC40LTAuNWgzLjljMC4zLDAsMC40LDAuMiwwLjQsMC41Vjc3JiMxMDsmIzk7JiM5OyYjOTsmIzk7JiM5O2MwLjYtMC44LDEuNi0xLjUsMi41LTEuOWMwLjktMC40LDItMC43LDMuOS0wLjZjMSwwLjEsMi4zLDAuMywyLjUsMC40QzE5Myw3NSwxOTMuMiw3NS4xLDE5My4xLDc1LjV6IE0xNTYsNjUuMSYjMTA7JiM5OyYjOTsmIzk7JiM5OyYjOTtjMC4xLDAsMC40LDAuMiwwLjMsMC41bC0xLjIsMy4yYy0wLjEsMC4yLTAuMiwwLjQtMC43LDAuMmMtMC4xLDAtMC4zLTAuMS0wLjgtMC4yYy0wLjMtMC4xLTAuOC0wLjEtMS4yLTAuMSYjMTA7JiM5OyYjOTsmIzk7JiM5OyYjOTtjLTAuNiwwLTEuMSwwLjEtMS42LDAuMmMtMC41LDAuMS0wLjksMC40LTEuMywwLjhjLTAuNCwwLjQtMC44LDAuOS0xLjEsMS42Yy0wLjYsMS42LTAuOCwzLjMtMC44LDMuNGg0LjgmIzEwOyYjOTsmIzk7JiM5OyYjOTsmIzk7YzAuNCwwLDAuNSwwLjIsMC41LDAuNWwtMC42LDMuMWMtMC4xLDAuNS0wLjUsMC40LTAuNSwwLjRoLTVMMTQzLjYsOThjLTAuNCwyLTAuOCwzLjctMS4zLDUuMWMtMC41LDEuNC0xLjEsMi40LTIsMy40JiMxMDsmIzk7JiM5OyYjOTsmIzk7JiM5O2MtMC44LDAuOS0xLjcsMS42LTIuOCwxLjljLTEsMC40LTIuMywwLjYtMy43LDAuNmMtMC43LDAtMS40LDAtMi4yLTAuMmMtMC42LTAuMS0wLjktMC4yLTEuNC0wLjRjLTAuMi0wLjEtMC4zLTAuMy0wLjItMC42JiMxMDsmIzk7JiM5OyYjOTsmIzk7JiM5O2MwLjEtMC4zLDEtMi43LDEuMS0zLjFjMC4yLTAuNCwwLjUtMC4yLDAuNS0wLjJjMC4zLDAuMSwwLjUsMC4yLDAuOCwwLjNjMC40LDAuMSwwLjgsMC4xLDEuMiwwLjFjMC43LDAsMS4zLTAuMSwxLjgtMC4zJiMxMDsmIzk7JiM5OyYjOTsmIzk7JiM5O2MwLjYtMC4yLDEtMC42LDEuNC0xLjFjMC40LTAuNSwwLjctMS4yLDEuMS0yLjFjMC4zLTAuOSwwLjYtMi4yLDAuOS0zLjdsMy40LTE4LjloLTMuM2MtMC40LDAtMC41LTAuMi0wLjUtMC41bDAuNi0zLjEmIzEwOyYjOTsmIzk7JiM5OyYjOTsmIzk7YzAuMS0wLjUsMC41LTAuNCwwLjUtMC40aDMuNGwwLjItMWMwLjUtMywxLjUtNS4zLDMtNi44YzEuNS0xLjUsMy43LTIuMyw2LjQtMi4zYzAuOCwwLDEuNSwwLjEsMi4xLDAuMiYjMTA7JiM5OyYjOTsmIzk7JiM5OyYjOTtDMTU1LDY0LjgsMTU1LjUsNjQuOSwxNTYsNjUuMXogTTg4LjYsOTcuNmMwLDAuMy0wLjIsMC41LTAuNCwwLjVoLTRjLTAuMywwLTAuNC0wLjItMC40LTAuNVY2NS41YzAtMC4yLDAuMi0wLjUsMC40LTAuNWg0JiMxMDsmIzk7JiM5OyYjOTsmIzk7JiM5O2MwLjMsMCwwLjQsMC4yLDAuNCwwLjVWOTcuNnoiIGNsYXNzPSJzdDEiIGlkPSJDb21iaW5lZC1TaGFwZSIvPiYjeGE7CQkJPC9nPiYjeGE7CQk8L2c+JiN4YTsJPC9nPiYjeGE7PC9nPiYjeGE7PC9zdmc+;flipH=0;" vertex="1" parent="reJXSmA4aoyDP7H5V71n-4">
          <mxGeometry x="42.5" y="556" width="30" height="21" as="geometry" />
        </mxCell>
        <mxCell id="reJXSmA4aoyDP7H5V71n-6" value="Market Data" style="shape=image;verticalLabelPosition=bottom;labelBackgroundColor=default;verticalAlign=top;aspect=fixed;imageAspect=0;editableCssRules=.*;image=data:image/svg+xml,PHN2ZyB4bWxucz0iaHR0cDovL3d3dy53My5vcmcvMjAwMC9zdmciIHZpZXdCb3g9IjIxLjk5NDk5ODkzMTg4NDc2NiAyMiAxNDguMDA1MDA0ODgyODEyNSAxNDgiIGhlaWdodD0iNjE2LjY2NjY2NjY2NjY2NjciIHdpZHRoPSI2MTYuNjg3NTIwMzQ1MDUyMSI+JiN4YTsmI3hhOzxnIGZpbGw9Im5vbmUiPiYjeGE7JiN4YTs8cGF0aCBmaWxsPSJub25lIiBzdHlsZT0iZmlsbDojMDAwMDAwO2ZpbGwtb3BhY2l0eTowO3N0cm9rZTojMDAwMDAwO3N0cm9rZS13aWR0aDoxMjtzdHJva2UtbGluZWNhcDpyb3VuZDtzdHJva2UtbGluZWpvaW46cm91bmQ7c3Ryb2tlLW1pdGVybGltaXQ6NjtzdHJva2UtZGFzaGFycmF5Om5vbmU7cGFpbnQtb3JkZXI6c3Ryb2tlIGZpbGwgbWFya2VycyIgZD0iTTIyIDE0Mi41NzZoMTAuNzAyTTIyIDExNC43MTJoMTAuNzAyTTIyIDIydjE0OGgxNDhNMjEuOTk1IDMyLjkzNGgxMC43MDJtLTEwLjcwMiAyNy4zMmgxMC43MDJNMjEuOTk1IDg3LjM1NmgxMC43MDIiLz4mI3hhOyYjeGE7PHBhdGggc3R5bGU9ImZpbGwtb3BhY2l0eTowO3N0cm9rZTojMDAwMDAwO3N0cm9rZS13aWR0aDoxMjtzdHJva2UtbGluZWNhcDpyb3VuZDtzdHJva2UtbGluZWpvaW46cm91bmQ7c3Ryb2tlLW1pdGVybGltaXQ6NjtwYWludC1vcmRlcjpzdHJva2UgZmlsbCBtYXJrZXJzIiBkPSJNNjguODQyIDEyOC42OTVhMTAuNzgyIDEwLjc4MiAwIDAgMS0xMC43ODEgMTAuNzgxIDEwLjc4MiAxMC43ODIgMCAwIDEtMTAuNzgyLTEwLjc4MSAxMC43ODIgMTAuNzgyIDAgMCAxIDEwLjc4Mi0xMC43ODIgMTAuNzgyIDEwLjc4MiAwIDAgMSAxMC43ODEgMTAuNzgyek05NS4wNiA3Ni4zNThBMTAuNzgyIDEwLjc4MiAwIDAgMSA4NC4yNzcgODcuMTRhMTAuNzgyIDEwLjc4MiAwIDAgMS0xMC43ODItMTAuNzgyIDEwLjc4MiAxMC43ODIgMCAwIDEgMTAuNzgyLTEwLjc4MiAxMC43ODIgMTAuNzgyIDAgMCAxIDEwLjc4MSAxMC43ODJabTQzLjU3NiAzNi4zOTZhMTAuNzgyIDEwLjc4MiAwIDAgMS0xMC43ODIgMTAuNzgxIDEwLjc4MiAxMC43ODIgMCAwIDEtMTAuNzgxLTEwLjc4MSAxMC43ODIgMTAuNzgyIDAgMCAxIDEwLjc4MS0xMC43ODIgMTAuNzgyIDEwLjc4MiAwIDAgMSAxMC43ODIgMTAuNzgyem0yMS42MDQtNzMuMzk2YTEwLjc4MiAxMC43ODIgMCAwIDEtMTAuNzgyIDEwLjc4MiAxMC43ODIgMTAuNzgyIDAgMCAxLTEwLjc4Mi0xMC43ODIgMTAuNzgyIDEwLjc4MiAwIDAgMSAxMC43ODItMTAuNzgxIDEwLjc4MiAxMC43ODIgMCAwIDEgMTAuNzgxIDEwLjc4MXoiLz4mI3hhOyYjeGE7PHBhdGggZmlsbD0ibm9uZSIgc3R5bGU9ImZpbGw6IzAwMDAwMDtmaWxsLW9wYWNpdHk6MDtzdHJva2U6IzAwMDAwMDtzdHJva2Utd2lkdGg6ODtzdHJva2UtbGluZWNhcDpyb3VuZDtzdHJva2UtbGluZWpvaW46cm91bmQ7c3Ryb2tlLW1pdGVybGltaXQ6NjtzdHJva2UtZGFzaGFycmF5Om5vbmU7cGFpbnQtb3JkZXI6c3Ryb2tlIGZpbGwgbWFya2VycyIgZD0ibTY0LjM4IDExOC4xOTggMTQuMTE3LTMxLjM2Mm0xNS4wOC0yLjQyNCAyNC4zMzMgMjEuMTI0bTEzLjY2OC00LjA2NyAxNS41My01Mi4zOTMiLz4mI3hhOyYjeGE7PC9nPiYjeGE7JiN4YTs8L3N2Zz4=;flipH=0;" vertex="1" parent="reJXSmA4aoyDP7H5V71n-4">
          <mxGeometry x="42.5" y="90" width="30" height="30" as="geometry" />
        </mxCell>
        <mxCell id="reJXSmA4aoyDP7H5V71n-7" value="Claims Data" style="shape=image;verticalLabelPosition=bottom;labelBackgroundColor=default;verticalAlign=top;aspect=fixed;imageAspect=0;editableCssRules=.*;image=data:image/svg+xml,PHN2ZyB4bWxucz0iaHR0cDovL3d3dy53My5vcmcvMjAwMC9zdmciIGRhdGEtbmFtZT0iTGF5ZXIgMSIgaWQ9IkxheWVyXzEiIHZpZXdCb3g9IjAgMCAzMiAzMiIgaGVpZ2h0PSI4MDAiIHdpZHRoPSI4MDAiIGZpbGw9IiMwMDAwMDAiPiYjeGE7ICA8ZGVmcz4mI3hhOyAgICA8c3R5bGU+JiN4YTsgICAgICAuY2xzLTEgeyYjeGE7ICAgICAgICBmaWxsOiBub25lOyYjeGE7ICAgICAgfSYjeGE7ICAgIDwvc3R5bGU+JiN4YTsgIDwvZGVmcz4mI3hhOyAgPHJlY3QgaGVpZ2h0PSIyIiB3aWR0aD0iMjgiIHk9IjI4IiB4PSIyIi8+JiN4YTsgIDxyZWN0IHRyYW5zZm9ybT0idHJhbnNsYXRlKC00LjY1NjcgMTMuNzg2Nykgcm90YXRlKC00NSkiIGhlaWdodD0iMiIgd2lkdGg9IjYiIHk9IjExLjUxNDUiIHg9IjExLjMxMzciLz4mI3hhOyAgPHBhdGggdHJhbnNmb3JtPSJ0cmFuc2xhdGUoMCAwKSIgZD0iTTEyLjA4MTUsMjMuNDMyOWw0LjExNjgsMi4zMTc2YTIuMDA5LDIuMDA5LDAsMCwwLDIuMzg1My0uMzM0NGw4LjgzMjYtOC44MzI2YTIuMDA4OCwyLjAwODgsMCwwLDAsLjMzNC0yLjM4NTZsLTIuMjk3Ny00LjEzNiwxLjc5LTEuNzlMMjUuODI4Myw2Ljg1NzcsMjQuNDE0MSw4LjI3MTlsLTQuOTUtNC45NWEyLjAwMjYsMi4wMDI2LDAsMCwwLTIuODI4NSwwTDE0LjUxNDYsMS4yMDA4LDEzLjEsMi42MTVsMi4xMjEzLDIuMTIxNEw2LjczNjQsMTMuMjIxNiw0LjYxNTEsMTEuMSwzLjIwMDksMTIuNTE0NWwyLjEyMTMsMi4xMjEzYTIuMDAyNSwyLjAwMjUsMCwwLDAsMCwyLjgyODVsNC45NSw0Ljk1TDguODU3NywyMy44MjgybDEuNDE0MywxLjQxNDJabTEzLjkyLTguMjYzNi04LjgzMjgsOC44MzI4LTQuNTQ1Ni0yLjUyNTVMMjMuNDc2NywxMC42MjM1Wk05LjU2NDksMTguODc4NWwxLjQxNDItMS40MTQyTDkuNTY0OSwxNi4wNSw4LjE1MDYsMTcuNDY0Myw2LjczNjQsMTYuMDUsMTguMDUsNC43MzY0bDEuNDE0MywxLjQxNDJMMTguMDUsNy41NjQ4LDE5LjQ2NDQsOC45NzlsMS40MTQyLTEuNDE0MkwyMi4yOTI4LDguOTc5LDEwLjk3OTEsMjAuMjkyN1oiLz4mI3hhOyAgPHJlY3QgaGVpZ2h0PSIzMiIgd2lkdGg9IjMyIiBjbGFzcz0iY2xzLTEiIGRhdGEtbmFtZT0iJmx0O1RyYW5zcGFyZW50IFJlY3RhbmdsZSZndDsiIGlkPSJfVHJhbnNwYXJlbnRfUmVjdGFuZ2xlXyIvPiYjeGE7PC9zdmc+;flipH=0;" vertex="1" parent="reJXSmA4aoyDP7H5V71n-4">
          <mxGeometry x="42.5" y="156" width="30" height="30" as="geometry" />
        </mxCell>
        <mxCell id="reJXSmA4aoyDP7H5V71n-8" value="Policy Data" style="shape=image;verticalLabelPosition=bottom;labelBackgroundColor=default;verticalAlign=top;aspect=fixed;imageAspect=0;editableCssRules=.*;image=data:image/svg+xml,PHN2ZyB4bWxucz0iaHR0cDovL3d3dy53My5vcmcvMjAwMC9zdmciIGNsYXNzPSJjZi1pY29uLXN2ZyIgdmlld0JveD0iMC41NTY1MDAwNzcyNDc2MTk2IDIuODI5OTk5OTIzNzA2MDU0NyAxMy44ODY1MDAzNTg1ODE1NDMgMTMuMjM4MDAwODY5NzUwOTc3IiBoZWlnaHQ9IjU1Ny4zODk1MTAzMDUzMDQzIiB3aWR0aD0iNTg0LjY5NDc1MTk0MDI3NTUiIGZpbGw9IiMwMDAwMDAiPjxwYXRoIGQ9Ik0xNC40NDMgNC40NDVhMS42MTUgMS42MTUgMCAwIDEtMS42MTMgMS42MTRoLS41MDZ2OC4zOTZhMS42MTUgMS42MTUgMCAwIDEtMS42MTMgMS42MTNIMi4xN2ExLjYxMyAxLjYxMyAwIDEgMSAwLTMuMjI3aC41MDVWNC40NDVBMS42MTUgMS42MTUgMCAwIDEgNC4yODkgMi44M2g4LjU0YTEuNjE1IDEuNjE1IDAgMCAxIDEuNjE0IDEuNjE0ek0yLjE3IDE0Ljk2aDcuMDA3YTEuNjEyIDEuNjEyIDAgMCAxIDAtMS4wMUgyLjE3MmEuNTA1LjUwNSAwIDAgMCAwIDEuMDF6bTkuMDQ1LTEwLjUxNWExLjYyIDEuNjIgMCAwIDEgLjA4LS41MDVINC4yOWEuNS41IDAgMCAwLS4zMS4xMDdsLS4wMDIuMDAxYS41LjUgMCAwIDAtLjE5My4zOTd2OC4zOTZoNi4zMzdhLjYxLjYxIDAgMCAxIC42LjQ2Ny42MzIuNjMyIDAgMCAxLS4yNTEuNzAyLjUwNS41MDUgMCAxIDAgLjc0Ni40NDV6bS0uODYgMS40MzhoLTUuNzZWNi45OWg1Ljc2em0wIDIuMjZoLTUuNzZWOS4yNWg1Ljc2em0wIDIuMjZoLTUuNzZ2MS4xMDhoNS43NnptMi45NzktNS45NThhLjUwNi41MDYgMCAwIDAtLjUwNS0uNTA1LjQ5Ni40OTYgMCAwIDAtLjMxLjEwN2gtLjAwMmEuNTAxLjUwMSAwIDAgMC0uMTk0LjM5OHYuNTA1aC41MDZhLjUwNi41MDYgMCAwIDAgLjUwNS0uNTA1eiIvPjwvc3ZnPg==;imageBackground=default;flipH=0;" vertex="1" parent="reJXSmA4aoyDP7H5V71n-4">
          <mxGeometry x="42.5" y="223" width="30" height="28.57" as="geometry" />
        </mxCell>
        <mxCell id="reJXSmA4aoyDP7H5V71n-9" value="Geospatial Data" style="shape=image;verticalLabelPosition=bottom;labelBackgroundColor=default;verticalAlign=top;aspect=fixed;imageAspect=0;editableCssRules=.*;image=data:image/svg+xml,PHN2ZyB4bWxucz0iaHR0cDovL3d3dy53My5vcmcvMjAwMC9zdmciIGNsYXNzPSJjZi1pY29uLXN2ZyIgdmlld0JveD0iMC42MDgyNTc1OTE3MjQzOTU4IDMuOTY0MzAzNzMxOTE4MzM1IDE0Ljc4MzQ4MzUwNTI0OTAyMyAxMS4yMzkzNDY1MDQyMTE0MjYiIGhlaWdodD0iNDczLjIzNTY0MjI4MjU4NjM1IiB3aWR0aD0iNjIyLjQ2MjQ2MzM3ODkwNjIiIGZpbGw9IiMwMDAwMDAiPjxwYXRoIGQ9Ik0xNS4wODQgMTUuMkguOTE2YS4yNjQuMjY0IDAgMCAxLS4yNTQtLjQybDIuMzYtNC40OTJhLjg2NS44NjUgMCAwIDEgLjY5Ni0uNDJoLjgyN2E5LjUxIDkuNTEgMCAwIDAgLjk0MyAxLjEwOEgzLjkxMmwtMS42MzcgMy4xMTZoMTEuNDVsLTEuNjM3LTMuMTE2aC0xLjM0YTkuNDgxIDkuNDgxIDAgMCAwIC45NDMtMS4xMDloLjU5MWEuODY2Ljg2NiAwIDAgMSAuNjk2LjQyMWwyLjM2IDQuNDkyYS4yNjQuMjY0IDAgMCAxLS4yNTQuNDJ6TTExLjQgNy4xODljMCAyLjY0LTIuMTc2IDIuODg4LTMuMTAzIDUuNDZhLjE4Mi4xODIgMCAwIDEtLjM1NiAwYy0uOTI4LTIuNTcyLTMuMTA0LTIuODItMy4xMDQtNS40NmEzLjI4MiAzLjI4MiAwIDAgMSA2LjU2MyAwem0tMS44Ni0uMDA1YTEuNDI1IDEuNDI1IDAgMSAwLTEuNDI1IDEuNDI1QTEuNDI1IDEuNDI1IDAgMCAwIDkuNTQgNy4xODR6Ii8+PC9zdmc+;flipH=0;" vertex="1" parent="reJXSmA4aoyDP7H5V71n-4">
          <mxGeometry x="42.5" y="423" width="30" height="22.82" as="geometry" />
        </mxCell>
        <mxCell id="reJXSmA4aoyDP7H5V71n-10" value="Pricing Data" style="shape=image;verticalLabelPosition=bottom;labelBackgroundColor=default;verticalAlign=top;aspect=fixed;imageAspect=0;editableCssRules=.*;image=data:image/svg+xml,PHN2ZyB4bWxuczp4bGluaz0iaHR0cDovL3d3dy53My5vcmcvMTk5OS94bGluayIgeG1sbnM9Imh0dHA6Ly93d3cudzMub3JnLzIwMDAvc3ZnIiB2aWV3Qm94PSIwLjQ4MzIxNTMzMjAzMTI1IDAuNTQ5NDM4NDc2NTYyNSAzMS4wMzM5MDUwMjkyOTY4NzUgMzAuOTAzMzIwMzEyNSIgaGVpZ2h0PSI3NzIuNTgzMDA3ODEyNSIgd2lkdGg9Ijc3NS44NDc2MjU3MzI0MjE5Ij4mI3hhOyAgPGRlZnM+JiN4YTsgICAgPGNsaXBQYXRoIGlkPSJjbGlwLXByaWNldGFnMiI+JiN4YTsgICAgICA8cmVjdCBoZWlnaHQ9IjMyIiB3aWR0aD0iMzIiLz4mI3hhOyAgICA8L2NsaXBQYXRoPiYjeGE7ICA8L2RlZnM+JiN4YTsgIDxnIGNsaXAtcGF0aD0idXJsKCNjbGlwLXByaWNldGFnMikiIGlkPSJwcmljZXRhZzIiPiYjeGE7ICAgIDxnIHRyYW5zZm9ybT0idHJhbnNsYXRlKC0yMDggLTI2MCkiIGRhdGEtbmFtZT0iR3JvdXAgMjQwMSIgaWQ9Ikdyb3VwXzI0MDEiPiYjeGE7ICAgICAgPGcgZGF0YS1uYW1lPSJHcm91cCAyMzk3IiBpZD0iR3JvdXBfMjM5NyI+JiN4YTsgICAgICAgIDxnIGRhdGEtbmFtZT0iR3JvdXAgMjM5NiIgaWQ9Ikdyb3VwXzIzOTYiPiYjeGE7ICAgICAgICAgIDxnIGRhdGEtbmFtZT0iR3JvdXAgMjM5NSIgaWQ9Ikdyb3VwXzIzOTUiPiYjeGE7ICAgICAgICAgICAgPHBhdGggZmlsbD0iIzM0NDk1MiIgZD0iTTIyNy4xNjgsMjczLjQxOWwuNTI0LS41MjRxLjQtLjQuMDg3LS43MDh0LS43MTMuMWwtLjUxNC41MTRhMy4zNywzLjM3LDAsMCwwLTIuMTU2LS45MTUsMi45NDEsMi45NDEsMCwwLDAtMi42NzUsMi4xNTYsMi42LDIuNiwwLDAsMCwuMDgsMS4zMzcsOC4zOTEsOC4zOTEsMCwwLDAsLjY4NywxLjQ4NmwtMi4yNTYsMi4yNTVhMS44NDQsMS44NDQsMCwwLDEtLjI1NC0uNzg4LDEuNjUyLDEuNjUyLDAsMCwxLC4wOTItLjY3OSw4LjY1Miw4LjY1MiwwLDAsMSwuMzgxLS44MzYuNzQ1Ljc0NSwwLDAsMCwuMDc3LS40OTUuOTA2LjkwNiwwLDAsMC0uMjY3LS40NzEuODU0Ljg1NCwwLDAsMC0uNjQtLjI2Ni44MjguODI4LDAsMCwwLS42LjIzNywyLjM2NywyLjM2NywwLDAsMC0uNTA3Ljc3OSwyLjk4NSwyLjk4NSwwLDAsMC0uMjExLDEuMDUsMy4zMjMsMy4zMjMsMCwwLDAsLjIsMS4yMTUsNC4zMzgsNC4zMzgsMCwwLDAsLjcyNSwxLjI1OGwtMS4zMDksMS4zMWEuODYxLjg2MSwwLDAsMC0uMjYuNC4zODYuMzg2LDAsMCwwLC4xMzguMzUyLjMzNi4zMzYsMCwwLDAsLjM3Ni4xMTQsMS42MSwxLjYxLDAsMCwwLC40NzMtLjM2MmwxLjIwOC0xLjIwN2EzLjg1NiwzLjg1NiwwLDAsMCwxLjU2Mi44MzQsMi45MTMsMi45MTMsMCwwLDAsMS41NTItLjAyNCwzLjA2MSwzLjA2MSwwLDAsMCwxLjI5NS0uNzc2LDIuODUsMi44NSwwLDAsMCwuNjUtLjk3NSwyLjU2NCwyLjU2NCwwLDAsMCwuMTc0LTEuMSwyLjgwNiwyLjgwNiwwLDAsMC0uMjQ1LTEuMDMxcS0uMjItLjQ5Mi0uNjU3LTEuMjU5bDIuMDE4LTIuMDE3YTEuNTU0LDEuNTU0LDAsMCwxLS4wMzQsMS41NzYuODUzLjg1MywwLDAsMCwuMSwxLjEzLjgyNi44MjYsMCwwLDAsLjYwNi4yNTIuODA3LjgwNywwLDAsMCwuNi0uMjQyLDEuNjY2LDEuNjY2LDAsMCwwLC4zNjItLjYsMi45MTQsMi45MTQsMCwwLDAsLjE3Mi0uODQ2LDIuNSwyLjUsMCwwLDAtLjE2Mi0xLjEzM0E0LjMsNC4zLDAsMCwwLDIyNy4xNjgsMjczLjQxOVptLTQuMjYzLDYuMzFhMS40MTMsMS40MTMsMCwwLDEtLjk1Ni40MjIsMS44ODMsMS44ODMsMCwwLDEtMS4xNDktLjM2NGwyLjEyNC0yLjEyNGEyLjk4NywyLjk4NywwLDAsMSwuMzc0LDEuMTU0QTEuMTc0LDEuMTc0LDAsMCwxLDIyMi45LDI3OS43MjlabS44NDQtNC4xMjNhMi43NiwyLjc2LDAsMCwxLS4yOTQtMS4wMDYsMS4yNzQsMS4yNzQsMCwwLDEsMS4yLTEuMTY3LDIuNDE0LDIuNDE0LDAsMCwxLC45NTUuMzE1WiIgZGF0YS1uYW1lPSJQYXRoIDM4NTYiIGlkPSJQYXRoXzM4NTYiLz4mI3hhOyAgICAgICAgICA8L2c+JiN4YTsgICAgICAgIDwvZz4mI3hhOyAgICAgIDwvZz4mI3hhOyAgICAgIDxnIGRhdGEtbmFtZT0iR3JvdXAgMjQwMCIgaWQ9Ikdyb3VwXzI0MDAiPiYjeGE7ICAgICAgICA8ZyBkYXRhLW5hbWU9Ikdyb3VwIDIzOTkiIGlkPSJHcm91cF8yMzk5Ij4mI3hhOyAgICAgICAgICA8ZyBkYXRhLW5hbWU9Ikdyb3VwIDIzOTgiIGlkPSJHcm91cF8yMzk4Ij4mI3hhOyAgICAgICAgICAgIDxwYXRoIGZpbGw9IiMzNDQ5NTIiIGQ9Ik0yMzkuNTE2LDI2MS4wMTRhLjQ3LjQ3LDAsMCwwLS41MTktLjQ2Mi41MDYuNTA2LDAsMCwwLS40OC41MTRjMCwuMDYzLS4wMTMsMS41NTYtMy4zMTQsMS45NzhhNC42MzIsNC42MzIsMCwwLDAtMS42MzEuNTI5bC0xLjYxMy0xLjYxNGExLDEsMCwwLDAtLjk2Ni0uMjU5bC04LjAxNiwyLjE0OWExLDEsMCwwLDAtLjY3NS4yOTJsLTEzLjUyNiwxMy41MjZhMSwxLDAsMCwwLDAsMS40MTRsMTIuMDgsMTIuMDc5YTEsMSwwLDAsMCwxLjQxNCwwTDIzNS44LDI3Ny42MzVhMSwxLDAsMCwwLC4yOTItLjY3M2wyLjE0OC04LjAxOGExLDEsMCwwLDAtLjI1OS0uOTY2bC0zLjY1Ny0zLjY1N2EzLjY3MiwzLjY3MiwwLDAsMSwxLjAxLS4yODVDMjM5LjYyMSwyNjMuNDg4LDIzOS41MjIsMjYxLjExNCwyMzkuNTE2LDI2MS4wMTRabS01LjM2MSwxNS40MzMtMTIuNTkyLDEyLjU5MkwyMTAuOSwyNzguMzc0bDEyLjU5Mi0xMi41OTMsNy40NjQtMiwxLjA5MiwxLjA5M2E3LjU4OSw3LjU4OSwwLDAsMC0xLjE2NSwyLjE2NCwyLjEyMiwyLjEyMiwwLDEsMCwuOTY3LjI0NSw2LjQ2MSw2LjQ2MSwwLDAsMSwuOTA4LTEuN2wzLjQsMy40Wm0tMi41NDUtOC4xMmExLDEsMCwxLDEtMS40MTUsMCwuOTc4Ljk3OCwwLDAsMSwuMzcxLS4yMjcsNy44MjIsNy44MjIsMCwwLDAtLjE2MS44ODYuNS41LDAsMCwwLC40NDguNTQ1LjQyMy40MjMsMCwwLDAsLjA1LDAsLjUuNSwwLDAsMCwuNS0uNDUxLDcuMjI2LDcuMjI2LDAsMCwxLC4xNDctLjhDMjMxLjU2NiwyNjguMywyMzEuNTkxLDI2OC4zMDksMjMxLjYxLDI2OC4zMjdaIiBkYXRhLW5hbWU9IlBhdGggMzg1NyIgaWQ9IlBhdGhfMzg1NyIvPiYjeGE7ICAgICAgICAgIDwvZz4mI3hhOyAgICAgICAgPC9nPiYjeGE7ICAgICAgPC9nPiYjeGE7ICAgIDwvZz4mI3hhOyAgPC9nPiYjeGE7PC9zdmc+;flipH=0;" vertex="1" parent="reJXSmA4aoyDP7H5V71n-4">
          <mxGeometry x="42.5" y="354" width="30" height="29.89" as="geometry" />
        </mxCell>
        <mxCell id="reJXSmA4aoyDP7H5V71n-11" value="Reference Data" style="shape=image;verticalLabelPosition=bottom;labelBackgroundColor=default;verticalAlign=top;aspect=fixed;imageAspect=0;editableCssRules=.*;image=data:image/svg+xml,PHN2ZyB4bWxuczp4bGluaz0iaHR0cDovL3d3dy53My5vcmcvMTk5OS94bGluayIgeG1sbnM9Imh0dHA6Ly93d3cudzMub3JnLzIwMDAvc3ZnIiBwcmVzZXJ2ZUFzcGVjdFJhdGlvPSJ4TWlkWU1pZCBtZWV0IiB2ZXJzaW9uPSIxLjEiIHZpZXdCb3g9IjAgMCAzNiAzNiIgaGVpZ2h0PSI4MDAiIHdpZHRoPSI4MDAiIGZpbGw9IiMwMDAwMDAiPiYjeGE7ICAgIDx0aXRsZT5saWJyYXJ5LWxpbmU8L3RpdGxlPiYjeGE7ICAgIDxwYXRoIGNsYXNzPSJjbHItaS1vdXRsaW5lIGNsci1pLW91dGxpbmUtcGF0aC0xIiBkPSJNMzMuNDgsMjkuNjMsMjYuNzQsMTEuODJhMiwyLDAsMCwwLTIuNTgtMS4xNkwyMSwxMS44NVY4LjkyQTEuOTIsMS45MiwwLDAsMCwxOS4wOCw3SDE0VjQuOTJBMS45MiwxLjkyLDAsMCwwLDEyLjA4LDNINUEyLDIsMCwwLDAsMyw1VjMyYTEsMSwwLDAsMCwxLDFIMjBhMSwxLDAsMCwwLDEtMVYxOS4yN2w1LDEzLjIxYTEsMSwwLDAsMCwxLjI5LjU4bDUuNjEtMi4xNGExLDEsMCwwLDAsLjU4LTEuMjlaTTEyLDguODNWMzFINVY1aDdaTTE5LDMxSDE0VjloNVptOC41MS0uMjVMMjEuMTMsMTMuOTJsMy43NC0xLjQyLDYuMzksMTYuODNaIi8+JiN4YTsgICAgPHJlY3QgZmlsbC1vcGFjaXR5PSIwIiBoZWlnaHQ9IjM2IiB3aWR0aD0iMzYiIHk9IjAiIHg9IjAiLz4mI3hhOzwvc3ZnPg==;flipH=0;" vertex="1" parent="reJXSmA4aoyDP7H5V71n-4">
          <mxGeometry x="42.5" y="486" width="30" height="30" as="geometry" />
        </mxCell>
        <mxCell id="reJXSmA4aoyDP7H5V71n-12" value="Bordereau" style="shape=image;verticalLabelPosition=bottom;labelBackgroundColor=default;verticalAlign=top;aspect=fixed;imageAspect=0;editableCssRules=.*;image=data:image/svg+xml,PHN2ZyB4bWxucz0iaHR0cDovL3d3dy53My5vcmcvMjAwMC9zdmciIGlkPSJzdmc4IiB2ZXJzaW9uPSIxLjEiIHZpZXdCb3g9IjMyIDE2IDE5Mi4wMDAzNTA5NTIxNDg0NCAyMjQiIGhlaWdodD0iMjI0IiB3aWR0aD0iMTkyLjAwMDM1MDk1MjE0ODQ0Ij4mI3hhOyAgPHRpdGxlIGlkPSJ0aXRsZTg1MSI+R2FsYSBpY29uIHNldDwvdGl0bGU+JiN4YTsgIDxkZWZzIGlkPSJkZWZzMiIvPiYjeGE7ICAmI3hhOyAgICAmI3hhOyAgICAmI3hhOyAgICAmI3hhOyAgJiN4YTsgIDxtZXRhZGF0YSBpZD0ibWV0YWRhdGE1Ij4mI3hhOyAgICAmI3hhOyAgICAgICYjeGE7ICAgICAgICBpbWFnZS9zdmcreG1sJiN4YTsgICAgICAgICYjeGE7ICAgICAgICBHYWxhIGljb24gc2V0JiN4YTsgICAgICAgIGh0dHBzOi8vZ2l0aHViLmNvbS9zaXN5cGh1c2lvbi9nYWxhLWljb25zJiN4YTsgICAgICAgICYjeGE7ICAgICAgICAgICYjeGE7ICAgICAgICAmI3hhOyAgICAgICAgJiN4YTsgICAgICAgICAgJiN4YTsgICAgICAgICAgICBKYWtlIFdlbGxzJiN4YTsgICAgICAgICAgJiN4YTsgICAgICAgICYjeGE7ICAgICAgICAmI3hhOyAgICAgICAgICAmI3hhOyAgICAgICAgICAgICYjeGE7ICAgICAgICAgICYjeGE7ICAgICAgICAmI3hhOyAgICAgICYjeGE7ICAgICYjeGE7ICA8L21ldGFkYXRhPiYjeGE7ICA8ZyBpZD0ibGF5ZXIxIj4mI3hhOyAgICA8cGF0aCBzdHlsZT0iZmlsbDpub25lO3N0cm9rZTojMDAwMDAwO3N0cm9rZS13aWR0aDoxNS45OTIzNDM5O3N0cm9rZS1saW5lY2FwOnJvdW5kO3N0cm9rZS1saW5lam9pbjptaXRlcjtzdHJva2UtbWl0ZXJsaW1pdDo0O3N0cm9rZS1kYXNoYXJyYXk6bm9uZTtzdHJva2Utb3BhY2l0eToxIiBkPSJNIDMyLDQ4IFYgMjA3LjkyMzYiIGlkPSJwYXRoODcwIi8+JiN4YTsgICAgPHBhdGggc3R5bGU9ImZpbGw6bm9uZTtzdHJva2U6IzAwMDAwMDtzdHJva2Utd2lkdGg6MTUuOTkyMzQzOTtzdHJva2UtbGluZWNhcDpyb3VuZDtzdHJva2UtbGluZWpvaW46cm91bmQ7c3Ryb2tlLW1pdGVybGltaXQ6NDtzdHJva2UtZGFzaGFycmF5Om5vbmU7c3Ryb2tlLW9wYWNpdHk6MSIgZD0iTSAyMjQsOTYgViAyMDgiIGlkPSJwYXRoODc0Ii8+JiN4YTsgICAgPHBhdGggc3R5bGU9ImZpbGw6bm9uZTtzdHJva2U6IzAwMDAwMDtzdHJva2Utd2lkdGg6MTUuOTkyMzQzOTtzdHJva2UtbGluZWNhcDpyb3VuZDtzdHJva2UtbGluZWpvaW46cm91bmQ7c3Ryb2tlLW1pdGVybGltaXQ6NDtzdHJva2UtZGFzaGFycmF5Om5vbmU7c3Ryb2tlLW9wYWNpdHk6MSIgZD0ibSA2NCwxNiBoIDgwIiBpZD0icGF0aDg4MCIvPiYjeGE7ICAgIDxwYXRoIHN0eWxlPSJmaWxsOm5vbmU7c3Ryb2tlOiMwMDAwMDA7c3Ryb2tlLXdpZHRoOjE1Ljk5MjM0Mzk7c3Ryb2tlLWxpbmVjYXA6cm91bmQ7c3Ryb2tlLWxpbmVqb2luOm1pdGVyO3N0cm9rZS1taXRlcmxpbWl0OjQ7c3Ryb2tlLWRhc2hhcnJheTpub25lO3N0cm9rZS1vcGFjaXR5OjEiIGQ9Ik0gNjQsMjQwIEggMTkyIiBpZD0icGF0aDg4MiIvPiYjeGE7ICAgIDxwYXRoIGlkPSJwYXRoODg2IiBkPSJtIDIyNCwyMDggYyAwLjA4NzQsMTUuOTgxNjkgLTE2LDMyIC0zMiwzMiIgc3R5bGU9ImZpbGw6bm9uZTtzdHJva2U6IzAwMDAwMDtzdHJva2Utd2lkdGg6MTUuOTkyMzQzOTtzdHJva2UtbGluZWNhcDpyb3VuZDtzdHJva2UtbGluZWpvaW46cm91bmQ7c3Ryb2tlLW1pdGVybGltaXQ6NDtzdHJva2UtZGFzaGFycmF5Om5vbmU7c3Ryb2tlLW9wYWNpdHk6MSIvPiYjeGE7ICAgIDxwYXRoIGlkPSJwYXRoODg2LTMiIGQ9Im0gLTMyLDIwOCBjIC0xMGUtNywxNiAtMTYsMzIgLTMyLDMyIiBzdHlsZT0iZmlsbDpub25lO3N0cm9rZTojMDAwMDAwO3N0cm9rZS13aWR0aDoxNS45OTIzNDM5O3N0cm9rZS1saW5lY2FwOnJvdW5kO3N0cm9rZS1saW5lam9pbjpyb3VuZDtzdHJva2UtbWl0ZXJsaW1pdDo0O3N0cm9rZS1kYXNoYXJyYXk6bm9uZTtzdHJva2Utb3BhY2l0eToxIiB0cmFuc2Zvcm09InNjYWxlKC0xLDEpIi8+JiN4YTsgICAgPHBhdGggaWQ9InBhdGg4ODYtMy02IiBkPSJNIC0zMiwtNDcuOTc2Nzg0IEMgLTMyLC0zMiAtNDgsLTE2LjM1NjMyMiAtNjMuOTk5OTk3LC0xNi4wMDAwMDIiIHN0eWxlPSJmaWxsOm5vbmU7c3Ryb2tlOiMwMDAwMDA7c3Ryb2tlLXdpZHRoOjE1Ljk5MjM0Mzk7c3Ryb2tlLWxpbmVjYXA6cm91bmQ7c3Ryb2tlLWxpbmVqb2luOnJvdW5kO3N0cm9rZS1taXRlcmxpbWl0OjQ7c3Ryb2tlLWRhc2hhcnJheTpub25lO3N0cm9rZS1vcGFjaXR5OjEiIHRyYW5zZm9ybT0ic2NhbGUoLTEpIi8+JiN4YTsgICAgPHBhdGggc3R5bGU9ImZpbGw6bm9uZTtzdHJva2U6IzAwMDAwMDtzdHJva2Utd2lkdGg6MTUuOTkyMzQzOTtzdHJva2UtbGluZWNhcDpyb3VuZDtzdHJva2UtbGluZWpvaW46cm91bmQ7c3Ryb2tlLW1pdGVybGltaXQ6NDtzdHJva2UtZGFzaGFycmF5Om5vbmU7c3Ryb2tlLW9wYWNpdHk6MSIgZD0iTSAyMjMuOTEyNTcsOTYuMDcxNzc5IDE0NCwxNiIgaWQ9InBhdGg5MzMiLz4mI3hhOyAgICA8cGF0aCBpZD0icGF0aDg4Ni01IiBkPSJtIC0xNDQsNjQgYyAtMC4wNDkyLDE1LjkxMjkyNiAtMTYuMDY0NTIsMzEuOTk5OTk1IC0zMiwzMiIgc3R5bGU9ImZpbGw6bm9uZTtzdHJva2U6IzAwMDAwMDtzdHJva2Utd2lkdGg6MTUuOTkyMzQzOTtzdHJva2UtbGluZWNhcDpyb3VuZDtzdHJva2UtbGluZWpvaW46cm91bmQ7c3Ryb2tlLW1pdGVybGltaXQ6NDtzdHJva2UtZGFzaGFycmF5Om5vbmU7c3Ryb2tlLW9wYWNpdHk6MSIgdHJhbnNmb3JtPSJzY2FsZSgtMSwxKSIvPiYjeGE7ICAgIDxwYXRoIHN0eWxlPSJmaWxsOm5vbmU7c3Ryb2tlOiMwMDAwMDA7c3Ryb2tlLXdpZHRoOjE1Ljk5MjM0Mzk7c3Ryb2tlLWxpbmVjYXA6cm91bmQ7c3Ryb2tlLWxpbmVqb2luOnJvdW5kO3N0cm9rZS1taXRlcmxpbWl0OjQ7c3Ryb2tlLWRhc2hhcnJheTpub25lO3N0cm9rZS1vcGFjaXR5OjEiIGQ9Ik0gMTQ0LDY0IFYgMTYiIGlkPSJwYXRoOTUwIi8+JiN4YTsgICAgPHBhdGggc3R5bGU9ImZpbGw6bm9uZTtzdHJva2U6IzAwMDAwMDtzdHJva2Utd2lkdGg6MTUuOTkyMzQzOTtzdHJva2UtbGluZWNhcDpyb3VuZDtzdHJva2UtbGluZWpvaW46cm91bmQ7c3Ryb2tlLW1pdGVybGltaXQ6NDtzdHJva2UtZGFzaGFycmF5Om5vbmU7c3Ryb2tlLW9wYWNpdHk6MSIgZD0ibSAxNzYsOTYgaCA0OCIgaWQ9InBhdGg5NTIiLz4mI3hhOyAgICA8cGF0aCBpZD0icGF0aDgyOSIgZD0ibSA2NCwxOTIgaCA5NiIgc3R5bGU9ImZpbGw6bm9uZTtzdHJva2U6IzAwMDAwMDtzdHJva2Utd2lkdGg6MTY7c3Ryb2tlLWxpbmVjYXA6cm91bmQ7c3Ryb2tlLWxpbmVqb2luOnJvdW5kO3N0cm9rZS1taXRlcmxpbWl0OjQ7c3Ryb2tlLWRhc2hhcnJheTpub25lO3N0cm9rZS1vcGFjaXR5OjEiLz4mI3hhOyAgICA8cGF0aCBpZD0icGF0aDgzMSIgZD0ibSA2NCwxNjAgaCA5NiIgc3R5bGU9ImZpbGw6bm9uZTtzdHJva2U6IzAwMDAwMDtzdHJva2Utd2lkdGg6MTY7c3Ryb2tlLWxpbmVjYXA6cm91bmQ7c3Ryb2tlLWxpbmVqb2luOnJvdW5kO3N0cm9rZS1taXRlcmxpbWl0OjQ7c3Ryb2tlLWRhc2hhcnJheTpub25lO3N0cm9rZS1vcGFjaXR5OjEiLz4mI3hhOyAgICA8cGF0aCBpZD0icGF0aDgzMyIgZD0ibSA4MCwxNDQgdiA2NCIgc3R5bGU9ImZpbGw6bm9uZTtzdHJva2U6IzAwMDAwMDtzdHJva2Utd2lkdGg6MTY7c3Ryb2tlLWxpbmVjYXA6cm91bmQ7c3Ryb2tlLWxpbmVqb2luOnJvdW5kO3N0cm9rZS1vcGFjaXR5OjE7c3Ryb2tlLW1pdGVybGltaXQ6NDtzdHJva2UtZGFzaGFycmF5Om5vbmUiLz4mI3hhOyAgICA8cGF0aCBpZD0icGF0aDgzNSIgZD0ibSAxMTIsMTQ0IHYgNjQiIHN0eWxlPSJmaWxsOm5vbmU7c3Ryb2tlOiMwMDAwMDA7c3Ryb2tlLXdpZHRoOjE2O3N0cm9rZS1saW5lY2FwOnJvdW5kO3N0cm9rZS1saW5lam9pbjpyb3VuZDtzdHJva2UtbWl0ZXJsaW1pdDo0O3N0cm9rZS1kYXNoYXJyYXk6bm9uZTtzdHJva2Utb3BhY2l0eToxIi8+JiN4YTsgICAgPHBhdGggaWQ9InBhdGg4MzUtMyIgZD0ibSAxNDQsMTQ0IHYgNjQiIHN0eWxlPSJmaWxsOm5vbmU7c3Ryb2tlOiMwMDAwMDA7c3Ryb2tlLXdpZHRoOjE2O3N0cm9rZS1saW5lY2FwOnJvdW5kO3N0cm9rZS1saW5lam9pbjpyb3VuZDtzdHJva2UtbWl0ZXJsaW1pdDo0O3N0cm9rZS1kYXNoYXJyYXk6bm9uZTtzdHJva2Utb3BhY2l0eToxIi8+JiN4YTsgIDwvZz4mI3hhOzwvc3ZnPg==;flipH=0;" vertex="1" parent="reJXSmA4aoyDP7H5V71n-4">
          <mxGeometry x="42.5" y="285" width="30" height="35" as="geometry" />
        </mxCell>
        <mxCell id="wzLn14jflIUiy7ng7ssj-7" value="&lt;div&gt;&lt;div&gt;Structured or&lt;br&gt;Unstructured data&lt;/div&gt;&lt;/div&gt;" style="text;html=1;align=center;verticalAlign=middle;resizable=0;points=[];autosize=1;strokeColor=none;fillColor=none;labelPosition=center;verticalLabelPosition=middle;flipH=1;flipV=0;" vertex="1" parent="reJXSmA4aoyDP7H5V71n-4">
          <mxGeometry y="40" width="120" height="40" as="geometry" />
        </mxCell>
        <mxCell id="wzLn14jflIUiy7ng7ssj-0" style="edgeStyle=orthogonalEdgeStyle;rounded=0;orthogonalLoop=1;jettySize=auto;html=1;entryX=0;entryY=0.5;entryDx=0;entryDy=0;strokeColor=#009900;strokeWidth=2;" edge="1" parent="reJXSmA4aoyDP7H5V71n-1" source="reJXSmA4aoyDP7H5V71n-14" target="3EEhmBcrY7OR65Bcb5er-8">
          <mxGeometry relative="1" as="geometry">
            <Array as="points">
              <mxPoint x="320" y="361" />
              <mxPoint x="320" y="283" />
            </Array>
          </mxGeometry>
        </mxCell>
        <mxCell id="reJXSmA4aoyDP7H5V71n-14" value="Data Ingestion" style="swimlane;fillColor=#647687;fontColor=#ffffff;strokeColor=#314354;fontSize=14;startSize=36;" vertex="1" parent="reJXSmA4aoyDP7H5V71n-1">
          <mxGeometry x="190" y="60" width="140" height="601.25" as="geometry">
            <mxRectangle x="400" y="130" width="110" height="30" as="alternateBounds" />
          </mxGeometry>
        </mxCell>
        <mxCell id="reJXSmA4aoyDP7H5V71n-15" value="Batch,&amp;nbsp;&lt;span style=&quot;background-color: transparent; color: light-dark(rgb(0, 0, 0), rgb(255, 255, 255));&quot;&gt;CDC,&amp;nbsp;&lt;/span&gt;&lt;div&gt;&lt;div&gt;or Streaming data&lt;/div&gt;&lt;/div&gt;" style="text;html=1;align=center;verticalAlign=middle;resizable=0;points=[];autosize=1;strokeColor=none;fillColor=none;labelPosition=center;verticalLabelPosition=middle;flipH=1;flipV=0;" vertex="1" parent="reJXSmA4aoyDP7H5V71n-14">
          <mxGeometry x="10" y="40" width="120" height="40" as="geometry" />
        </mxCell>
        <mxCell id="reJXSmA4aoyDP7H5V71n-16" value="Azure&lt;br&gt;Event Hubs" style="image;aspect=fixed;html=1;points=[];align=center;fontSize=12;image=img/lib/azure2/analytics/Event_Hubs.svg;" vertex="1" parent="reJXSmA4aoyDP7H5V71n-14">
          <mxGeometry x="42.085" y="120" width="55.83" height="50" as="geometry" />
        </mxCell>
        <mxCell id="reJXSmA4aoyDP7H5V71n-17" value="Azure&lt;br&gt;Data Factory" style="image;aspect=fixed;html=1;points=[];align=center;fontSize=12;image=img/lib/azure2/databases/Data_Factory.svg;" vertex="1" parent="reJXSmA4aoyDP7H5V71n-14">
          <mxGeometry x="45" y="292" width="50" height="50" as="geometry" />
        </mxCell>
        <mxCell id="wzLn14jflIUiy7ng7ssj-6" value="Databricks&#xa;Lakeflow Connect" style="shape=image;verticalLabelPosition=bottom;labelBackgroundColor=none;verticalAlign=top;aspect=fixed;imageAspect=0;editableCssRules=.*;image=data:image/svg+xml,PHN2ZyB4bWxucz0iaHR0cDovL3d3dy53My5vcmcvMjAwMC9zdmciIHZpZXdCb3g9IjEuMTU0OTk5OTcxMzg5NzcwNSAwLjUgMTUuNjkwMDAxNDg3NzMxOTM0IDE3IiBoZWlnaHQ9IjE3IiB3aWR0aD0iMTUuNjkwMDAxNDg3NzMxOTM0IiBpZD0iYjFlNzE0NzktMjEzOC00NGUwLWFkZjAtMDJmZTlmZWQ1YzFlIj48cGF0aCBmaWxsPSIjZmYzNjIxIiBkPSJNMS4xNTUsNC45M3YuNTEyTDksOS44NjhsNy4wMDYtMy45NTcsMCwxLjZMOSwxMS40OTEsMS41NSw3LjI1OGwtLjM5NS4yMlYxMC41NEw5LDE0Ljk1NWw3LjAwNi0zLjk0MiwwLDEuNTg2TDksMTYuNTgxLDEuNTUsMTIuMzQ3bC0uMzk1LjIydi41MTlMOSwxNy41bDcuODQ1LTQuNDE0VjEwLjAyMWwtLjQtLjIxOEw5LDE0LjAzNiwxLjk5MiwxMC4wNTRWOC40NzZMOSwxMi40MTQsMTYuODQ1LDhWNC45NzhsLS40LS4yMTlMOSw4Ljk5MywyLjM1Miw1LjIxNSw5LDEuNDZsNS40NzYsMy4wOTQuNDc5LS4yNjlWMy44NjNMOSwuNVoiLz48L3N2Zz4=;labelPosition=center;align=center;spacing=6;fontStyle=0;fontSize=12;fontColor=light-dark(#000000,#EDEDED);" vertex="1" parent="reJXSmA4aoyDP7H5V71n-14">
          <mxGeometry x="51.180000000000014" y="470" width="37.64" height="40" as="geometry" />
        </mxCell>
        <mxCell id="reJXSmA4aoyDP7H5V71n-38" value="Azure Platform" style="swimlane;fillColor=#647687;fontColor=#ffffff;strokeColor=#314354;fontSize=14;startSize=36;" vertex="1" parent="reJXSmA4aoyDP7H5V71n-1">
          <mxGeometry x="340" y="560" width="690" height="100" as="geometry">
            <mxRectangle x="400" y="130" width="110" height="30" as="alternateBounds" />
          </mxGeometry>
        </mxCell>
        <mxCell id="reJXSmA4aoyDP7H5V71n-39" value="Azure&lt;div&gt;Entra ID&lt;/div&gt;" style="image;aspect=fixed;html=1;points=[];align=left;fontSize=12;image=img/lib/azure2/other/Entra_Identity.svg;labelPosition=right;verticalLabelPosition=middle;verticalAlign=middle;flipV=0;flipH=0;" vertex="1" parent="reJXSmA4aoyDP7H5V71n-38">
          <mxGeometry x="10" y="50" width="45" height="40" as="geometry" />
        </mxCell>
        <mxCell id="reJXSmA4aoyDP7H5V71n-40" value="Azure&lt;div&gt;&lt;span style=&quot;background-color: light-dark(#ffffff, var(--ge-dark-color, #121212)); color: light-dark(rgb(0, 0, 0), rgb(255, 255, 255));&quot;&gt;Cost Management&lt;/span&gt;&lt;/div&gt;" style="image;aspect=fixed;html=1;points=[];align=left;fontSize=12;image=img/lib/azure2/general/Cost_Management.svg;labelPosition=right;verticalLabelPosition=middle;verticalAlign=middle;flipV=0;flipH=0;" vertex="1" parent="reJXSmA4aoyDP7H5V71n-38">
          <mxGeometry x="540" y="50" width="44.67" height="40" as="geometry" />
        </mxCell>
        <mxCell id="reJXSmA4aoyDP7H5V71n-41" value="Azure&lt;div&gt;Key Vault&lt;/div&gt;" style="image;aspect=fixed;html=1;points=[];align=left;fontSize=12;image=img/lib/azure2/security/Key_Vaults.svg;convertToSvg=0;labelPosition=right;verticalLabelPosition=middle;verticalAlign=middle;flipV=0;flipH=0;" vertex="1" parent="reJXSmA4aoyDP7H5V71n-38">
          <mxGeometry x="224" y="50" width="40" height="40" as="geometry" />
        </mxCell>
        <mxCell id="reJXSmA4aoyDP7H5V71n-42" value="Azure&lt;div&gt;Monitor&lt;/div&gt;" style="image;aspect=fixed;html=1;points=[];align=left;fontSize=12;image=img/lib/azure2/management_governance/Monitor.svg;labelPosition=right;verticalLabelPosition=middle;verticalAlign=middle;flipV=0;flipH=0;" vertex="1" parent="reJXSmA4aoyDP7H5V71n-38">
          <mxGeometry x="330" y="50" width="40" height="40" as="geometry" />
        </mxCell>
        <mxCell id="reJXSmA4aoyDP7H5V71n-43" value="Azure&lt;br&gt;Devops" style="image;sketch=0;aspect=fixed;html=1;points=[];align=left;fontSize=12;image=img/lib/mscae/Azure_DevOps.svg;labelPosition=right;verticalLabelPosition=middle;verticalAlign=middle;flipV=0;flipH=0;" vertex="1" parent="reJXSmA4aoyDP7H5V71n-38">
          <mxGeometry x="436" y="50" width="40" height="40" as="geometry" />
        </mxCell>
        <mxCell id="reJXSmA4aoyDP7H5V71n-37" value="Azure&lt;br&gt;Data Lake" style="image;aspect=fixed;html=1;points=[];align=left;fontSize=12;image=img/lib/azure2/storage/Storage_Accounts.svg;labelPosition=right;verticalLabelPosition=middle;verticalAlign=middle;" vertex="1" parent="reJXSmA4aoyDP7H5V71n-38">
          <mxGeometry x="113" y="50" width="50" height="40" as="geometry" />
        </mxCell>
        <mxCell id="3EEhmBcrY7OR65Bcb5er-60" value="Lakehouse" style="swimlane;fillColor=#647687;fontColor=#ffffff;strokeColor=#314354;fontSize=14;startSize=36;" vertex="1" parent="reJXSmA4aoyDP7H5V71n-1">
          <mxGeometry x="340" y="60" width="690" height="490" as="geometry">
            <mxRectangle x="400" y="130" width="110" height="30" as="alternateBounds" />
          </mxGeometry>
        </mxCell>
        <mxCell id="3EEhmBcrY7OR65Bcb5er-65" value="Goverance, Security, Observabiity, Interoperatibility, Sharing" style="swimlane;fillColor=#647687;fontColor=#ffffff;strokeColor=#314354;fontSize=14;startSize=36;" vertex="1" parent="3EEhmBcrY7OR65Bcb5er-60">
          <mxGeometry x="10" y="380" width="670" height="100" as="geometry">
            <mxRectangle x="400" y="130" width="110" height="30" as="alternateBounds" />
          </mxGeometry>
        </mxCell>
        <mxCell id="3EEhmBcrY7OR65Bcb5er-71" value="Unity Catalog" style="shape=image;verticalLabelPosition=middle;labelBackgroundColor=default;verticalAlign=middle;aspect=fixed;imageAspect=0;editableCssRules=.*;image=data:image/svg+xml,PHN2ZyB4bWxucz0iaHR0cDovL3d3dy53My5vcmcvMjAwMC9zdmciIGZpbGw9Im5vbmUiIHZpZXdCb3g9IjguMzIyNzY1MDA5NDYwNDQ5IDEwLjg1MjYzNTA0MjcyNDYwOSA1NC4zNjY5OTkzNTQyNDgwNDQgNDkuNDcxNTI5Njg4NzIwNyIgaGVpZ2h0PSI0OS40NzE1Mjk2ODg3MjA3IiB3aWR0aD0iNTQuMzY2OTk5MzU0MjQ4MDQ0Ij4mI3hhOzxwYXRoIHN0cm9rZS1saW5lY2FwPSJzcXVhcmUiIHN0cm9rZS1taXRlcmxpbWl0PSIzIiBzdHJva2Utd2lkdGg9IjEuNDAwMTMiIHN0cm9rZT0iI0ZGNUY0NiIgZD0iTTE5LjA5NDUgNTkuNjIzOUMyNC42NTc3IDU5LjYyMzkgMjkuMTY2MSA1NS4xMTU1IDI5LjE2NjEgNDkuNTUyM1YxMS41NTI3SDYxLjk4OTdWNDkuNTUyM0M2MS45ODk3IDU1LjExNTUgNTcuNDgxNSA1OS42MjM5IDUxLjkxODMgNTkuNjIzOSIvPiYjeGE7PHBhdGggc3Ryb2tlLWxpbmVjYXA9InNxdWFyZSIgc3Ryb2tlLW1pdGVybGltaXQ9IjMiIHN0cm9rZS13aWR0aD0iMS40MDAxMyIgc3Ryb2tlPSIjRkY1RjQ2IiBkPSJNNTEuOTE4NCA1OS42MjRIMjkuODE5NiIvPiYjeGE7PHBhdGggc3Ryb2tlLWxpbmVjYXA9InNxdWFyZSIgc3Ryb2tlLW1pdGVybGltaXQ9IjMiIHN0cm9rZS13aWR0aD0iMS40MDAxMyIgc3Ryb2tlPSIjRkY1RjQ2IiBkPSJNMTkuMDk0NSA1OS42MjQxQzEzLjUzMTMgNTkuNjI0MSA5LjAyMjgzIDU1LjExNTcgOS4wMjI4MyA0OS41NTI1VjE4LjkzMTYiLz4mI3hhOzxwYXRoIHN0cm9rZS1saW5lY2FwPSJzcXVhcmUiIHN0cm9rZS1taXRlcmxpbWl0PSIzIiBzdHJva2Utd2lkdGg9IjEuNDAwMTMiIHN0cm9rZT0iI0ZGNUY0NiIgZD0iTTkuMDI3NDcgMTguOTMxNkgyNC40MjQ0Ii8+JiN4YTs8cGF0aCBzdHJva2UtbGluZWNhcD0ic3F1YXJlIiBzdHJva2UtbWl0ZXJsaW1pdD0iMyIgc3Ryb2tlLXdpZHRoPSIxLjQwMDEzIiBzdHJva2U9IiNGRjVGNDYiIGQ9Ik0zNS4wNzQ2IDI0Ljg0NDdINTYuMjY4Ii8+JiN4YTs8cGF0aCBzdHJva2UtbGluZWNhcD0ic3F1YXJlIiBzdHJva2UtbWl0ZXJsaW1pdD0iMyIgc3Ryb2tlLXdpZHRoPSIxLjQwMDEzIiBzdHJva2U9IiNGRjVGNDYiIGQ9Ik0zNS4wNzQ2IDM1Ljk0MjRINTYuMjY4Ii8+JiN4YTs8cGF0aCBzdHJva2UtbGluZWNhcD0ic3F1YXJlIiBzdHJva2UtbWl0ZXJsaW1pdD0iMyIgc3Ryb2tlLXdpZHRoPSIxLjQwMDEzIiBzdHJva2U9IiNGRjVGNDYiIGQ9Ik0zNS4wNzQ2IDQ3LjA0NTlINTYuMjY4Ii8+JiN4YTs8L3N2Zz4=;labelPosition=right;align=left;" vertex="1" parent="3EEhmBcrY7OR65Bcb5er-65">
          <mxGeometry x="30" y="52.39999999999998" width="40" height="36.3" as="geometry" />
        </mxCell>
        <mxCell id="3EEhmBcrY7OR65Bcb5er-72" value="Delta Lake" style="shape=image;imageAspect=0;aspect=fixed;verticalLabelPosition=middle;verticalAlign=middle;image=https://www.thatbluecloud.com/content/images/2023/08/delta-lake-logo-528274377.png;labelPosition=right;align=left;" vertex="1" parent="3EEhmBcrY7OR65Bcb5er-65">
          <mxGeometry x="294.37" y="48.699999999999974" width="41.27" height="40" as="geometry" />
        </mxCell>
        <mxCell id="3EEhmBcrY7OR65Bcb5er-73" value="" style="shape=image;imageAspect=0;aspect=fixed;verticalLabelPosition=bottom;verticalAlign=top;image=https://blogger.googleusercontent.com/img/b/R29vZ2xl/AVvXsEgt38F78lbRW1Am0jP3_GZGgpluZI8HZ2E9b8eNyyvioACDEoivyUH023kLpr6UUt641zfqKSGFgCxWG7zzinGeoT4V7nLRtUVdh_Z4pxP3-pCVbJz-lJgA0KRPOd1H16MRUL8sPB0BwjuerLrt9_RsW6QO8GuZql6d2hVBFu24DTx5rDxJLOi-d5cKxQ/s2225/Logo%20Apache%20Spark.png;" vertex="1" parent="3EEhmBcrY7OR65Bcb5er-65">
          <mxGeometry x="570" y="48.7" width="76.75" height="40" as="geometry" />
        </mxCell>
        <mxCell id="0pYRksL1FNYWAxHqus5z-0" value="Process" style="swimlane;fillColor=#647687;fontColor=#ffffff;strokeColor=#314354;fontSize=14;startSize=36;" vertex="1" parent="3EEhmBcrY7OR65Bcb5er-60">
          <mxGeometry x="10" y="50" width="480" height="316" as="geometry">
            <mxRectangle x="400" y="130" width="110" height="30" as="alternateBounds" />
          </mxGeometry>
        </mxCell>
        <mxCell id="3EEhmBcrY7OR65Bcb5er-27" style="edgeStyle=orthogonalEdgeStyle;rounded=0;orthogonalLoop=1;jettySize=auto;html=1;entryX=0;entryY=0.5;entryDx=0;entryDy=0;strokeColor=#009900;strokeWidth=2;" edge="1" parent="0pYRksL1FNYWAxHqus5z-0" source="3EEhmBcrY7OR65Bcb5er-8" target="3EEhmBcrY7OR65Bcb5er-21">
          <mxGeometry relative="1" as="geometry" />
        </mxCell>
        <mxCell id="3EEhmBcrY7OR65Bcb5er-8" value="Bronze" style="swimlane;fillColor=light-dark(#cc6600, #7d8c9b);fontColor=#ffffff;strokeColor=light-dark(#cc6600, #a9b8c7);fontSize=14;startSize=36;" vertex="1" parent="0pYRksL1FNYWAxHqus5z-0">
          <mxGeometry x="20" y="43" width="125" height="260" as="geometry">
            <mxRectangle x="400" y="130" width="110" height="30" as="alternateBounds" />
          </mxGeometry>
        </mxCell>
        <mxCell id="3EEhmBcrY7OR65Bcb5er-17" value="" style="html=1;verticalLabelPosition=bottom;align=center;labelBackgroundColor=#ffffff;verticalAlign=top;strokeWidth=2;strokeColor=#CC6600;shadow=0;dashed=0;shape=mxgraph.ios7.icons.data;" vertex="1" parent="3EEhmBcrY7OR65Bcb5er-8">
          <mxGeometry x="47.5" y="80" width="30" height="30" as="geometry" />
        </mxCell>
        <mxCell id="3EEhmBcrY7OR65Bcb5er-19" value="" style="html=1;verticalLabelPosition=bottom;align=center;labelBackgroundColor=#ffffff;verticalAlign=top;strokeWidth=2;strokeColor=#CC6600;shadow=0;dashed=0;shape=mxgraph.ios7.icons.data;" vertex="1" parent="3EEhmBcrY7OR65Bcb5er-8">
          <mxGeometry x="47.5" y="127" width="30" height="30" as="geometry" />
        </mxCell>
        <mxCell id="3EEhmBcrY7OR65Bcb5er-18" value="" style="html=1;verticalLabelPosition=bottom;align=center;labelBackgroundColor=#ffffff;verticalAlign=top;strokeWidth=2;strokeColor=#CC6600;shadow=0;dashed=0;shape=mxgraph.ios7.icons.data;" vertex="1" parent="3EEhmBcrY7OR65Bcb5er-8">
          <mxGeometry x="47.5" y="173" width="30" height="30" as="geometry" />
        </mxCell>
        <mxCell id="3EEhmBcrY7OR65Bcb5er-20" value="" style="html=1;verticalLabelPosition=bottom;align=center;labelBackgroundColor=#ffffff;verticalAlign=top;strokeWidth=2;strokeColor=#CC6600;shadow=0;dashed=0;shape=mxgraph.ios7.icons.data;" vertex="1" parent="3EEhmBcrY7OR65Bcb5er-8">
          <mxGeometry x="47.5" y="220" width="30" height="30" as="geometry" />
        </mxCell>
        <mxCell id="3EEhmBcrY7OR65Bcb5er-35" value="Raw&lt;br&gt;Integration" style="text;html=1;align=center;verticalAlign=middle;resizable=0;points=[];autosize=1;strokeColor=none;fillColor=none;" vertex="1" parent="3EEhmBcrY7OR65Bcb5er-8">
          <mxGeometry x="22.5" y="35" width="80" height="40" as="geometry" />
        </mxCell>
        <mxCell id="3EEhmBcrY7OR65Bcb5er-33" style="edgeStyle=orthogonalEdgeStyle;rounded=0;orthogonalLoop=1;jettySize=auto;html=1;entryX=0;entryY=0.5;entryDx=0;entryDy=0;strokeColor=#009900;strokeWidth=2;" edge="1" parent="0pYRksL1FNYWAxHqus5z-0" source="3EEhmBcrY7OR65Bcb5er-21" target="3EEhmBcrY7OR65Bcb5er-28">
          <mxGeometry relative="1" as="geometry" />
        </mxCell>
        <mxCell id="3EEhmBcrY7OR65Bcb5er-21" value="Silver" style="swimlane;fillColor=light-dark(#c0c0c0, #7d8c9b);fontColor=#ffffff;strokeColor=light-dark(#c0c0c0, #a9b8c7);fontSize=14;startSize=36;" vertex="1" parent="0pYRksL1FNYWAxHqus5z-0">
          <mxGeometry x="177.5" y="43" width="125" height="260" as="geometry">
            <mxRectangle x="400" y="130" width="110" height="30" as="alternateBounds" />
          </mxGeometry>
        </mxCell>
        <mxCell id="3EEhmBcrY7OR65Bcb5er-22" value="" style="html=1;verticalLabelPosition=bottom;align=center;labelBackgroundColor=#ffffff;verticalAlign=top;strokeWidth=2;strokeColor=#C0C0C0;shadow=0;dashed=0;shape=mxgraph.ios7.icons.data;" vertex="1" parent="3EEhmBcrY7OR65Bcb5er-21">
          <mxGeometry x="47.5" y="80" width="30" height="30" as="geometry" />
        </mxCell>
        <mxCell id="3EEhmBcrY7OR65Bcb5er-23" value="" style="html=1;verticalLabelPosition=bottom;align=center;labelBackgroundColor=#ffffff;verticalAlign=top;strokeWidth=2;strokeColor=#C0C0C0;shadow=0;dashed=0;shape=mxgraph.ios7.icons.data;" vertex="1" parent="3EEhmBcrY7OR65Bcb5er-21">
          <mxGeometry x="47.5" y="127" width="30" height="30" as="geometry" />
        </mxCell>
        <mxCell id="3EEhmBcrY7OR65Bcb5er-24" value="" style="html=1;verticalLabelPosition=bottom;align=center;labelBackgroundColor=#ffffff;verticalAlign=top;strokeWidth=2;strokeColor=#C0C0C0;shadow=0;dashed=0;shape=mxgraph.ios7.icons.data;" vertex="1" parent="3EEhmBcrY7OR65Bcb5er-21">
          <mxGeometry x="47.5" y="173" width="30" height="30" as="geometry" />
        </mxCell>
        <mxCell id="3EEhmBcrY7OR65Bcb5er-25" value="" style="html=1;verticalLabelPosition=bottom;align=center;labelBackgroundColor=#ffffff;verticalAlign=top;strokeWidth=2;strokeColor=#C0C0C0;shadow=0;dashed=0;shape=mxgraph.ios7.icons.data;" vertex="1" parent="3EEhmBcrY7OR65Bcb5er-21">
          <mxGeometry x="47.5" y="220" width="30" height="30" as="geometry" />
        </mxCell>
        <mxCell id="3EEhmBcrY7OR65Bcb5er-36" value="Filtered, Cleaned,&lt;br&gt;Augmented" style="text;html=1;align=center;verticalAlign=middle;resizable=0;points=[];autosize=1;strokeColor=none;fillColor=none;" vertex="1" parent="3EEhmBcrY7OR65Bcb5er-21">
          <mxGeometry x="2.5" y="40" width="120" height="40" as="geometry" />
        </mxCell>
        <mxCell id="3EEhmBcrY7OR65Bcb5er-28" value="Gold" style="swimlane;fillColor=light-dark(#fcc200, #7d8c9b);fontColor=#ffffff;strokeColor=#FCC200;fontSize=14;startSize=36;" vertex="1" parent="0pYRksL1FNYWAxHqus5z-0">
          <mxGeometry x="330" y="43" width="125" height="260" as="geometry">
            <mxRectangle x="400" y="130" width="110" height="30" as="alternateBounds" />
          </mxGeometry>
        </mxCell>
        <mxCell id="3EEhmBcrY7OR65Bcb5er-37" value="Business Level&lt;br&gt;Aggregates" style="text;html=1;align=center;verticalAlign=middle;resizable=0;points=[];autosize=1;strokeColor=none;fillColor=none;" vertex="1" parent="3EEhmBcrY7OR65Bcb5er-28">
          <mxGeometry x="12.5" y="40" width="100" height="40" as="geometry" />
        </mxCell>
        <mxCell id="3EEhmBcrY7OR65Bcb5er-49" value="" style="group" vertex="1" connectable="0" parent="3EEhmBcrY7OR65Bcb5er-28">
          <mxGeometry x="20" y="80" width="82.5" height="82.5" as="geometry" />
        </mxCell>
        <mxCell id="3EEhmBcrY7OR65Bcb5er-30" value="" style="html=1;verticalLabelPosition=bottom;align=center;labelBackgroundColor=#ffffff;verticalAlign=top;strokeWidth=2;strokeColor=#FCC200;shadow=0;dashed=0;shape=mxgraph.ios7.icons.data;" vertex="1" parent="3EEhmBcrY7OR65Bcb5er-49">
          <mxGeometry x="25" y="27.5" width="30" height="30" as="geometry" />
        </mxCell>
        <mxCell id="3EEhmBcrY7OR65Bcb5er-39" value="" style="html=1;verticalLabelPosition=bottom;align=center;labelBackgroundColor=#ffffff;verticalAlign=top;strokeWidth=1;strokeColor=#FCC200;shadow=0;dashed=0;shape=mxgraph.ios7.icons.data;" vertex="1" parent="3EEhmBcrY7OR65Bcb5er-49">
          <mxGeometry y="35" width="15" height="15" as="geometry" />
        </mxCell>
        <mxCell id="3EEhmBcrY7OR65Bcb5er-40" value="" style="html=1;verticalLabelPosition=bottom;align=center;labelBackgroundColor=#ffffff;verticalAlign=top;strokeWidth=1;strokeColor=#FCC200;shadow=0;dashed=0;shape=mxgraph.ios7.icons.data;" vertex="1" parent="3EEhmBcrY7OR65Bcb5er-49">
          <mxGeometry x="32.5" width="15" height="15" as="geometry" />
        </mxCell>
        <mxCell id="3EEhmBcrY7OR65Bcb5er-41" value="" style="html=1;verticalLabelPosition=bottom;align=center;labelBackgroundColor=#ffffff;verticalAlign=top;strokeWidth=1;strokeColor=#FCC200;shadow=0;dashed=0;shape=mxgraph.ios7.icons.data;" vertex="1" parent="3EEhmBcrY7OR65Bcb5er-49">
          <mxGeometry x="32.5" y="67.5" width="15" height="15" as="geometry" />
        </mxCell>
        <mxCell id="3EEhmBcrY7OR65Bcb5er-46" style="rounded=0;orthogonalLoop=1;jettySize=auto;html=1;entryX=0.503;entryY=1.022;entryDx=0;entryDy=0;entryPerimeter=0;endArrow=none;endFill=0;strokeWidth=0.5;" edge="1" parent="3EEhmBcrY7OR65Bcb5er-49" source="3EEhmBcrY7OR65Bcb5er-30" target="3EEhmBcrY7OR65Bcb5er-40">
          <mxGeometry relative="1" as="geometry" />
        </mxCell>
        <mxCell id="3EEhmBcrY7OR65Bcb5er-47" style="rounded=0;orthogonalLoop=1;jettySize=auto;html=1;entryX=0.969;entryY=0.505;entryDx=0;entryDy=0;entryPerimeter=0;endArrow=none;endFill=0;strokeWidth=0.5;" edge="1" parent="3EEhmBcrY7OR65Bcb5er-49" source="3EEhmBcrY7OR65Bcb5er-30" target="3EEhmBcrY7OR65Bcb5er-39">
          <mxGeometry relative="1" as="geometry" />
        </mxCell>
        <mxCell id="3EEhmBcrY7OR65Bcb5er-48" style="rounded=0;orthogonalLoop=1;jettySize=auto;html=1;entryX=0.461;entryY=-0.021;entryDx=0;entryDy=0;entryPerimeter=0;endArrow=none;endFill=0;strokeWidth=0.5;" edge="1" parent="3EEhmBcrY7OR65Bcb5er-49" source="3EEhmBcrY7OR65Bcb5er-30" target="3EEhmBcrY7OR65Bcb5er-41">
          <mxGeometry relative="1" as="geometry" />
        </mxCell>
        <mxCell id="3EEhmBcrY7OR65Bcb5er-38" value="" style="html=1;verticalLabelPosition=bottom;align=center;labelBackgroundColor=#ffffff;verticalAlign=top;strokeWidth=1;strokeColor=#FCC200;shadow=0;dashed=0;shape=mxgraph.ios7.icons.data;" vertex="1" parent="3EEhmBcrY7OR65Bcb5er-49">
          <mxGeometry x="67.5" y="35" width="15" height="15" as="geometry" />
        </mxCell>
        <mxCell id="3EEhmBcrY7OR65Bcb5er-45" style="rounded=0;orthogonalLoop=1;jettySize=auto;html=1;entryX=0.05;entryY=0.539;entryDx=0;entryDy=0;entryPerimeter=0;endArrow=none;endFill=0;strokeWidth=0.5;" edge="1" parent="3EEhmBcrY7OR65Bcb5er-49" source="3EEhmBcrY7OR65Bcb5er-30" target="3EEhmBcrY7OR65Bcb5er-38">
          <mxGeometry relative="1" as="geometry" />
        </mxCell>
        <mxCell id="reJXSmA4aoyDP7H5V71n-44" value="Azure&#xa;Databricks" style="shape=image;verticalLabelPosition=middle;labelBackgroundColor=none;verticalAlign=middle;aspect=fixed;imageAspect=0;editableCssRules=.*;image=data:image/svg+xml,PHN2ZyB4bWxucz0iaHR0cDovL3d3dy53My5vcmcvMjAwMC9zdmciIHZpZXdCb3g9IjEuMTU0OTk5OTcxMzg5NzcwNSAwLjUgMTUuNjkwMDAxNDg3NzMxOTM0IDE3IiBoZWlnaHQ9IjE3IiB3aWR0aD0iMTUuNjkwMDAxNDg3NzMxOTM0IiBpZD0iYjFlNzE0NzktMjEzOC00NGUwLWFkZjAtMDJmZTlmZWQ1YzFlIj48cGF0aCBmaWxsPSIjZmYzNjIxIiBkPSJNMS4xNTUsNC45M3YuNTEyTDksOS44NjhsNy4wMDYtMy45NTcsMCwxLjZMOSwxMS40OTEsMS41NSw3LjI1OGwtLjM5NS4yMlYxMC41NEw5LDE0Ljk1NWw3LjAwNi0zLjk0MiwwLDEuNTg2TDksMTYuNTgxLDEuNTUsMTIuMzQ3bC0uMzk1LjIydi41MTlMOSwxNy41bDcuODQ1LTQuNDE0VjEwLjAyMWwtLjQtLjIxOEw5LDE0LjAzNiwxLjk5MiwxMC4wNTRWOC40NzZMOSwxMi40MTQsMTYuODQ1LDhWNC45NzhsLS40LS4yMTlMOSw4Ljk5MywyLjM1Miw1LjIxNSw5LDEuNDZsNS40NzYsMy4wOTQuNDc5LS4yNjlWMy44NjNMOSwuNVoiLz48L3N2Zz4=;labelPosition=right;align=left;spacing=6;fontStyle=1;fontSize=12;fontColor=light-dark(#ffffff, #ededed);" vertex="1" parent="0pYRksL1FNYWAxHqus5z-0">
          <mxGeometry x="20" y="10" width="18.82" height="20" as="geometry" />
        </mxCell>
        <mxCell id="3EEhmBcrY7OR65Bcb5er-74" value="BI &amp; Analytics" style="swimlane;fillColor=#647687;fontColor=#ffffff;strokeColor=#314354;fontSize=14;startSize=36;" vertex="1" parent="3EEhmBcrY7OR65Bcb5er-60">
          <mxGeometry x="520" y="216" width="160" height="150" as="geometry">
            <mxRectangle x="400" y="130" width="110" height="30" as="alternateBounds" />
          </mxGeometry>
        </mxCell>
        <mxCell id="0YQ7L8GAUi7gPqgSv9kK-0" value="PowerBI" style="image;aspect=fixed;html=1;points=[];align=center;fontSize=12;image=img/lib/azure2/power_platform/PowerBI.svg;" vertex="1" parent="3EEhmBcrY7OR65Bcb5er-74">
          <mxGeometry x="110" y="65" width="30" height="40" as="geometry" />
        </mxCell>
        <mxCell id="9mLCAhT-A0_taTMdkUAL-0" value="Databricks&lt;br&gt;AI/BI Genie" style="image;sketch=0;aspect=fixed;html=1;points=[];align=center;fontSize=12;image=img/lib/mscae/Chart.svg;" vertex="1" parent="3EEhmBcrY7OR65Bcb5er-74">
          <mxGeometry x="20" y="57" width="50" height="48" as="geometry" />
        </mxCell>
        <mxCell id="eqF-WW0dj0Ki2Mu_PZAx-0" value="Machine Learning" style="swimlane;fillColor=#647687;fontColor=#ffffff;strokeColor=#314354;fontSize=14;startSize=36;" vertex="1" parent="3EEhmBcrY7OR65Bcb5er-60">
          <mxGeometry x="520" y="50" width="160" height="150" as="geometry">
            <mxRectangle x="400" y="130" width="110" height="30" as="alternateBounds" />
          </mxGeometry>
        </mxCell>
        <mxCell id="eqF-WW0dj0Ki2Mu_PZAx-1" value="" style="shape=image;imageAspect=0;aspect=fixed;verticalLabelPosition=bottom;verticalAlign=top;image=https://avatars2.githubusercontent.com/u/39938107?s=400&amp;v=4;" vertex="1" parent="eqF-WW0dj0Ki2Mu_PZAx-0">
          <mxGeometry x="10.000000000000002" y="68" width="60" height="60" as="geometry" />
        </mxCell>
        <mxCell id="wzLn14jflIUiy7ng7ssj-3" value="Databricks&#xa;Model Serving" style="shape=image;verticalLabelPosition=bottom;labelBackgroundColor=none;verticalAlign=top;aspect=fixed;imageAspect=0;editableCssRules=.*;image=data:image/svg+xml,PHN2ZyB4bWxucz0iaHR0cDovL3d3dy53My5vcmcvMjAwMC9zdmciIHZpZXdCb3g9IjEuMTU0OTk5OTcxMzg5NzcwNSAwLjUgMTUuNjkwMDAxNDg3NzMxOTM0IDE3IiBoZWlnaHQ9IjE3IiB3aWR0aD0iMTUuNjkwMDAxNDg3NzMxOTM0IiBpZD0iYjFlNzE0NzktMjEzOC00NGUwLWFkZjAtMDJmZTlmZWQ1YzFlIj48cGF0aCBmaWxsPSIjZmYzNjIxIiBkPSJNMS4xNTUsNC45M3YuNTEyTDksOS44NjhsNy4wMDYtMy45NTcsMCwxLjZMOSwxMS40OTEsMS41NSw3LjI1OGwtLjM5NS4yMlYxMC41NEw5LDE0Ljk1NWw3LjAwNi0zLjk0MiwwLDEuNTg2TDksMTYuNTgxLDEuNTUsMTIuMzQ3bC0uMzk1LjIydi41MTlMOSwxNy41bDcuODQ1LTQuNDE0VjEwLjAyMWwtLjQtLjIxOEw5LDE0LjAzNiwxLjk5MiwxMC4wNTRWOC40NzZMOSwxMi40MTQsMTYuODQ1LDhWNC45NzhsLS40LS4yMTlMOSw4Ljk5MywyLjM1Miw1LjIxNSw5LDEuNDZsNS40NzYsMy4wOTQuNDc5LS4yNjlWMy44NjNMOSwuNVoiLz48L3N2Zz4=;labelPosition=center;align=center;spacing=6;fontStyle=0;fontSize=12;fontColor=light-dark(#000000,#EDEDED);" vertex="1" parent="eqF-WW0dj0Ki2Mu_PZAx-0">
          <mxGeometry x="100" y="55" width="37.64" height="40" as="geometry" />
        </mxCell>
        <mxCell id="wzLn14jflIUiy7ng7ssj-4" style="edgeStyle=orthogonalEdgeStyle;rounded=0;orthogonalLoop=1;jettySize=auto;html=1;entryX=0;entryY=0.5;entryDx=0;entryDy=0;strokeColor=#009900;strokeWidth=2;" edge="1" parent="3EEhmBcrY7OR65Bcb5er-60" source="3EEhmBcrY7OR65Bcb5er-28" target="eqF-WW0dj0Ki2Mu_PZAx-0">
          <mxGeometry relative="1" as="geometry">
            <Array as="points">
              <mxPoint x="500" y="223" />
              <mxPoint x="500" y="125" />
            </Array>
          </mxGeometry>
        </mxCell>
        <mxCell id="wzLn14jflIUiy7ng7ssj-5" style="edgeStyle=orthogonalEdgeStyle;rounded=0;orthogonalLoop=1;jettySize=auto;html=1;entryX=0;entryY=0.5;entryDx=0;entryDy=0;strokeColor=#009900;strokeWidth=2;" edge="1" parent="3EEhmBcrY7OR65Bcb5er-60" source="3EEhmBcrY7OR65Bcb5er-28" target="3EEhmBcrY7OR65Bcb5er-74">
          <mxGeometry relative="1" as="geometry">
            <Array as="points">
              <mxPoint x="500" y="223" />
              <mxPoint x="500" y="291" />
            </Array>
          </mxGeometry>
        </mxCell>
        <mxCell id="3EEhmBcrY7OR65Bcb5er-50" value="" style="group" vertex="1" connectable="0" parent="reJXSmA4aoyDP7H5V71n-1">
          <mxGeometry x="700" y="320" width="82.5" height="82.5" as="geometry" />
        </mxCell>
        <mxCell id="3EEhmBcrY7OR65Bcb5er-51" value="" style="html=1;verticalLabelPosition=bottom;align=center;labelBackgroundColor=#ffffff;verticalAlign=top;strokeWidth=2;strokeColor=#FCC200;shadow=0;dashed=0;shape=mxgraph.ios7.icons.data;" vertex="1" parent="3EEhmBcrY7OR65Bcb5er-50">
          <mxGeometry x="25" y="27.5" width="30" height="30" as="geometry" />
        </mxCell>
        <mxCell id="3EEhmBcrY7OR65Bcb5er-52" value="" style="html=1;verticalLabelPosition=bottom;align=center;labelBackgroundColor=#ffffff;verticalAlign=top;strokeWidth=1;strokeColor=#FCC200;shadow=0;dashed=0;shape=mxgraph.ios7.icons.data;" vertex="1" parent="3EEhmBcrY7OR65Bcb5er-50">
          <mxGeometry y="35" width="15" height="15" as="geometry" />
        </mxCell>
        <mxCell id="3EEhmBcrY7OR65Bcb5er-53" value="" style="html=1;verticalLabelPosition=bottom;align=center;labelBackgroundColor=#ffffff;verticalAlign=top;strokeWidth=1;strokeColor=#FCC200;shadow=0;dashed=0;shape=mxgraph.ios7.icons.data;" vertex="1" parent="3EEhmBcrY7OR65Bcb5er-50">
          <mxGeometry x="32.5" width="15" height="15" as="geometry" />
        </mxCell>
        <mxCell id="3EEhmBcrY7OR65Bcb5er-54" value="" style="html=1;verticalLabelPosition=bottom;align=center;labelBackgroundColor=#ffffff;verticalAlign=top;strokeWidth=1;strokeColor=#FCC200;shadow=0;dashed=0;shape=mxgraph.ios7.icons.data;" vertex="1" parent="3EEhmBcrY7OR65Bcb5er-50">
          <mxGeometry x="32.5" y="67.5" width="15" height="15" as="geometry" />
        </mxCell>
        <mxCell id="3EEhmBcrY7OR65Bcb5er-55" style="rounded=0;orthogonalLoop=1;jettySize=auto;html=1;entryX=0.503;entryY=1.022;entryDx=0;entryDy=0;entryPerimeter=0;endArrow=none;endFill=0;strokeWidth=0.5;" edge="1" parent="3EEhmBcrY7OR65Bcb5er-50" source="3EEhmBcrY7OR65Bcb5er-51" target="3EEhmBcrY7OR65Bcb5er-53">
          <mxGeometry relative="1" as="geometry" />
        </mxCell>
        <mxCell id="3EEhmBcrY7OR65Bcb5er-56" style="rounded=0;orthogonalLoop=1;jettySize=auto;html=1;entryX=0.969;entryY=0.505;entryDx=0;entryDy=0;entryPerimeter=0;endArrow=none;endFill=0;strokeWidth=0.5;" edge="1" parent="3EEhmBcrY7OR65Bcb5er-50" source="3EEhmBcrY7OR65Bcb5er-51" target="3EEhmBcrY7OR65Bcb5er-52">
          <mxGeometry relative="1" as="geometry" />
        </mxCell>
        <mxCell id="3EEhmBcrY7OR65Bcb5er-57" style="rounded=0;orthogonalLoop=1;jettySize=auto;html=1;entryX=0.461;entryY=-0.021;entryDx=0;entryDy=0;entryPerimeter=0;endArrow=none;endFill=0;strokeWidth=0.5;" edge="1" parent="3EEhmBcrY7OR65Bcb5er-50" source="3EEhmBcrY7OR65Bcb5er-51" target="3EEhmBcrY7OR65Bcb5er-54">
          <mxGeometry relative="1" as="geometry" />
        </mxCell>
        <mxCell id="3EEhmBcrY7OR65Bcb5er-58" value="" style="html=1;verticalLabelPosition=bottom;align=center;labelBackgroundColor=#ffffff;verticalAlign=top;strokeWidth=1;strokeColor=#FCC200;shadow=0;dashed=0;shape=mxgraph.ios7.icons.data;" vertex="1" parent="3EEhmBcrY7OR65Bcb5er-50">
          <mxGeometry x="67.5" y="35" width="15" height="15" as="geometry" />
        </mxCell>
        <mxCell id="3EEhmBcrY7OR65Bcb5er-59" style="rounded=0;orthogonalLoop=1;jettySize=auto;html=1;entryX=0.05;entryY=0.539;entryDx=0;entryDy=0;entryPerimeter=0;endArrow=none;endFill=0;strokeWidth=0.5;" edge="1" parent="3EEhmBcrY7OR65Bcb5er-50" source="3EEhmBcrY7OR65Bcb5er-51" target="3EEhmBcrY7OR65Bcb5er-58">
          <mxGeometry relative="1" as="geometry" />
        </mxCell>
      </root>
    </mxGraphModel>
  </diagram>
  <diagram id="6ohgOFyGKyFjG8oRNggo" name="Domains">
    <mxGraphModel dx="1205" dy="743" grid="1" gridSize="10" guides="1" tooltips="1" connect="1" arrows="1" fold="1" page="1" pageScale="1" pageWidth="827" pageHeight="1169" math="0" shadow="0">
      <root>
        <mxCell id="0" />
        <mxCell id="1" parent="0" />
      </root>
    </mxGraphModel>
  </diagram>
</mxfile>
